G04 #@! TF.GenerationSoftware,KiCad,Pcbnew,(5.1.4)-1*
G04 #@! TF.CreationDate,2020-01-01T20:20:34-05:00*
G04 #@! TF.ProjectId,Board,426f6172-642e-46b6-9963-61645f706362,rev?*
G04 #@! TF.SameCoordinates,Original*
G04 #@! TF.FileFunction,Profile,NP*
%FSLAX46Y46*%
G04 Gerber Fmt 4.6, Leading zero omitted, Abs format (unit mm)*
G04 Created by KiCad (PCBNEW (5.1.4)-1) date 2020-01-01 20:20:34*
%MOMM*%
%LPD*%
G04 APERTURE LIST*
%ADD10C,0.050000*%
G04 APERTURE END LIST*
D10*
X162800000Y-63360000D02*
X162800000Y-103360000D01*
X194300000Y-58360000D02*
X167800000Y-58360000D01*
X195300000Y-106360000D02*
X195300000Y-59360000D01*
X193300000Y-108360000D02*
X167800000Y-108360000D01*
X97800000Y-58360000D02*
X160300000Y-58360000D01*
X95300000Y-105860000D02*
X95300000Y-60860000D01*
X160300000Y-108360000D02*
X97800000Y-108360000D01*
X162800000Y-105860000D02*
X162800000Y-103360000D01*
X162800000Y-60860000D02*
X162800000Y-63360000D01*
X95300000Y-60860000D02*
G75*
G02X97800000Y-58360000I2500000J0D01*
G01*
X162800000Y-63360000D02*
G75*
G02X167800000Y-58360000I5000000J0D01*
G01*
X167800000Y-108360000D02*
G75*
G02X162800000Y-103360000I0J5000000D01*
G01*
X195300000Y-106360000D02*
G75*
G02X193300000Y-108360000I-2000000J0D01*
G01*
X194300000Y-58360000D02*
G75*
G02X195300000Y-59360000I0J-1000000D01*
G01*
X162800000Y-105860000D02*
G75*
G02X160300000Y-108360000I-2500000J0D01*
G01*
X97800000Y-108360000D02*
G75*
G02X95300000Y-105860000I0J2500000D01*
G01*
X160300000Y-58360000D02*
G75*
G02X162800000Y-60860000I0J-2500000D01*
G01*
X135285714Y-99412380D02*
X134714285Y-99412380D01*
X135000000Y-99412380D02*
X135000000Y-98412380D01*
X134904761Y-98555238D01*
X134809523Y-98650476D01*
X134714285Y-98698095D01*
X171152380Y-89044285D02*
X171152380Y-89615714D01*
X171152380Y-89330000D02*
X170152380Y-89330000D01*
X170295238Y-89425238D01*
X170390476Y-89520476D01*
X170438095Y-89615714D01*
M02*
