G04 #@! TF.GenerationSoftware,KiCad,Pcbnew,(5.1.4)-1*
G04 #@! TF.CreationDate,2020-01-01T20:20:34-05:00*
G04 #@! TF.ProjectId,Board,426f6172-642e-46b6-9963-61645f706362,rev?*
G04 #@! TF.SameCoordinates,Original*
G04 #@! TF.FileFunction,Legend,Top*
G04 #@! TF.FilePolarity,Positive*
%FSLAX46Y46*%
G04 Gerber Fmt 4.6, Leading zero omitted, Abs format (unit mm)*
G04 Created by KiCad (PCBNEW (5.1.4)-1) date 2020-01-01 20:20:34*
%MOMM*%
%LPD*%
G04 APERTURE LIST*
%ADD10C,0.150000*%
%ADD11C,0.050000*%
%ADD12C,0.120000*%
%ADD13C,0.010000*%
%ADD14C,0.100000*%
%ADD15C,0.127000*%
%ADD16C,0.152400*%
%ADD17C,0.200000*%
%ADD18C,0.254000*%
G04 APERTURE END LIST*
D10*
X184979761Y-66438095D02*
X185027380Y-66295238D01*
X185027380Y-66057142D01*
X184979761Y-65961904D01*
X184932142Y-65914285D01*
X184836904Y-65866666D01*
X184741666Y-65866666D01*
X184646428Y-65914285D01*
X184598809Y-65961904D01*
X184551190Y-66057142D01*
X184503571Y-66247619D01*
X184455952Y-66342857D01*
X184408333Y-66390476D01*
X184313095Y-66438095D01*
X184217857Y-66438095D01*
X184122619Y-66390476D01*
X184075000Y-66342857D01*
X184027380Y-66247619D01*
X184027380Y-66009523D01*
X184075000Y-65866666D01*
X184979761Y-65485714D02*
X185027380Y-65342857D01*
X185027380Y-65104761D01*
X184979761Y-65009523D01*
X184932142Y-64961904D01*
X184836904Y-64914285D01*
X184741666Y-64914285D01*
X184646428Y-64961904D01*
X184598809Y-65009523D01*
X184551190Y-65104761D01*
X184503571Y-65295238D01*
X184455952Y-65390476D01*
X184408333Y-65438095D01*
X184313095Y-65485714D01*
X184217857Y-65485714D01*
X184122619Y-65438095D01*
X184075000Y-65390476D01*
X184027380Y-65295238D01*
X184027380Y-65057142D01*
X184075000Y-64914285D01*
X185027380Y-64485714D02*
X184027380Y-64485714D01*
X184741666Y-64152380D01*
X184027380Y-63819047D01*
X185027380Y-63819047D01*
X184122619Y-63390476D02*
X184075000Y-63342857D01*
X184027380Y-63247619D01*
X184027380Y-63009523D01*
X184075000Y-62914285D01*
X184122619Y-62866666D01*
X184217857Y-62819047D01*
X184313095Y-62819047D01*
X184455952Y-62866666D01*
X185027380Y-63438095D01*
X185027380Y-62819047D01*
X184027380Y-62485714D02*
X184027380Y-61866666D01*
X184408333Y-62200000D01*
X184408333Y-62057142D01*
X184455952Y-61961904D01*
X184503571Y-61914285D01*
X184598809Y-61866666D01*
X184836904Y-61866666D01*
X184932142Y-61914285D01*
X184979761Y-61961904D01*
X185027380Y-62057142D01*
X185027380Y-62342857D01*
X184979761Y-62438095D01*
X184932142Y-62485714D01*
X184027380Y-61247619D02*
X184027380Y-61152380D01*
X184075000Y-61057142D01*
X184122619Y-61009523D01*
X184217857Y-60961904D01*
X184408333Y-60914285D01*
X184646428Y-60914285D01*
X184836904Y-60961904D01*
X184932142Y-61009523D01*
X184979761Y-61057142D01*
X185027380Y-61152380D01*
X185027380Y-61247619D01*
X184979761Y-61342857D01*
X184932142Y-61390476D01*
X184836904Y-61438095D01*
X184646428Y-61485714D01*
X184408333Y-61485714D01*
X184217857Y-61438095D01*
X184122619Y-61390476D01*
X184075000Y-61342857D01*
X184027380Y-61247619D01*
X184027380Y-60057142D02*
X184027380Y-60247619D01*
X184075000Y-60342857D01*
X184122619Y-60390476D01*
X184265476Y-60485714D01*
X184455952Y-60533333D01*
X184836904Y-60533333D01*
X184932142Y-60485714D01*
X184979761Y-60438095D01*
X185027380Y-60342857D01*
X185027380Y-60152380D01*
X184979761Y-60057142D01*
X184932142Y-60009523D01*
X184836904Y-59961904D01*
X184598809Y-59961904D01*
X184503571Y-60009523D01*
X184455952Y-60057142D01*
X184408333Y-60152380D01*
X184408333Y-60342857D01*
X184455952Y-60438095D01*
X184503571Y-60485714D01*
X184598809Y-60533333D01*
X186153571Y-65533333D02*
X186201190Y-65390476D01*
X186248809Y-65342857D01*
X186344047Y-65295238D01*
X186486904Y-65295238D01*
X186582142Y-65342857D01*
X186629761Y-65390476D01*
X186677380Y-65485714D01*
X186677380Y-65866666D01*
X185677380Y-65866666D01*
X185677380Y-65533333D01*
X185725000Y-65438095D01*
X185772619Y-65390476D01*
X185867857Y-65342857D01*
X185963095Y-65342857D01*
X186058333Y-65390476D01*
X186105952Y-65438095D01*
X186153571Y-65533333D01*
X186153571Y-65866666D01*
X186629761Y-64485714D02*
X186677380Y-64580952D01*
X186677380Y-64771428D01*
X186629761Y-64866666D01*
X186534523Y-64914285D01*
X186153571Y-64914285D01*
X186058333Y-64866666D01*
X186010714Y-64771428D01*
X186010714Y-64580952D01*
X186058333Y-64485714D01*
X186153571Y-64438095D01*
X186248809Y-64438095D01*
X186344047Y-64914285D01*
X186010714Y-64009523D02*
X186677380Y-64009523D01*
X186105952Y-64009523D02*
X186058333Y-63961904D01*
X186010714Y-63866666D01*
X186010714Y-63723809D01*
X186058333Y-63628571D01*
X186153571Y-63580952D01*
X186677380Y-63580952D01*
X185677380Y-62438095D02*
X186677380Y-61771428D01*
X185677380Y-61771428D02*
X186677380Y-62438095D01*
X186677380Y-61390476D02*
X186010714Y-61390476D01*
X185677380Y-61390476D02*
X185725000Y-61438095D01*
X185772619Y-61390476D01*
X185725000Y-61342857D01*
X185677380Y-61390476D01*
X185772619Y-61390476D01*
X186629761Y-60533333D02*
X186677380Y-60628571D01*
X186677380Y-60819047D01*
X186629761Y-60914285D01*
X186534523Y-60961904D01*
X186153571Y-60961904D01*
X186058333Y-60914285D01*
X186010714Y-60819047D01*
X186010714Y-60628571D01*
X186058333Y-60533333D01*
X186153571Y-60485714D01*
X186248809Y-60485714D01*
X186344047Y-60961904D01*
X189404761Y-91785714D02*
X189452380Y-91642857D01*
X189452380Y-91404761D01*
X189404761Y-91309523D01*
X189357142Y-91261904D01*
X189261904Y-91214285D01*
X189166666Y-91214285D01*
X189071428Y-91261904D01*
X189023809Y-91309523D01*
X188976190Y-91404761D01*
X188928571Y-91595238D01*
X188880952Y-91690476D01*
X188833333Y-91738095D01*
X188738095Y-91785714D01*
X188642857Y-91785714D01*
X188547619Y-91738095D01*
X188500000Y-91690476D01*
X188452380Y-91595238D01*
X188452380Y-91357142D01*
X188500000Y-91214285D01*
X189452380Y-90785714D02*
X188452380Y-90785714D01*
X188452380Y-90547619D01*
X188500000Y-90404761D01*
X188595238Y-90309523D01*
X188690476Y-90261904D01*
X188880952Y-90214285D01*
X189023809Y-90214285D01*
X189214285Y-90261904D01*
X189309523Y-90309523D01*
X189404761Y-90404761D01*
X189452380Y-90547619D01*
X189452380Y-90785714D01*
X188452380Y-86933333D02*
X189452380Y-86600000D01*
X188452380Y-86266666D01*
X189452380Y-85933333D02*
X188452380Y-85933333D01*
X188452380Y-85695238D01*
X188500000Y-85552380D01*
X188595238Y-85457142D01*
X188690476Y-85409523D01*
X188880952Y-85361904D01*
X189023809Y-85361904D01*
X189214285Y-85409523D01*
X189309523Y-85457142D01*
X189404761Y-85552380D01*
X189452380Y-85695238D01*
X189452380Y-85933333D01*
X189452380Y-84933333D02*
X188452380Y-84933333D01*
X188452380Y-84695238D01*
X188500000Y-84552380D01*
X188595238Y-84457142D01*
X188690476Y-84409523D01*
X188880952Y-84361904D01*
X189023809Y-84361904D01*
X189214285Y-84409523D01*
X189309523Y-84457142D01*
X189404761Y-84552380D01*
X189452380Y-84695238D01*
X189452380Y-84933333D01*
X174500000Y-95761904D02*
X174452380Y-95857142D01*
X174452380Y-96000000D01*
X174500000Y-96142857D01*
X174595238Y-96238095D01*
X174690476Y-96285714D01*
X174880952Y-96333333D01*
X175023809Y-96333333D01*
X175214285Y-96285714D01*
X175309523Y-96238095D01*
X175404761Y-96142857D01*
X175452380Y-96000000D01*
X175452380Y-95904761D01*
X175404761Y-95761904D01*
X175357142Y-95714285D01*
X175023809Y-95714285D01*
X175023809Y-95904761D01*
X175452380Y-95285714D02*
X174452380Y-95285714D01*
X175452380Y-94714285D01*
X174452380Y-94714285D01*
X175452380Y-94238095D02*
X174452380Y-94238095D01*
X174452380Y-94000000D01*
X174500000Y-93857142D01*
X174595238Y-93761904D01*
X174690476Y-93714285D01*
X174880952Y-93666666D01*
X175023809Y-93666666D01*
X175214285Y-93714285D01*
X175309523Y-93761904D01*
X175404761Y-93857142D01*
X175452380Y-94000000D01*
X175452380Y-94238095D01*
X126666666Y-92052380D02*
X127238095Y-92052380D01*
X126952380Y-93052380D02*
X126952380Y-92052380D01*
X127571428Y-93052380D02*
X127571428Y-92052380D01*
X127571428Y-92528571D02*
X128142857Y-92528571D01*
X128142857Y-93052380D02*
X128142857Y-92052380D01*
X128619047Y-92528571D02*
X128952380Y-92528571D01*
X129095238Y-93052380D02*
X128619047Y-93052380D01*
X128619047Y-92052380D01*
X129095238Y-92052380D01*
X130095238Y-93052380D02*
X129761904Y-92576190D01*
X129523809Y-93052380D02*
X129523809Y-92052380D01*
X129904761Y-92052380D01*
X130000000Y-92100000D01*
X130047619Y-92147619D01*
X130095238Y-92242857D01*
X130095238Y-92385714D01*
X130047619Y-92480952D01*
X130000000Y-92528571D01*
X129904761Y-92576190D01*
X129523809Y-92576190D01*
X130523809Y-93052380D02*
X130523809Y-92052380D01*
X130857142Y-92766666D01*
X131190476Y-92052380D01*
X131190476Y-93052380D01*
X141271428Y-88700000D02*
X141176190Y-88652380D01*
X141033333Y-88652380D01*
X140890476Y-88700000D01*
X140795238Y-88795238D01*
X140747619Y-88890476D01*
X140700000Y-89080952D01*
X140700000Y-89223809D01*
X140747619Y-89414285D01*
X140795238Y-89509523D01*
X140890476Y-89604761D01*
X141033333Y-89652380D01*
X141128571Y-89652380D01*
X141271428Y-89604761D01*
X141319047Y-89557142D01*
X141319047Y-89223809D01*
X141128571Y-89223809D01*
X141700000Y-89366666D02*
X142176190Y-89366666D01*
X141604761Y-89652380D02*
X141938095Y-88652380D01*
X142271428Y-89652380D01*
X142604761Y-89652380D02*
X142604761Y-88652380D01*
X143080952Y-89652380D02*
X143080952Y-88652380D01*
X143652380Y-89652380D01*
X143652380Y-88652380D01*
X149361904Y-92779761D02*
X149504761Y-92827380D01*
X149742857Y-92827380D01*
X149838095Y-92779761D01*
X149885714Y-92732142D01*
X149933333Y-92636904D01*
X149933333Y-92541666D01*
X149885714Y-92446428D01*
X149838095Y-92398809D01*
X149742857Y-92351190D01*
X149552380Y-92303571D01*
X149457142Y-92255952D01*
X149409523Y-92208333D01*
X149361904Y-92113095D01*
X149361904Y-92017857D01*
X149409523Y-91922619D01*
X149457142Y-91875000D01*
X149552380Y-91827380D01*
X149790476Y-91827380D01*
X149933333Y-91875000D01*
X150314285Y-92779761D02*
X150457142Y-92827380D01*
X150695238Y-92827380D01*
X150790476Y-92779761D01*
X150838095Y-92732142D01*
X150885714Y-92636904D01*
X150885714Y-92541666D01*
X150838095Y-92446428D01*
X150790476Y-92398809D01*
X150695238Y-92351190D01*
X150504761Y-92303571D01*
X150409523Y-92255952D01*
X150361904Y-92208333D01*
X150314285Y-92113095D01*
X150314285Y-92017857D01*
X150361904Y-91922619D01*
X150409523Y-91875000D01*
X150504761Y-91827380D01*
X150742857Y-91827380D01*
X150885714Y-91875000D01*
X151314285Y-92827380D02*
X151314285Y-91827380D01*
X151647619Y-92541666D01*
X151980952Y-91827380D01*
X151980952Y-92827380D01*
X152361904Y-91827380D02*
X152980952Y-91827380D01*
X152647619Y-92208333D01*
X152790476Y-92208333D01*
X152885714Y-92255952D01*
X152933333Y-92303571D01*
X152980952Y-92398809D01*
X152980952Y-92636904D01*
X152933333Y-92732142D01*
X152885714Y-92779761D01*
X152790476Y-92827380D01*
X152504761Y-92827380D01*
X152409523Y-92779761D01*
X152361904Y-92732142D01*
X153314285Y-91827380D02*
X153933333Y-91827380D01*
X153600000Y-92208333D01*
X153742857Y-92208333D01*
X153838095Y-92255952D01*
X153885714Y-92303571D01*
X153933333Y-92398809D01*
X153933333Y-92636904D01*
X153885714Y-92732142D01*
X153838095Y-92779761D01*
X153742857Y-92827380D01*
X153457142Y-92827380D01*
X153361904Y-92779761D01*
X153314285Y-92732142D01*
X154552380Y-91827380D02*
X154647619Y-91827380D01*
X154742857Y-91875000D01*
X154790476Y-91922619D01*
X154838095Y-92017857D01*
X154885714Y-92208333D01*
X154885714Y-92446428D01*
X154838095Y-92636904D01*
X154790476Y-92732142D01*
X154742857Y-92779761D01*
X154647619Y-92827380D01*
X154552380Y-92827380D01*
X154457142Y-92779761D01*
X154409523Y-92732142D01*
X154361904Y-92636904D01*
X154314285Y-92446428D01*
X154314285Y-92208333D01*
X154361904Y-92017857D01*
X154409523Y-91922619D01*
X154457142Y-91875000D01*
X154552380Y-91827380D01*
X155266666Y-91922619D02*
X155314285Y-91875000D01*
X155409523Y-91827380D01*
X155647619Y-91827380D01*
X155742857Y-91875000D01*
X155790476Y-91922619D01*
X155838095Y-92017857D01*
X155838095Y-92113095D01*
X155790476Y-92255952D01*
X155219047Y-92827380D01*
X155838095Y-92827380D01*
X150266666Y-93953571D02*
X150409523Y-94001190D01*
X150457142Y-94048809D01*
X150504761Y-94144047D01*
X150504761Y-94286904D01*
X150457142Y-94382142D01*
X150409523Y-94429761D01*
X150314285Y-94477380D01*
X149933333Y-94477380D01*
X149933333Y-93477380D01*
X150266666Y-93477380D01*
X150361904Y-93525000D01*
X150409523Y-93572619D01*
X150457142Y-93667857D01*
X150457142Y-93763095D01*
X150409523Y-93858333D01*
X150361904Y-93905952D01*
X150266666Y-93953571D01*
X149933333Y-93953571D01*
X151314285Y-94429761D02*
X151219047Y-94477380D01*
X151028571Y-94477380D01*
X150933333Y-94429761D01*
X150885714Y-94334523D01*
X150885714Y-93953571D01*
X150933333Y-93858333D01*
X151028571Y-93810714D01*
X151219047Y-93810714D01*
X151314285Y-93858333D01*
X151361904Y-93953571D01*
X151361904Y-94048809D01*
X150885714Y-94144047D01*
X151790476Y-93810714D02*
X151790476Y-94477380D01*
X151790476Y-93905952D02*
X151838095Y-93858333D01*
X151933333Y-93810714D01*
X152076190Y-93810714D01*
X152171428Y-93858333D01*
X152219047Y-93953571D01*
X152219047Y-94477380D01*
X153361904Y-93477380D02*
X154028571Y-94477380D01*
X154028571Y-93477380D02*
X153361904Y-94477380D01*
X154409523Y-94477380D02*
X154409523Y-93810714D01*
X154409523Y-93477380D02*
X154361904Y-93525000D01*
X154409523Y-93572619D01*
X154457142Y-93525000D01*
X154409523Y-93477380D01*
X154409523Y-93572619D01*
X155266666Y-94429761D02*
X155171428Y-94477380D01*
X154980952Y-94477380D01*
X154885714Y-94429761D01*
X154838095Y-94334523D01*
X154838095Y-93953571D01*
X154885714Y-93858333D01*
X154980952Y-93810714D01*
X155171428Y-93810714D01*
X155266666Y-93858333D01*
X155314285Y-93953571D01*
X155314285Y-94048809D01*
X154838095Y-94144047D01*
X143552380Y-83319047D02*
X143552380Y-83128571D01*
X143600000Y-83033333D01*
X143695238Y-82938095D01*
X143885714Y-82890476D01*
X144219047Y-82890476D01*
X144409523Y-82938095D01*
X144504761Y-83033333D01*
X144552380Y-83128571D01*
X144552380Y-83319047D01*
X144504761Y-83414285D01*
X144409523Y-83509523D01*
X144219047Y-83557142D01*
X143885714Y-83557142D01*
X143695238Y-83509523D01*
X143600000Y-83414285D01*
X143552380Y-83319047D01*
X143552380Y-82461904D02*
X144361904Y-82461904D01*
X144457142Y-82414285D01*
X144504761Y-82366666D01*
X144552380Y-82271428D01*
X144552380Y-82080952D01*
X144504761Y-81985714D01*
X144457142Y-81938095D01*
X144361904Y-81890476D01*
X143552380Y-81890476D01*
X143552380Y-81557142D02*
X143552380Y-80985714D01*
X144552380Y-81271428D02*
X143552380Y-81271428D01*
X144552380Y-80080952D02*
X144076190Y-80414285D01*
X144552380Y-80652380D02*
X143552380Y-80652380D01*
X143552380Y-80271428D01*
X143600000Y-80176190D01*
X143647619Y-80128571D01*
X143742857Y-80080952D01*
X143885714Y-80080952D01*
X143980952Y-80128571D01*
X144028571Y-80176190D01*
X144076190Y-80271428D01*
X144076190Y-80652380D01*
X144171428Y-79652380D02*
X144171428Y-78890476D01*
X143552380Y-77719047D02*
X143552380Y-77528571D01*
X143600000Y-77433333D01*
X143695238Y-77338095D01*
X143885714Y-77290476D01*
X144219047Y-77290476D01*
X144409523Y-77338095D01*
X144504761Y-77433333D01*
X144552380Y-77528571D01*
X144552380Y-77719047D01*
X144504761Y-77814285D01*
X144409523Y-77909523D01*
X144219047Y-77957142D01*
X143885714Y-77957142D01*
X143695238Y-77909523D01*
X143600000Y-77814285D01*
X143552380Y-77719047D01*
X143552380Y-76861904D02*
X144361904Y-76861904D01*
X144457142Y-76814285D01*
X144504761Y-76766666D01*
X144552380Y-76671428D01*
X144552380Y-76480952D01*
X144504761Y-76385714D01*
X144457142Y-76338095D01*
X144361904Y-76290476D01*
X143552380Y-76290476D01*
X143552380Y-75957142D02*
X143552380Y-75385714D01*
X144552380Y-75671428D02*
X143552380Y-75671428D01*
X144552380Y-74480952D02*
X144076190Y-74814285D01*
X144552380Y-75052380D02*
X143552380Y-75052380D01*
X143552380Y-74671428D01*
X143600000Y-74576190D01*
X143647619Y-74528571D01*
X143742857Y-74480952D01*
X143885714Y-74480952D01*
X143980952Y-74528571D01*
X144028571Y-74576190D01*
X144076190Y-74671428D01*
X144076190Y-75052380D01*
X144171428Y-74052380D02*
X144171428Y-73290476D01*
X144552380Y-73671428D02*
X143790476Y-73671428D01*
X113847619Y-79076190D02*
X113847619Y-79266666D01*
X113800000Y-79361904D01*
X113704761Y-79457142D01*
X113514285Y-79504761D01*
X113180952Y-79504761D01*
X112990476Y-79457142D01*
X112895238Y-79361904D01*
X112847619Y-79266666D01*
X112847619Y-79076190D01*
X112895238Y-78980952D01*
X112990476Y-78885714D01*
X113180952Y-78838095D01*
X113514285Y-78838095D01*
X113704761Y-78885714D01*
X113800000Y-78980952D01*
X113847619Y-79076190D01*
X113847619Y-79933333D02*
X113038095Y-79933333D01*
X112942857Y-79980952D01*
X112895238Y-80028571D01*
X112847619Y-80123809D01*
X112847619Y-80314285D01*
X112895238Y-80409523D01*
X112942857Y-80457142D01*
X113038095Y-80504761D01*
X113847619Y-80504761D01*
X113847619Y-80838095D02*
X113847619Y-81409523D01*
X112847619Y-81123809D02*
X113847619Y-81123809D01*
X112847619Y-82219047D02*
X112847619Y-81742857D01*
X113847619Y-81742857D01*
X113228571Y-82552380D02*
X113228571Y-83314285D01*
X113847619Y-73176190D02*
X113847619Y-73366666D01*
X113800000Y-73461904D01*
X113704761Y-73557142D01*
X113514285Y-73604761D01*
X113180952Y-73604761D01*
X112990476Y-73557142D01*
X112895238Y-73461904D01*
X112847619Y-73366666D01*
X112847619Y-73176190D01*
X112895238Y-73080952D01*
X112990476Y-72985714D01*
X113180952Y-72938095D01*
X113514285Y-72938095D01*
X113704761Y-72985714D01*
X113800000Y-73080952D01*
X113847619Y-73176190D01*
X113847619Y-74033333D02*
X113038095Y-74033333D01*
X112942857Y-74080952D01*
X112895238Y-74128571D01*
X112847619Y-74223809D01*
X112847619Y-74414285D01*
X112895238Y-74509523D01*
X112942857Y-74557142D01*
X113038095Y-74604761D01*
X113847619Y-74604761D01*
X113847619Y-74938095D02*
X113847619Y-75509523D01*
X112847619Y-75223809D02*
X113847619Y-75223809D01*
X112847619Y-76319047D02*
X112847619Y-75842857D01*
X113847619Y-75842857D01*
X113228571Y-76652380D02*
X113228571Y-77414285D01*
X112847619Y-77033333D02*
X113609523Y-77033333D01*
D11*
X162800000Y-63360000D02*
X162800000Y-103360000D01*
X194300000Y-58360000D02*
X167800000Y-58360000D01*
X195300000Y-106360000D02*
X195300000Y-59360000D01*
X193300000Y-108360000D02*
X167800000Y-108360000D01*
X97800000Y-58360000D02*
X160300000Y-58360000D01*
X95300000Y-105860000D02*
X95300000Y-60860000D01*
X160300000Y-108360000D02*
X97800000Y-108360000D01*
X162800000Y-105860000D02*
X162800000Y-103360000D01*
X162800000Y-60860000D02*
X162800000Y-63360000D01*
D12*
X160300000Y-58360000D02*
X160300000Y-108360000D01*
D11*
X95300000Y-60860000D02*
G75*
G02X97800000Y-58360000I2500000J0D01*
G01*
X162800000Y-63360000D02*
G75*
G02X167800000Y-58360000I5000000J0D01*
G01*
X167800000Y-108360000D02*
G75*
G02X162800000Y-103360000I0J5000000D01*
G01*
X195300000Y-106360000D02*
G75*
G02X193300000Y-108360000I-2000000J0D01*
G01*
X194300000Y-58360000D02*
G75*
G02X195300000Y-59360000I0J-1000000D01*
G01*
D10*
X113139523Y-96512380D02*
X112663333Y-96512380D01*
X112615714Y-96988571D01*
X112663333Y-96940952D01*
X112758571Y-96893333D01*
X112996666Y-96893333D01*
X113091904Y-96940952D01*
X113139523Y-96988571D01*
X113187142Y-97083809D01*
X113187142Y-97321904D01*
X113139523Y-97417142D01*
X113091904Y-97464761D01*
X112996666Y-97512380D01*
X112758571Y-97512380D01*
X112663333Y-97464761D01*
X112615714Y-97417142D01*
X113472857Y-96512380D02*
X113806190Y-97512380D01*
X114139523Y-96512380D01*
X112796190Y-100712380D02*
X112986666Y-100712380D01*
X113081904Y-100760000D01*
X113177142Y-100855238D01*
X113224761Y-101045714D01*
X113224761Y-101379047D01*
X113177142Y-101569523D01*
X113081904Y-101664761D01*
X112986666Y-101712380D01*
X112796190Y-101712380D01*
X112700952Y-101664761D01*
X112605714Y-101569523D01*
X112558095Y-101379047D01*
X112558095Y-101045714D01*
X112605714Y-100855238D01*
X112700952Y-100760000D01*
X112796190Y-100712380D01*
X113653333Y-101712380D02*
X113653333Y-100712380D01*
X114224761Y-101712380D01*
X114224761Y-100712380D01*
X115415238Y-100664761D02*
X114558095Y-101950476D01*
X115939047Y-100712380D02*
X116129523Y-100712380D01*
X116224761Y-100760000D01*
X116320000Y-100855238D01*
X116367619Y-101045714D01*
X116367619Y-101379047D01*
X116320000Y-101569523D01*
X116224761Y-101664761D01*
X116129523Y-101712380D01*
X115939047Y-101712380D01*
X115843809Y-101664761D01*
X115748571Y-101569523D01*
X115700952Y-101379047D01*
X115700952Y-101045714D01*
X115748571Y-100855238D01*
X115843809Y-100760000D01*
X115939047Y-100712380D01*
X117129523Y-101188571D02*
X116796190Y-101188571D01*
X116796190Y-101712380D02*
X116796190Y-100712380D01*
X117272380Y-100712380D01*
X117986666Y-101188571D02*
X117653333Y-101188571D01*
X117653333Y-101712380D02*
X117653333Y-100712380D01*
X118129523Y-100712380D01*
X98999523Y-85372380D02*
X98523333Y-85372380D01*
X98523333Y-84372380D01*
X159649523Y-85302380D02*
X159316190Y-84826190D01*
X159078095Y-85302380D02*
X159078095Y-84302380D01*
X159459047Y-84302380D01*
X159554285Y-84350000D01*
X159601904Y-84397619D01*
X159649523Y-84492857D01*
X159649523Y-84635714D01*
X159601904Y-84730952D01*
X159554285Y-84778571D01*
X159459047Y-84826190D01*
X159078095Y-84826190D01*
X144752380Y-63419047D02*
X144752380Y-63990476D01*
X144752380Y-63704761D02*
X143752380Y-63704761D01*
X143895238Y-63800000D01*
X143990476Y-63895238D01*
X144038095Y-63990476D01*
X143847619Y-63038095D02*
X143800000Y-62990476D01*
X143752380Y-62895238D01*
X143752380Y-62657142D01*
X143800000Y-62561904D01*
X143847619Y-62514285D01*
X143942857Y-62466666D01*
X144038095Y-62466666D01*
X144180952Y-62514285D01*
X144752380Y-63085714D01*
X144752380Y-62466666D01*
X143752380Y-62180952D02*
X144752380Y-61847619D01*
X143752380Y-61514285D01*
D11*
X162800000Y-105860000D02*
G75*
G02X160300000Y-108360000I-2500000J0D01*
G01*
X97800000Y-108360000D02*
G75*
G02X95300000Y-105860000I0J2500000D01*
G01*
X160300000Y-58360000D02*
G75*
G02X162800000Y-60860000I0J-2500000D01*
G01*
D12*
X97800000Y-58360000D02*
X97800000Y-108360000D01*
D13*
G36*
X188749625Y-61245818D02*
G01*
X188824721Y-61170826D01*
X188899818Y-61095833D01*
X188899818Y-60873950D01*
X188824721Y-60798957D01*
X188749625Y-60723964D01*
X187846872Y-60723964D01*
X187846872Y-60199012D01*
X188235563Y-60195943D01*
X188299840Y-60195452D01*
X188365221Y-60194986D01*
X188430573Y-60194551D01*
X188494762Y-60194152D01*
X188556655Y-60193795D01*
X188615119Y-60193488D01*
X188669021Y-60193236D01*
X188717227Y-60193046D01*
X188758605Y-60192923D01*
X188792020Y-60192874D01*
X188795558Y-60192873D01*
X188966862Y-60192873D01*
X189066073Y-60292165D01*
X189165285Y-60391457D01*
X189264653Y-60292165D01*
X189364022Y-60192873D01*
X189532547Y-60192876D01*
X189564316Y-60192916D01*
X189604203Y-60193029D01*
X189651092Y-60193210D01*
X189703865Y-60193453D01*
X189761405Y-60193751D01*
X189822596Y-60194099D01*
X189886319Y-60194490D01*
X189951459Y-60194918D01*
X190016896Y-60195377D01*
X190081515Y-60195861D01*
X190092463Y-60195946D01*
X190483854Y-60199013D01*
X190483854Y-60723964D01*
X189585513Y-60723964D01*
X189510520Y-60799060D01*
X189435527Y-60874157D01*
X189435527Y-61095626D01*
X189585513Y-61245818D01*
X190483854Y-61245818D01*
X190483854Y-61776909D01*
X189360602Y-61776909D01*
X189165010Y-61583217D01*
X188971482Y-61776909D01*
X188516550Y-61776899D01*
X188449753Y-61776865D01*
X188383656Y-61776772D01*
X188319095Y-61776622D01*
X188256903Y-61776421D01*
X188197916Y-61776173D01*
X188142968Y-61775882D01*
X188092894Y-61775554D01*
X188048530Y-61775192D01*
X188010709Y-61774802D01*
X187980267Y-61774387D01*
X187958038Y-61773952D01*
X187954245Y-61773852D01*
X187846872Y-61770816D01*
X187846872Y-61245818D01*
X188749625Y-61245818D01*
X188749625Y-61245818D01*
G37*
X188749625Y-61245818D02*
X188824721Y-61170826D01*
X188899818Y-61095833D01*
X188899818Y-60873950D01*
X188824721Y-60798957D01*
X188749625Y-60723964D01*
X187846872Y-60723964D01*
X187846872Y-60199012D01*
X188235563Y-60195943D01*
X188299840Y-60195452D01*
X188365221Y-60194986D01*
X188430573Y-60194551D01*
X188494762Y-60194152D01*
X188556655Y-60193795D01*
X188615119Y-60193488D01*
X188669021Y-60193236D01*
X188717227Y-60193046D01*
X188758605Y-60192923D01*
X188792020Y-60192874D01*
X188795558Y-60192873D01*
X188966862Y-60192873D01*
X189066073Y-60292165D01*
X189165285Y-60391457D01*
X189264653Y-60292165D01*
X189364022Y-60192873D01*
X189532547Y-60192876D01*
X189564316Y-60192916D01*
X189604203Y-60193029D01*
X189651092Y-60193210D01*
X189703865Y-60193453D01*
X189761405Y-60193751D01*
X189822596Y-60194099D01*
X189886319Y-60194490D01*
X189951459Y-60194918D01*
X190016896Y-60195377D01*
X190081515Y-60195861D01*
X190092463Y-60195946D01*
X190483854Y-60199013D01*
X190483854Y-60723964D01*
X189585513Y-60723964D01*
X189510520Y-60799060D01*
X189435527Y-60874157D01*
X189435527Y-61095626D01*
X189585513Y-61245818D01*
X190483854Y-61245818D01*
X190483854Y-61776909D01*
X189360602Y-61776909D01*
X189165010Y-61583217D01*
X188971482Y-61776909D01*
X188516550Y-61776899D01*
X188449753Y-61776865D01*
X188383656Y-61776772D01*
X188319095Y-61776622D01*
X188256903Y-61776421D01*
X188197916Y-61776173D01*
X188142968Y-61775882D01*
X188092894Y-61775554D01*
X188048530Y-61775192D01*
X188010709Y-61774802D01*
X187980267Y-61774387D01*
X187958038Y-61773952D01*
X187954245Y-61773852D01*
X187846872Y-61770816D01*
X187846872Y-61245818D01*
X188749625Y-61245818D01*
G36*
X188083571Y-62032047D02*
G01*
X188315652Y-61800000D01*
X188971480Y-61800000D01*
X189070599Y-61899199D01*
X189169717Y-61998398D01*
X189269576Y-61899199D01*
X189369434Y-61800000D01*
X190028998Y-61800000D01*
X190261044Y-62032081D01*
X190493091Y-62264162D01*
X190491980Y-62592035D01*
X190491760Y-62654622D01*
X190491514Y-62720911D01*
X190491249Y-62789281D01*
X190490971Y-62858114D01*
X190490686Y-62925789D01*
X190490403Y-62990687D01*
X190490127Y-63051187D01*
X190489865Y-63105670D01*
X190489628Y-63151973D01*
X190488387Y-63384037D01*
X189440145Y-63384037D01*
X189440145Y-62852946D01*
X189962000Y-62852946D01*
X189962000Y-62485899D01*
X189807392Y-62331091D01*
X189588695Y-62331091D01*
X189440145Y-62485547D01*
X189440145Y-62852946D01*
X189440145Y-63384037D01*
X188382582Y-63384037D01*
X188382582Y-62852946D01*
X188904436Y-62852946D01*
X188904436Y-62485899D01*
X188827132Y-62408495D01*
X188749829Y-62331091D01*
X188537390Y-62331091D01*
X188459986Y-62408395D01*
X188382582Y-62485698D01*
X188382582Y-62852946D01*
X188382582Y-63384037D01*
X187851491Y-63384037D01*
X187851491Y-62264093D01*
X188083571Y-62032047D01*
X188083571Y-62032047D01*
G37*
X188083571Y-62032047D02*
X188315652Y-61800000D01*
X188971480Y-61800000D01*
X189070599Y-61899199D01*
X189169717Y-61998398D01*
X189269576Y-61899199D01*
X189369434Y-61800000D01*
X190028998Y-61800000D01*
X190261044Y-62032081D01*
X190493091Y-62264162D01*
X190491980Y-62592035D01*
X190491760Y-62654622D01*
X190491514Y-62720911D01*
X190491249Y-62789281D01*
X190490971Y-62858114D01*
X190490686Y-62925789D01*
X190490403Y-62990687D01*
X190490127Y-63051187D01*
X190489865Y-63105670D01*
X190489628Y-63151973D01*
X190488387Y-63384037D01*
X189440145Y-63384037D01*
X189440145Y-62852946D01*
X189962000Y-62852946D01*
X189962000Y-62485899D01*
X189807392Y-62331091D01*
X189588695Y-62331091D01*
X189440145Y-62485547D01*
X189440145Y-62852946D01*
X189440145Y-63384037D01*
X188382582Y-63384037D01*
X188382582Y-62852946D01*
X188904436Y-62852946D01*
X188904436Y-62485899D01*
X188827132Y-62408495D01*
X188749829Y-62331091D01*
X188537390Y-62331091D01*
X188459986Y-62408395D01*
X188382582Y-62485698D01*
X188382582Y-62852946D01*
X188382582Y-63384037D01*
X187851491Y-63384037D01*
X187851491Y-62264093D01*
X188083571Y-62032047D01*
G36*
X153435068Y-87521353D02*
G01*
X153661074Y-87747671D01*
X153995418Y-87747671D01*
X154221424Y-87521353D01*
X154221424Y-86161041D01*
X155012447Y-86161041D01*
X155017073Y-86746739D01*
X155017812Y-86843595D01*
X155018514Y-86942114D01*
X155019170Y-87040589D01*
X155019772Y-87137312D01*
X155020309Y-87230576D01*
X155020772Y-87318673D01*
X155021151Y-87399895D01*
X155021438Y-87472534D01*
X155021624Y-87534884D01*
X155021697Y-87585236D01*
X155021698Y-87590567D01*
X155021698Y-87848696D01*
X154872081Y-87998193D01*
X154722463Y-88147689D01*
X154872081Y-88297423D01*
X155021698Y-88447157D01*
X155021694Y-88701099D01*
X155021634Y-88748969D01*
X155021464Y-88809073D01*
X155021191Y-88879727D01*
X155020825Y-88959249D01*
X155020375Y-89045954D01*
X155019852Y-89138159D01*
X155019263Y-89234180D01*
X155018618Y-89332335D01*
X155017926Y-89430940D01*
X155017197Y-89528311D01*
X155017068Y-89544808D01*
X155012447Y-90134575D01*
X154221424Y-90134575D01*
X154221424Y-88780910D01*
X153995106Y-88554904D01*
X153661386Y-88554904D01*
X153435068Y-88780910D01*
X153435068Y-90134575D01*
X152634794Y-90134575D01*
X152634794Y-88442003D01*
X152780727Y-88294639D01*
X152926659Y-88147275D01*
X152780727Y-88001467D01*
X152634794Y-87855658D01*
X152634810Y-87170144D01*
X152634860Y-87069491D01*
X152635002Y-86969893D01*
X152635227Y-86872608D01*
X152635531Y-86778895D01*
X152635904Y-86690010D01*
X152636342Y-86607212D01*
X152636837Y-86531759D01*
X152637382Y-86464908D01*
X152637970Y-86407918D01*
X152638595Y-86362046D01*
X152639250Y-86328550D01*
X152639401Y-86322835D01*
X152643976Y-86161041D01*
X153435068Y-86161041D01*
X153435068Y-87521353D01*
X153435068Y-87521353D01*
G37*
X153435068Y-87521353D02*
X153661074Y-87747671D01*
X153995418Y-87747671D01*
X154221424Y-87521353D01*
X154221424Y-86161041D01*
X155012447Y-86161041D01*
X155017073Y-86746739D01*
X155017812Y-86843595D01*
X155018514Y-86942114D01*
X155019170Y-87040589D01*
X155019772Y-87137312D01*
X155020309Y-87230576D01*
X155020772Y-87318673D01*
X155021151Y-87399895D01*
X155021438Y-87472534D01*
X155021624Y-87534884D01*
X155021697Y-87585236D01*
X155021698Y-87590567D01*
X155021698Y-87848696D01*
X154872081Y-87998193D01*
X154722463Y-88147689D01*
X154872081Y-88297423D01*
X155021698Y-88447157D01*
X155021694Y-88701099D01*
X155021634Y-88748969D01*
X155021464Y-88809073D01*
X155021191Y-88879727D01*
X155020825Y-88959249D01*
X155020375Y-89045954D01*
X155019852Y-89138159D01*
X155019263Y-89234180D01*
X155018618Y-89332335D01*
X155017926Y-89430940D01*
X155017197Y-89528311D01*
X155017068Y-89544808D01*
X155012447Y-90134575D01*
X154221424Y-90134575D01*
X154221424Y-88780910D01*
X153995106Y-88554904D01*
X153661386Y-88554904D01*
X153435068Y-88780910D01*
X153435068Y-90134575D01*
X152634794Y-90134575D01*
X152634794Y-88442003D01*
X152780727Y-88294639D01*
X152926659Y-88147275D01*
X152780727Y-88001467D01*
X152634794Y-87855658D01*
X152634810Y-87170144D01*
X152634860Y-87069491D01*
X152635002Y-86969893D01*
X152635227Y-86872608D01*
X152635531Y-86778895D01*
X152635904Y-86690010D01*
X152636342Y-86607212D01*
X152636837Y-86531759D01*
X152637382Y-86464908D01*
X152637970Y-86407918D01*
X152638595Y-86362046D01*
X152639250Y-86328550D01*
X152639401Y-86322835D01*
X152643976Y-86161041D01*
X153435068Y-86161041D01*
X153435068Y-87521353D01*
G36*
X152250341Y-86517710D02*
G01*
X152600000Y-86867421D01*
X152600000Y-87855655D01*
X152301044Y-88154369D01*
X152450522Y-88304840D01*
X152600000Y-88455312D01*
X152600000Y-89449175D01*
X152250289Y-89798834D01*
X151900579Y-90148493D01*
X151406522Y-90146819D01*
X151312214Y-90146488D01*
X151212327Y-90146118D01*
X151109303Y-90145718D01*
X151005582Y-90145298D01*
X150903606Y-90144870D01*
X150805815Y-90144443D01*
X150714650Y-90144027D01*
X150632552Y-90143633D01*
X150562781Y-90143275D01*
X150213096Y-90141405D01*
X150213096Y-88561863D01*
X151013370Y-88561863D01*
X151013370Y-89348219D01*
X151566453Y-89348219D01*
X151683089Y-89231734D01*
X151799726Y-89115249D01*
X151799726Y-88785705D01*
X151683355Y-88673784D01*
X151566983Y-88561863D01*
X151013370Y-88561863D01*
X150213096Y-88561863D01*
X150213096Y-86968274D01*
X151013370Y-86968274D01*
X151013370Y-87754630D01*
X151566453Y-87754630D01*
X151683089Y-87638145D01*
X151799726Y-87521660D01*
X151799726Y-87201546D01*
X151566756Y-86968274D01*
X151013370Y-86968274D01*
X150213096Y-86968274D01*
X150213096Y-86168000D01*
X151900682Y-86168000D01*
X152250341Y-86517710D01*
X152250341Y-86517710D01*
G37*
X152250341Y-86517710D02*
X152600000Y-86867421D01*
X152600000Y-87855655D01*
X152301044Y-88154369D01*
X152450522Y-88304840D01*
X152600000Y-88455312D01*
X152600000Y-89449175D01*
X152250289Y-89798834D01*
X151900579Y-90148493D01*
X151406522Y-90146819D01*
X151312214Y-90146488D01*
X151212327Y-90146118D01*
X151109303Y-90145718D01*
X151005582Y-90145298D01*
X150903606Y-90144870D01*
X150805815Y-90144443D01*
X150714650Y-90144027D01*
X150632552Y-90143633D01*
X150562781Y-90143275D01*
X150213096Y-90141405D01*
X150213096Y-88561863D01*
X151013370Y-88561863D01*
X151013370Y-89348219D01*
X151566453Y-89348219D01*
X151683089Y-89231734D01*
X151799726Y-89115249D01*
X151799726Y-88785705D01*
X151683355Y-88673784D01*
X151566983Y-88561863D01*
X151013370Y-88561863D01*
X150213096Y-88561863D01*
X150213096Y-86968274D01*
X151013370Y-86968274D01*
X151013370Y-87754630D01*
X151566453Y-87754630D01*
X151683089Y-87638145D01*
X151799726Y-87521660D01*
X151799726Y-87201546D01*
X151566756Y-86968274D01*
X151013370Y-86968274D01*
X150213096Y-86968274D01*
X150213096Y-86168000D01*
X151900682Y-86168000D01*
X152250341Y-86517710D01*
D12*
X191290000Y-95638748D02*
X191290000Y-96161252D01*
X192710000Y-95638748D02*
X192710000Y-96161252D01*
X192960000Y-103085000D02*
X192960000Y-100225000D01*
X191040000Y-103085000D02*
X192960000Y-103085000D01*
X191040000Y-100225000D02*
X191040000Y-103085000D01*
X107670000Y-95530000D02*
X107670000Y-94200000D01*
X109000000Y-95530000D02*
X107670000Y-95530000D01*
X110270000Y-95530000D02*
X110270000Y-92870000D01*
X110270000Y-92870000D02*
X112870000Y-92870000D01*
X110270000Y-95530000D02*
X112870000Y-95530000D01*
X112870000Y-95530000D02*
X112870000Y-92870000D01*
D14*
X194960000Y-65800000D02*
X193810000Y-65800000D01*
X194960000Y-74600000D02*
X194960000Y-65800000D01*
X193810000Y-74600000D02*
X194960000Y-74600000D01*
X189810000Y-74600000D02*
X191810000Y-74600000D01*
X189810000Y-65800000D02*
X191810000Y-65775000D01*
D15*
X137000000Y-105860000D02*
X137000000Y-97560000D01*
X122000000Y-97560000D02*
X122000000Y-105860000D01*
X137000000Y-97560000D02*
X122000000Y-97560000D01*
X137600000Y-97560000D02*
X137000000Y-97560000D01*
X137600000Y-105860000D02*
X137600000Y-97560000D01*
X137000000Y-105860000D02*
X137600000Y-105860000D01*
X122000000Y-105860000D02*
X137000000Y-105860000D01*
D12*
X171170000Y-93670000D02*
X172500000Y-93670000D01*
X171170000Y-95000000D02*
X171170000Y-93670000D01*
X171170000Y-96270000D02*
X173830000Y-96270000D01*
X173830000Y-96270000D02*
X173830000Y-96330000D01*
X171170000Y-96270000D02*
X171170000Y-96330000D01*
X171170000Y-96330000D02*
X173830000Y-96330000D01*
X190470000Y-84330000D02*
X191800000Y-84330000D01*
X190470000Y-85660000D02*
X190470000Y-84330000D01*
X190470000Y-86930000D02*
X193130000Y-86930000D01*
X193130000Y-86930000D02*
X193130000Y-86990000D01*
X190470000Y-86930000D02*
X190470000Y-86990000D01*
X190470000Y-86990000D02*
X193130000Y-86990000D01*
D16*
X180290501Y-84417400D02*
X180290501Y-84671400D01*
X179909500Y-84417400D02*
X180290501Y-84417400D01*
X179909500Y-84671400D02*
X179909500Y-84417400D01*
X180290501Y-84671400D02*
X179909500Y-84671400D01*
X181975600Y-81175659D02*
X181975600Y-80734400D01*
X181534341Y-83985600D02*
X181975600Y-83985600D01*
X178724400Y-83544341D02*
X178724400Y-83985600D01*
X179165659Y-80734400D02*
X178724400Y-80734400D01*
X181975600Y-80734400D02*
X181534341Y-80734400D01*
X181975600Y-83985600D02*
X181975600Y-83544341D01*
X178724400Y-83985600D02*
X179165659Y-83985600D01*
X178724400Y-80734400D02*
X178724400Y-81175659D01*
D17*
X178500000Y-95200000D02*
X178500000Y-102600000D01*
X187200000Y-95200000D02*
X178500000Y-95200000D01*
X187200000Y-107300000D02*
X187200000Y-95200000D01*
X181000000Y-107300000D02*
X187200000Y-107300000D01*
X181850000Y-71600000D02*
X181850000Y-64200000D01*
X173150000Y-71600000D02*
X181850000Y-71600000D01*
X173150000Y-59500000D02*
X173150000Y-71600000D01*
X179350000Y-59500000D02*
X173150000Y-59500000D01*
D12*
X190490000Y-89610000D02*
X191820000Y-89610000D01*
X190490000Y-90940000D02*
X190490000Y-89610000D01*
X190490000Y-92210000D02*
X193150000Y-92210000D01*
X193150000Y-92210000D02*
X193150000Y-92270000D01*
X190490000Y-92210000D02*
X190490000Y-92270000D01*
X190490000Y-92270000D02*
X193150000Y-92270000D01*
D15*
X163800000Y-91330000D02*
X172100000Y-91330000D01*
X172100000Y-76330000D02*
X163800000Y-76330000D01*
X172100000Y-91330000D02*
X172100000Y-76330000D01*
X172100000Y-91930000D02*
X172100000Y-91330000D01*
X163800000Y-91930000D02*
X172100000Y-91930000D01*
X163800000Y-91330000D02*
X163800000Y-91930000D01*
X163800000Y-76330000D02*
X163800000Y-91330000D01*
D12*
X190381252Y-76960000D02*
X189858748Y-76960000D01*
X190381252Y-78380000D02*
X189858748Y-78380000D01*
X184820000Y-82023748D02*
X184820000Y-82546252D01*
X186240000Y-82023748D02*
X186240000Y-82546252D01*
X177800000Y-90208748D02*
X177800000Y-90731252D01*
X179220000Y-90208748D02*
X179220000Y-90731252D01*
X176000000Y-85931252D02*
X176000000Y-85408748D01*
X174580000Y-85931252D02*
X174580000Y-85408748D01*
X174580000Y-79678748D02*
X174580000Y-80201252D01*
X176000000Y-79678748D02*
X176000000Y-80201252D01*
X179230000Y-75901252D02*
X179230000Y-75378748D01*
X177810000Y-75901252D02*
X177810000Y-75378748D01*
D17*
X147204000Y-69976000D02*
X154604000Y-69976000D01*
X147204000Y-61276000D02*
X147204000Y-69976000D01*
X159304000Y-61276000D02*
X147204000Y-61276000D01*
X159304000Y-67476000D02*
X159304000Y-61276000D01*
D12*
X140185000Y-61658302D02*
X139385000Y-61658302D01*
X139785000Y-61258302D02*
X139785000Y-62058302D01*
X138003000Y-69749000D02*
X136937000Y-69749000D01*
X138238000Y-69709000D02*
X136702000Y-69709000D01*
X138418000Y-69669000D02*
X136522000Y-69669000D01*
X138568000Y-69629000D02*
X136372000Y-69629000D01*
X138699000Y-69589000D02*
X136241000Y-69589000D01*
X138816000Y-69549000D02*
X136124000Y-69549000D01*
X138923000Y-69509000D02*
X136017000Y-69509000D01*
X139022000Y-69469000D02*
X135918000Y-69469000D01*
X139115000Y-69429000D02*
X135825000Y-69429000D01*
X139201000Y-69389000D02*
X135739000Y-69389000D01*
X139283000Y-69349000D02*
X135657000Y-69349000D01*
X139360000Y-69309000D02*
X135580000Y-69309000D01*
X139434000Y-69269000D02*
X135506000Y-69269000D01*
X139504000Y-69229000D02*
X135436000Y-69229000D01*
X139572000Y-69189000D02*
X135368000Y-69189000D01*
X139636000Y-69149000D02*
X135304000Y-69149000D01*
X139698000Y-69109000D02*
X135242000Y-69109000D01*
X139757000Y-69069000D02*
X135183000Y-69069000D01*
X139815000Y-69029000D02*
X135125000Y-69029000D01*
X139870000Y-68989000D02*
X135070000Y-68989000D01*
X139924000Y-68949000D02*
X135016000Y-68949000D01*
X139975000Y-68909000D02*
X134965000Y-68909000D01*
X140026000Y-68869000D02*
X134914000Y-68869000D01*
X140074000Y-68829000D02*
X134866000Y-68829000D01*
X140121000Y-68789000D02*
X134819000Y-68789000D01*
X140167000Y-68749000D02*
X134773000Y-68749000D01*
X140211000Y-68709000D02*
X134729000Y-68709000D01*
X140254000Y-68669000D02*
X134686000Y-68669000D01*
X140296000Y-68629000D02*
X134644000Y-68629000D01*
X140337000Y-68589000D02*
X134603000Y-68589000D01*
X140377000Y-68549000D02*
X134563000Y-68549000D01*
X140415000Y-68509000D02*
X134525000Y-68509000D01*
X140453000Y-68469000D02*
X134487000Y-68469000D01*
X136430000Y-68429000D02*
X134451000Y-68429000D01*
X140489000Y-68429000D02*
X138510000Y-68429000D01*
X136430000Y-68389000D02*
X134415000Y-68389000D01*
X140525000Y-68389000D02*
X138510000Y-68389000D01*
X136430000Y-68349000D02*
X134380000Y-68349000D01*
X140560000Y-68349000D02*
X138510000Y-68349000D01*
X136430000Y-68309000D02*
X134346000Y-68309000D01*
X140594000Y-68309000D02*
X138510000Y-68309000D01*
X136430000Y-68269000D02*
X134314000Y-68269000D01*
X140626000Y-68269000D02*
X138510000Y-68269000D01*
X136430000Y-68229000D02*
X134281000Y-68229000D01*
X140659000Y-68229000D02*
X138510000Y-68229000D01*
X136430000Y-68189000D02*
X134250000Y-68189000D01*
X140690000Y-68189000D02*
X138510000Y-68189000D01*
X136430000Y-68149000D02*
X134220000Y-68149000D01*
X140720000Y-68149000D02*
X138510000Y-68149000D01*
X136430000Y-68109000D02*
X134190000Y-68109000D01*
X140750000Y-68109000D02*
X138510000Y-68109000D01*
X136430000Y-68069000D02*
X134161000Y-68069000D01*
X140779000Y-68069000D02*
X138510000Y-68069000D01*
X136430000Y-68029000D02*
X134132000Y-68029000D01*
X140808000Y-68029000D02*
X138510000Y-68029000D01*
X136430000Y-67989000D02*
X134105000Y-67989000D01*
X140835000Y-67989000D02*
X138510000Y-67989000D01*
X136430000Y-67949000D02*
X134078000Y-67949000D01*
X140862000Y-67949000D02*
X138510000Y-67949000D01*
X136430000Y-67909000D02*
X134052000Y-67909000D01*
X140888000Y-67909000D02*
X138510000Y-67909000D01*
X136430000Y-67869000D02*
X134026000Y-67869000D01*
X140914000Y-67869000D02*
X138510000Y-67869000D01*
X136430000Y-67829000D02*
X134001000Y-67829000D01*
X140939000Y-67829000D02*
X138510000Y-67829000D01*
X136430000Y-67789000D02*
X133977000Y-67789000D01*
X140963000Y-67789000D02*
X138510000Y-67789000D01*
X136430000Y-67749000D02*
X133953000Y-67749000D01*
X140987000Y-67749000D02*
X138510000Y-67749000D01*
X136430000Y-67709000D02*
X133930000Y-67709000D01*
X141010000Y-67709000D02*
X138510000Y-67709000D01*
X136430000Y-67669000D02*
X133908000Y-67669000D01*
X141032000Y-67669000D02*
X138510000Y-67669000D01*
X136430000Y-67629000D02*
X133886000Y-67629000D01*
X141054000Y-67629000D02*
X138510000Y-67629000D01*
X136430000Y-67589000D02*
X133864000Y-67589000D01*
X141076000Y-67589000D02*
X138510000Y-67589000D01*
X136430000Y-67549000D02*
X133843000Y-67549000D01*
X141097000Y-67549000D02*
X138510000Y-67549000D01*
X136430000Y-67509000D02*
X133823000Y-67509000D01*
X141117000Y-67509000D02*
X138510000Y-67509000D01*
X136430000Y-67469000D02*
X133804000Y-67469000D01*
X141136000Y-67469000D02*
X138510000Y-67469000D01*
X136430000Y-67429000D02*
X133784000Y-67429000D01*
X141156000Y-67429000D02*
X138510000Y-67429000D01*
X136430000Y-67389000D02*
X133766000Y-67389000D01*
X141174000Y-67389000D02*
X138510000Y-67389000D01*
X136430000Y-67349000D02*
X133748000Y-67349000D01*
X141192000Y-67349000D02*
X138510000Y-67349000D01*
X136430000Y-67309000D02*
X133730000Y-67309000D01*
X141210000Y-67309000D02*
X138510000Y-67309000D01*
X136430000Y-67269000D02*
X133713000Y-67269000D01*
X141227000Y-67269000D02*
X138510000Y-67269000D01*
X136430000Y-67229000D02*
X133696000Y-67229000D01*
X141244000Y-67229000D02*
X138510000Y-67229000D01*
X136430000Y-67189000D02*
X133680000Y-67189000D01*
X141260000Y-67189000D02*
X138510000Y-67189000D01*
X136430000Y-67149000D02*
X133665000Y-67149000D01*
X141275000Y-67149000D02*
X138510000Y-67149000D01*
X136430000Y-67109000D02*
X133649000Y-67109000D01*
X141291000Y-67109000D02*
X138510000Y-67109000D01*
X136430000Y-67069000D02*
X133635000Y-67069000D01*
X141305000Y-67069000D02*
X138510000Y-67069000D01*
X136430000Y-67029000D02*
X133620000Y-67029000D01*
X141320000Y-67029000D02*
X138510000Y-67029000D01*
X136430000Y-66989000D02*
X133607000Y-66989000D01*
X141333000Y-66989000D02*
X138510000Y-66989000D01*
X136430000Y-66949000D02*
X133593000Y-66949000D01*
X141347000Y-66949000D02*
X138510000Y-66949000D01*
X136430000Y-66909000D02*
X133581000Y-66909000D01*
X141359000Y-66909000D02*
X138510000Y-66909000D01*
X136430000Y-66869000D02*
X133568000Y-66869000D01*
X141372000Y-66869000D02*
X138510000Y-66869000D01*
X136430000Y-66829000D02*
X133556000Y-66829000D01*
X141384000Y-66829000D02*
X138510000Y-66829000D01*
X136430000Y-66789000D02*
X133545000Y-66789000D01*
X141395000Y-66789000D02*
X138510000Y-66789000D01*
X136430000Y-66749000D02*
X133534000Y-66749000D01*
X141406000Y-66749000D02*
X138510000Y-66749000D01*
X136430000Y-66709000D02*
X133523000Y-66709000D01*
X141417000Y-66709000D02*
X138510000Y-66709000D01*
X136430000Y-66669000D02*
X133513000Y-66669000D01*
X141427000Y-66669000D02*
X138510000Y-66669000D01*
X136430000Y-66629000D02*
X133503000Y-66629000D01*
X141437000Y-66629000D02*
X138510000Y-66629000D01*
X136430000Y-66589000D02*
X133494000Y-66589000D01*
X141446000Y-66589000D02*
X138510000Y-66589000D01*
X136430000Y-66549000D02*
X133485000Y-66549000D01*
X141455000Y-66549000D02*
X138510000Y-66549000D01*
X136430000Y-66509000D02*
X133476000Y-66509000D01*
X141464000Y-66509000D02*
X138510000Y-66509000D01*
X136430000Y-66469000D02*
X133468000Y-66469000D01*
X141472000Y-66469000D02*
X138510000Y-66469000D01*
X136430000Y-66429000D02*
X133460000Y-66429000D01*
X141480000Y-66429000D02*
X138510000Y-66429000D01*
X136430000Y-66389000D02*
X133453000Y-66389000D01*
X141487000Y-66389000D02*
X138510000Y-66389000D01*
X141494000Y-66348000D02*
X133446000Y-66348000D01*
X141500000Y-66308000D02*
X133440000Y-66308000D01*
X141507000Y-66268000D02*
X133433000Y-66268000D01*
X141512000Y-66228000D02*
X133428000Y-66228000D01*
X141518000Y-66188000D02*
X133422000Y-66188000D01*
X141522000Y-66148000D02*
X133418000Y-66148000D01*
X141527000Y-66108000D02*
X133413000Y-66108000D01*
X141531000Y-66068000D02*
X133409000Y-66068000D01*
X141535000Y-66028000D02*
X133405000Y-66028000D01*
X141538000Y-65988000D02*
X133402000Y-65988000D01*
X141541000Y-65948000D02*
X133399000Y-65948000D01*
X141544000Y-65908000D02*
X133396000Y-65908000D01*
X141546000Y-65868000D02*
X133394000Y-65868000D01*
X141547000Y-65828000D02*
X133393000Y-65828000D01*
X141549000Y-65788000D02*
X133391000Y-65788000D01*
X141550000Y-65748000D02*
X133390000Y-65748000D01*
X141550000Y-65708000D02*
X133390000Y-65708000D01*
X141550000Y-65668000D02*
X133390000Y-65668000D01*
X141590000Y-65668000D02*
G75*
G03X141590000Y-65668000I-4120000J0D01*
G01*
D16*
X125527659Y-76761999D02*
X125057999Y-76761999D01*
X131412001Y-77231659D02*
X131412001Y-76761999D01*
X130942341Y-83116001D02*
X131412001Y-83116001D01*
X125057999Y-82646341D02*
X125057999Y-83116001D01*
X125057999Y-83116001D02*
X125527659Y-83116001D01*
X125057999Y-76761999D02*
X125057999Y-77231659D01*
X131412001Y-76761999D02*
X130942341Y-76761999D01*
X131412001Y-83116001D02*
X131412001Y-82646341D01*
D12*
X132536000Y-88643748D02*
X132536000Y-89166252D01*
X133956000Y-88643748D02*
X133956000Y-89166252D01*
X123452000Y-88643748D02*
X123452000Y-89166252D01*
X124872000Y-88643748D02*
X124872000Y-89166252D01*
D17*
X147140000Y-82788001D02*
X154540000Y-82788001D01*
X147140000Y-74088001D02*
X147140000Y-82788001D01*
X159240000Y-74088001D02*
X147140000Y-74088001D01*
X159240000Y-80288001D02*
X159240000Y-74088001D01*
D12*
X140893000Y-85061000D02*
X142223000Y-85061000D01*
X140893000Y-86391000D02*
X140893000Y-85061000D01*
X140893000Y-87661000D02*
X143553000Y-87661000D01*
X143553000Y-87661000D02*
X143553000Y-87721000D01*
X140893000Y-87661000D02*
X140893000Y-87721000D01*
X140893000Y-87721000D02*
X143553000Y-87721000D01*
X127420000Y-88380000D02*
X128750000Y-88380000D01*
X127420000Y-89710000D02*
X127420000Y-88380000D01*
X127420000Y-90980000D02*
X130080000Y-90980000D01*
X130080000Y-90980000D02*
X130080000Y-91040000D01*
X127420000Y-90980000D02*
X127420000Y-91040000D01*
X127420000Y-91040000D02*
X130080000Y-91040000D01*
D17*
X110900000Y-74060000D02*
X103500000Y-74060000D01*
X110900000Y-82760000D02*
X110900000Y-74060000D01*
X98800000Y-82760000D02*
X110900000Y-82760000D01*
X98800000Y-76560000D02*
X98800000Y-82760000D01*
D12*
X125575252Y-74172000D02*
X125052748Y-74172000D01*
X125575252Y-72752000D02*
X125052748Y-72752000D01*
X130894748Y-72752000D02*
X131417252Y-72752000D01*
X130894748Y-74172000D02*
X131417252Y-74172000D01*
X127898748Y-67960000D02*
X128421252Y-67960000D01*
X127898748Y-69380000D02*
X128421252Y-69380000D01*
X139059252Y-80250000D02*
X138536748Y-80250000D01*
X139059252Y-81670000D02*
X138536748Y-81670000D01*
X139059252Y-75170000D02*
X138536748Y-75170000D01*
X139059252Y-76590000D02*
X138536748Y-76590000D01*
X118751253Y-79975000D02*
X118228749Y-79975000D01*
X118751253Y-81395000D02*
X118228749Y-81395000D01*
X118751253Y-75000000D02*
X118228749Y-75000000D01*
X118751253Y-76420000D02*
X118228749Y-76420000D01*
X117540000Y-93948748D02*
X117540000Y-94471252D01*
X118960000Y-93948748D02*
X118960000Y-94471252D01*
X138040000Y-93723748D02*
X138040000Y-94246252D01*
X139460000Y-93723748D02*
X139460000Y-94246252D01*
X132536000Y-93723748D02*
X132536000Y-94246252D01*
X133956000Y-93723748D02*
X133956000Y-94246252D01*
X123452000Y-93850748D02*
X123452000Y-94373252D01*
X124872000Y-93850748D02*
X124872000Y-94373252D01*
D10*
X151690476Y-95602380D02*
X151690476Y-96316666D01*
X151642857Y-96459523D01*
X151547619Y-96554761D01*
X151404761Y-96602380D01*
X151309523Y-96602380D01*
X152690476Y-96602380D02*
X152119047Y-96602380D01*
X152404761Y-96602380D02*
X152404761Y-95602380D01*
X152309523Y-95745238D01*
X152214285Y-95840476D01*
X152119047Y-95888095D01*
X153166666Y-96602380D02*
X153357142Y-96602380D01*
X153452380Y-96554761D01*
X153500000Y-96507142D01*
X153595238Y-96364285D01*
X153642857Y-96173809D01*
X153642857Y-95792857D01*
X153595238Y-95697619D01*
X153547619Y-95650000D01*
X153452380Y-95602380D01*
X153261904Y-95602380D01*
X153166666Y-95650000D01*
X153119047Y-95697619D01*
X153071428Y-95792857D01*
X153071428Y-96030952D01*
X153119047Y-96126190D01*
X153166666Y-96173809D01*
X153261904Y-96221428D01*
X153452380Y-96221428D01*
X153547619Y-96173809D01*
X153595238Y-96126190D01*
X153642857Y-96030952D01*
X104190476Y-95602380D02*
X104190476Y-96316666D01*
X104142857Y-96459523D01*
X104047619Y-96554761D01*
X103904761Y-96602380D01*
X103809523Y-96602380D01*
X105190476Y-96602380D02*
X104619047Y-96602380D01*
X104904761Y-96602380D02*
X104904761Y-95602380D01*
X104809523Y-95745238D01*
X104714285Y-95840476D01*
X104619047Y-95888095D01*
X105761904Y-96030952D02*
X105666666Y-95983333D01*
X105619047Y-95935714D01*
X105571428Y-95840476D01*
X105571428Y-95792857D01*
X105619047Y-95697619D01*
X105666666Y-95650000D01*
X105761904Y-95602380D01*
X105952380Y-95602380D01*
X106047619Y-95650000D01*
X106095238Y-95697619D01*
X106142857Y-95792857D01*
X106142857Y-95840476D01*
X106095238Y-95935714D01*
X106047619Y-95983333D01*
X105952380Y-96030952D01*
X105761904Y-96030952D01*
X105666666Y-96078571D01*
X105619047Y-96126190D01*
X105571428Y-96221428D01*
X105571428Y-96411904D01*
X105619047Y-96507142D01*
X105666666Y-96554761D01*
X105761904Y-96602380D01*
X105952380Y-96602380D01*
X106047619Y-96554761D01*
X106095238Y-96507142D01*
X106142857Y-96411904D01*
X106142857Y-96221428D01*
X106095238Y-96126190D01*
X106047619Y-96078571D01*
X105952380Y-96030952D01*
X104190476Y-62302380D02*
X104190476Y-63016666D01*
X104142857Y-63159523D01*
X104047619Y-63254761D01*
X103904761Y-63302380D01*
X103809523Y-63302380D01*
X105190476Y-63302380D02*
X104619047Y-63302380D01*
X104904761Y-63302380D02*
X104904761Y-62302380D01*
X104809523Y-62445238D01*
X104714285Y-62540476D01*
X104619047Y-62588095D01*
X105523809Y-62302380D02*
X106190476Y-62302380D01*
X105761904Y-63302380D01*
X166690476Y-95602380D02*
X166690476Y-96316666D01*
X166642857Y-96459523D01*
X166547619Y-96554761D01*
X166404761Y-96602380D01*
X166309523Y-96602380D01*
X167690476Y-96602380D02*
X167119047Y-96602380D01*
X167404761Y-96602380D02*
X167404761Y-95602380D01*
X167309523Y-95745238D01*
X167214285Y-95840476D01*
X167119047Y-95888095D01*
X168547619Y-95602380D02*
X168357142Y-95602380D01*
X168261904Y-95650000D01*
X168214285Y-95697619D01*
X168119047Y-95840476D01*
X168071428Y-96030952D01*
X168071428Y-96411904D01*
X168119047Y-96507142D01*
X168166666Y-96554761D01*
X168261904Y-96602380D01*
X168452380Y-96602380D01*
X168547619Y-96554761D01*
X168595238Y-96507142D01*
X168642857Y-96411904D01*
X168642857Y-96173809D01*
X168595238Y-96078571D01*
X168547619Y-96030952D01*
X168452380Y-95983333D01*
X168261904Y-95983333D01*
X168166666Y-96030952D01*
X168119047Y-96078571D01*
X168071428Y-96173809D01*
X166690476Y-63102380D02*
X166690476Y-63816666D01*
X166642857Y-63959523D01*
X166547619Y-64054761D01*
X166404761Y-64102380D01*
X166309523Y-64102380D01*
X167690476Y-64102380D02*
X167119047Y-64102380D01*
X167404761Y-64102380D02*
X167404761Y-63102380D01*
X167309523Y-63245238D01*
X167214285Y-63340476D01*
X167119047Y-63388095D01*
X168595238Y-63102380D02*
X168119047Y-63102380D01*
X168071428Y-63578571D01*
X168119047Y-63530952D01*
X168214285Y-63483333D01*
X168452380Y-63483333D01*
X168547619Y-63530952D01*
X168595238Y-63578571D01*
X168642857Y-63673809D01*
X168642857Y-63911904D01*
X168595238Y-64007142D01*
X168547619Y-64054761D01*
X168452380Y-64102380D01*
X168214285Y-64102380D01*
X168119047Y-64054761D01*
X168071428Y-64007142D01*
X194102380Y-96066666D02*
X193626190Y-96400000D01*
X194102380Y-96638095D02*
X193102380Y-96638095D01*
X193102380Y-96257142D01*
X193150000Y-96161904D01*
X193197619Y-96114285D01*
X193292857Y-96066666D01*
X193435714Y-96066666D01*
X193530952Y-96114285D01*
X193578571Y-96161904D01*
X193626190Y-96257142D01*
X193626190Y-96638095D01*
X193102380Y-95733333D02*
X193102380Y-95114285D01*
X193483333Y-95447619D01*
X193483333Y-95304761D01*
X193530952Y-95209523D01*
X193578571Y-95161904D01*
X193673809Y-95114285D01*
X193911904Y-95114285D01*
X194007142Y-95161904D01*
X194054761Y-95209523D01*
X194102380Y-95304761D01*
X194102380Y-95590476D01*
X194054761Y-95685714D01*
X194007142Y-95733333D01*
X190802380Y-101963095D02*
X189802380Y-101963095D01*
X189802380Y-101725000D01*
X189850000Y-101582142D01*
X189945238Y-101486904D01*
X190040476Y-101439285D01*
X190230952Y-101391666D01*
X190373809Y-101391666D01*
X190564285Y-101439285D01*
X190659523Y-101486904D01*
X190754761Y-101582142D01*
X190802380Y-101725000D01*
X190802380Y-101963095D01*
X190802380Y-100439285D02*
X190802380Y-101010714D01*
X190802380Y-100725000D02*
X189802380Y-100725000D01*
X189945238Y-100820238D01*
X190040476Y-100915476D01*
X190088095Y-101010714D01*
X106122380Y-94533333D02*
X106836666Y-94533333D01*
X106979523Y-94580952D01*
X107074761Y-94676190D01*
X107122380Y-94819047D01*
X107122380Y-94914285D01*
X107122380Y-93533333D02*
X107122380Y-94104761D01*
X107122380Y-93819047D02*
X106122380Y-93819047D01*
X106265238Y-93914285D01*
X106360476Y-94009523D01*
X106408095Y-94104761D01*
D18*
X191304523Y-71228095D02*
X192211666Y-71228095D01*
X192393095Y-71288571D01*
X192514047Y-71409523D01*
X192574523Y-71590952D01*
X192574523Y-71711904D01*
X192574523Y-69958095D02*
X192574523Y-70683809D01*
X192574523Y-70320952D02*
X191304523Y-70320952D01*
X191485952Y-70441904D01*
X191606904Y-70562857D01*
X191667380Y-70683809D01*
X191425476Y-69474285D02*
X191365000Y-69413809D01*
X191304523Y-69292857D01*
X191304523Y-68990476D01*
X191365000Y-68869523D01*
X191425476Y-68809047D01*
X191546428Y-68748571D01*
X191667380Y-68748571D01*
X191848809Y-68809047D01*
X192574523Y-69534761D01*
X192574523Y-68748571D01*
D11*
X129518666Y-106824280D02*
X129518666Y-107538566D01*
X129471047Y-107681423D01*
X129375809Y-107776661D01*
X129232952Y-107824280D01*
X129137714Y-107824280D01*
X129947238Y-106919519D02*
X129994857Y-106871900D01*
X130090095Y-106824280D01*
X130328190Y-106824280D01*
X130423428Y-106871900D01*
X130471047Y-106919519D01*
X130518666Y-107014757D01*
X130518666Y-107109995D01*
X130471047Y-107252852D01*
X129899619Y-107824280D01*
X130518666Y-107824280D01*
X128336047Y-96742380D02*
X128336047Y-95742380D01*
X128812238Y-96742380D02*
X128812238Y-95742380D01*
X129383666Y-96742380D01*
X129383666Y-95742380D01*
X129621761Y-96837619D02*
X130383666Y-96837619D01*
X131145571Y-96742380D02*
X130574142Y-96742380D01*
X130859857Y-96742380D02*
X130859857Y-95742380D01*
X130764619Y-95885238D01*
X130669380Y-95980476D01*
X130574142Y-96028095D01*
X135285714Y-99412380D02*
X134714285Y-99412380D01*
X135000000Y-99412380D02*
X135000000Y-98412380D01*
X134904761Y-98555238D01*
X134809523Y-98650476D01*
X134714285Y-98698095D01*
D10*
X171590476Y-92052380D02*
X171590476Y-92766666D01*
X171542857Y-92909523D01*
X171447619Y-93004761D01*
X171304761Y-93052380D01*
X171209523Y-93052380D01*
X172590476Y-93052380D02*
X172019047Y-93052380D01*
X172304761Y-93052380D02*
X172304761Y-92052380D01*
X172209523Y-92195238D01*
X172114285Y-92290476D01*
X172019047Y-92338095D01*
X173447619Y-92385714D02*
X173447619Y-93052380D01*
X173209523Y-92004761D02*
X172971428Y-92719047D01*
X173590476Y-92719047D01*
X190990476Y-82782380D02*
X190990476Y-83496666D01*
X190942857Y-83639523D01*
X190847619Y-83734761D01*
X190704761Y-83782380D01*
X190609523Y-83782380D01*
X191990476Y-83782380D02*
X191419047Y-83782380D01*
X191704761Y-83782380D02*
X191704761Y-82782380D01*
X191609523Y-82925238D01*
X191514285Y-83020476D01*
X191419047Y-83068095D01*
X192323809Y-82782380D02*
X192942857Y-82782380D01*
X192609523Y-83163333D01*
X192752380Y-83163333D01*
X192847619Y-83210952D01*
X192895238Y-83258571D01*
X192942857Y-83353809D01*
X192942857Y-83591904D01*
X192895238Y-83687142D01*
X192847619Y-83734761D01*
X192752380Y-83782380D01*
X192466666Y-83782380D01*
X192371428Y-83734761D01*
X192323809Y-83687142D01*
X179802380Y-83121904D02*
X180611904Y-83121904D01*
X180707142Y-83074285D01*
X180754761Y-83026666D01*
X180802380Y-82931428D01*
X180802380Y-82740952D01*
X180754761Y-82645714D01*
X180707142Y-82598095D01*
X180611904Y-82550476D01*
X179802380Y-82550476D01*
X179897619Y-82121904D02*
X179850000Y-82074285D01*
X179802380Y-81979047D01*
X179802380Y-81740952D01*
X179850000Y-81645714D01*
X179897619Y-81598095D01*
X179992857Y-81550476D01*
X180088095Y-81550476D01*
X180230952Y-81598095D01*
X180802380Y-82169523D01*
X180802380Y-81550476D01*
X183604761Y-85568095D02*
X183652380Y-85425238D01*
X183652380Y-85187142D01*
X183604761Y-85091904D01*
X183557142Y-85044285D01*
X183461904Y-84996666D01*
X183366666Y-84996666D01*
X183271428Y-85044285D01*
X183223809Y-85091904D01*
X183176190Y-85187142D01*
X183128571Y-85377619D01*
X183080952Y-85472857D01*
X183033333Y-85520476D01*
X182938095Y-85568095D01*
X182842857Y-85568095D01*
X182747619Y-85520476D01*
X182700000Y-85472857D01*
X182652380Y-85377619D01*
X182652380Y-85139523D01*
X182700000Y-84996666D01*
X183604761Y-84615714D02*
X183652380Y-84472857D01*
X183652380Y-84234761D01*
X183604761Y-84139523D01*
X183557142Y-84091904D01*
X183461904Y-84044285D01*
X183366666Y-84044285D01*
X183271428Y-84091904D01*
X183223809Y-84139523D01*
X183176190Y-84234761D01*
X183128571Y-84425238D01*
X183080952Y-84520476D01*
X183033333Y-84568095D01*
X182938095Y-84615714D01*
X182842857Y-84615714D01*
X182747619Y-84568095D01*
X182700000Y-84520476D01*
X182652380Y-84425238D01*
X182652380Y-84187142D01*
X182700000Y-84044285D01*
X183652380Y-83615714D02*
X182652380Y-83615714D01*
X183366666Y-83282380D01*
X182652380Y-82949047D01*
X183652380Y-82949047D01*
X182747619Y-82520476D02*
X182700000Y-82472857D01*
X182652380Y-82377619D01*
X182652380Y-82139523D01*
X182700000Y-82044285D01*
X182747619Y-81996666D01*
X182842857Y-81949047D01*
X182938095Y-81949047D01*
X183080952Y-81996666D01*
X183652380Y-82568095D01*
X183652380Y-81949047D01*
X182652380Y-81615714D02*
X182652380Y-80996666D01*
X183033333Y-81330000D01*
X183033333Y-81187142D01*
X183080952Y-81091904D01*
X183128571Y-81044285D01*
X183223809Y-80996666D01*
X183461904Y-80996666D01*
X183557142Y-81044285D01*
X183604761Y-81091904D01*
X183652380Y-81187142D01*
X183652380Y-81472857D01*
X183604761Y-81568095D01*
X183557142Y-81615714D01*
X182652380Y-80377619D02*
X182652380Y-80282380D01*
X182700000Y-80187142D01*
X182747619Y-80139523D01*
X182842857Y-80091904D01*
X183033333Y-80044285D01*
X183271428Y-80044285D01*
X183461904Y-80091904D01*
X183557142Y-80139523D01*
X183604761Y-80187142D01*
X183652380Y-80282380D01*
X183652380Y-80377619D01*
X183604761Y-80472857D01*
X183557142Y-80520476D01*
X183461904Y-80568095D01*
X183271428Y-80615714D01*
X183033333Y-80615714D01*
X182842857Y-80568095D01*
X182747619Y-80520476D01*
X182700000Y-80472857D01*
X182652380Y-80377619D01*
X182652380Y-79187142D02*
X182652380Y-79377619D01*
X182700000Y-79472857D01*
X182747619Y-79520476D01*
X182890476Y-79615714D01*
X183080952Y-79663333D01*
X183461904Y-79663333D01*
X183557142Y-79615714D01*
X183604761Y-79568095D01*
X183652380Y-79472857D01*
X183652380Y-79282380D01*
X183604761Y-79187142D01*
X183557142Y-79139523D01*
X183461904Y-79091904D01*
X183223809Y-79091904D01*
X183128571Y-79139523D01*
X183080952Y-79187142D01*
X183033333Y-79282380D01*
X183033333Y-79472857D01*
X183080952Y-79568095D01*
X183128571Y-79615714D01*
X183223809Y-79663333D01*
X180802380Y-79921600D02*
X181040476Y-79921600D01*
X180945238Y-80159695D02*
X181040476Y-79921600D01*
X180945238Y-79683504D01*
X181230952Y-80064457D02*
X181040476Y-79921600D01*
X181230952Y-79778742D01*
D18*
X181821904Y-100554523D02*
X181821904Y-101461666D01*
X181761428Y-101643095D01*
X181640476Y-101764047D01*
X181459047Y-101824523D01*
X181338095Y-101824523D01*
X183091904Y-101824523D02*
X182366190Y-101824523D01*
X182729047Y-101824523D02*
X182729047Y-100554523D01*
X182608095Y-100735952D01*
X182487142Y-100856904D01*
X182366190Y-100917380D01*
X184301428Y-101824523D02*
X183575714Y-101824523D01*
X183938571Y-101824523D02*
X183938571Y-100554523D01*
X183817619Y-100735952D01*
X183696666Y-100856904D01*
X183575714Y-100917380D01*
X177076666Y-64854523D02*
X177076666Y-65761666D01*
X177016190Y-65943095D01*
X176895238Y-66064047D01*
X176713809Y-66124523D01*
X176592857Y-66124523D01*
X177741904Y-66124523D02*
X177983809Y-66124523D01*
X178104761Y-66064047D01*
X178165238Y-66003571D01*
X178286190Y-65822142D01*
X178346666Y-65580238D01*
X178346666Y-65096428D01*
X178286190Y-64975476D01*
X178225714Y-64915000D01*
X178104761Y-64854523D01*
X177862857Y-64854523D01*
X177741904Y-64915000D01*
X177681428Y-64975476D01*
X177620952Y-65096428D01*
X177620952Y-65398809D01*
X177681428Y-65519761D01*
X177741904Y-65580238D01*
X177862857Y-65640714D01*
X178104761Y-65640714D01*
X178225714Y-65580238D01*
X178286190Y-65519761D01*
X178346666Y-65398809D01*
D10*
X191486666Y-88062380D02*
X191486666Y-88776666D01*
X191439047Y-88919523D01*
X191343809Y-89014761D01*
X191200952Y-89062380D01*
X191105714Y-89062380D01*
X191867619Y-88062380D02*
X192534285Y-88062380D01*
X192105714Y-89062380D01*
D11*
X165252380Y-84133333D02*
X165966666Y-84133333D01*
X166109523Y-84180952D01*
X166204761Y-84276190D01*
X166252380Y-84419047D01*
X166252380Y-84514285D01*
X165252380Y-83180952D02*
X165252380Y-83657142D01*
X165728571Y-83704761D01*
X165680952Y-83657142D01*
X165633333Y-83561904D01*
X165633333Y-83323809D01*
X165680952Y-83228571D01*
X165728571Y-83180952D01*
X165823809Y-83133333D01*
X166061904Y-83133333D01*
X166157142Y-83180952D01*
X166204761Y-83228571D01*
X166252380Y-83323809D01*
X166252380Y-83561904D01*
X166204761Y-83657142D01*
X166157142Y-83704761D01*
X170957142Y-87538095D02*
X171004761Y-87585714D01*
X171052380Y-87728571D01*
X171052380Y-87823809D01*
X171004761Y-87966666D01*
X170909523Y-88061904D01*
X170814285Y-88109523D01*
X170623809Y-88157142D01*
X170480952Y-88157142D01*
X170290476Y-88109523D01*
X170195238Y-88061904D01*
X170100000Y-87966666D01*
X170052380Y-87823809D01*
X170052380Y-87728571D01*
X170100000Y-87585714D01*
X170147619Y-87538095D01*
X171052380Y-86966666D02*
X171004761Y-87061904D01*
X170957142Y-87109523D01*
X170861904Y-87157142D01*
X170576190Y-87157142D01*
X170480952Y-87109523D01*
X170433333Y-87061904D01*
X170385714Y-86966666D01*
X170385714Y-86823809D01*
X170433333Y-86728571D01*
X170480952Y-86680952D01*
X170576190Y-86633333D01*
X170861904Y-86633333D01*
X170957142Y-86680952D01*
X171004761Y-86728571D01*
X171052380Y-86823809D01*
X171052380Y-86966666D01*
X170385714Y-86204761D02*
X171052380Y-86204761D01*
X170480952Y-86204761D02*
X170433333Y-86157142D01*
X170385714Y-86061904D01*
X170385714Y-85919047D01*
X170433333Y-85823809D01*
X170528571Y-85776190D01*
X171052380Y-85776190D01*
X170385714Y-85300000D02*
X171052380Y-85300000D01*
X170480952Y-85300000D02*
X170433333Y-85252380D01*
X170385714Y-85157142D01*
X170385714Y-85014285D01*
X170433333Y-84919047D01*
X170528571Y-84871428D01*
X171052380Y-84871428D01*
X171147619Y-84633333D02*
X171147619Y-83871428D01*
X170052380Y-83442857D02*
X170052380Y-83347619D01*
X170100000Y-83252380D01*
X170147619Y-83204761D01*
X170242857Y-83157142D01*
X170433333Y-83109523D01*
X170671428Y-83109523D01*
X170861904Y-83157142D01*
X170957142Y-83204761D01*
X171004761Y-83252380D01*
X171052380Y-83347619D01*
X171052380Y-83442857D01*
X171004761Y-83538095D01*
X170957142Y-83585714D01*
X170861904Y-83633333D01*
X170671428Y-83680952D01*
X170433333Y-83680952D01*
X170242857Y-83633333D01*
X170147619Y-83585714D01*
X170100000Y-83538095D01*
X170052380Y-83442857D01*
X171052380Y-82157142D02*
X171052380Y-82728571D01*
X171052380Y-82442857D02*
X170052380Y-82442857D01*
X170195238Y-82538095D01*
X170290476Y-82633333D01*
X170338095Y-82728571D01*
X171052380Y-81823809D02*
X170385714Y-81300000D01*
X170385714Y-81823809D02*
X171052380Y-81300000D01*
X170052380Y-80728571D02*
X170052380Y-80633333D01*
X170100000Y-80538095D01*
X170147619Y-80490476D01*
X170242857Y-80442857D01*
X170433333Y-80395238D01*
X170671428Y-80395238D01*
X170861904Y-80442857D01*
X170957142Y-80490476D01*
X171004761Y-80538095D01*
X171052380Y-80633333D01*
X171052380Y-80728571D01*
X171004761Y-80823809D01*
X170957142Y-80871428D01*
X170861904Y-80919047D01*
X170671428Y-80966666D01*
X170433333Y-80966666D01*
X170242857Y-80919047D01*
X170147619Y-80871428D01*
X170100000Y-80823809D01*
X170052380Y-80728571D01*
X170052380Y-80061904D02*
X170052380Y-79442857D01*
X170433333Y-79776190D01*
X170433333Y-79633333D01*
X170480952Y-79538095D01*
X170528571Y-79490476D01*
X170623809Y-79442857D01*
X170861904Y-79442857D01*
X170957142Y-79490476D01*
X171004761Y-79538095D01*
X171052380Y-79633333D01*
X171052380Y-79919047D01*
X171004761Y-80014285D01*
X170957142Y-80061904D01*
X171152380Y-89044285D02*
X171152380Y-89615714D01*
X171152380Y-89330000D02*
X170152380Y-89330000D01*
X170295238Y-89425238D01*
X170390476Y-89520476D01*
X170438095Y-89615714D01*
D10*
X189477142Y-79677142D02*
X189429523Y-79724761D01*
X189286666Y-79772380D01*
X189191428Y-79772380D01*
X189048571Y-79724761D01*
X188953333Y-79629523D01*
X188905714Y-79534285D01*
X188858095Y-79343809D01*
X188858095Y-79200952D01*
X188905714Y-79010476D01*
X188953333Y-78915238D01*
X189048571Y-78820000D01*
X189191428Y-78772380D01*
X189286666Y-78772380D01*
X189429523Y-78820000D01*
X189477142Y-78867619D01*
X190429523Y-79772380D02*
X189858095Y-79772380D01*
X190143809Y-79772380D02*
X190143809Y-78772380D01*
X190048571Y-78915238D01*
X189953333Y-79010476D01*
X189858095Y-79058095D01*
X191334285Y-78772380D02*
X190858095Y-78772380D01*
X190810476Y-79248571D01*
X190858095Y-79200952D01*
X190953333Y-79153333D01*
X191191428Y-79153333D01*
X191286666Y-79200952D01*
X191334285Y-79248571D01*
X191381904Y-79343809D01*
X191381904Y-79581904D01*
X191334285Y-79677142D01*
X191286666Y-79724761D01*
X191191428Y-79772380D01*
X190953333Y-79772380D01*
X190858095Y-79724761D01*
X190810476Y-79677142D01*
X187537142Y-82927857D02*
X187584761Y-82975476D01*
X187632380Y-83118333D01*
X187632380Y-83213571D01*
X187584761Y-83356428D01*
X187489523Y-83451666D01*
X187394285Y-83499285D01*
X187203809Y-83546904D01*
X187060952Y-83546904D01*
X186870476Y-83499285D01*
X186775238Y-83451666D01*
X186680000Y-83356428D01*
X186632380Y-83213571D01*
X186632380Y-83118333D01*
X186680000Y-82975476D01*
X186727619Y-82927857D01*
X187632380Y-81975476D02*
X187632380Y-82546904D01*
X187632380Y-82261190D02*
X186632380Y-82261190D01*
X186775238Y-82356428D01*
X186870476Y-82451666D01*
X186918095Y-82546904D01*
X186727619Y-81594523D02*
X186680000Y-81546904D01*
X186632380Y-81451666D01*
X186632380Y-81213571D01*
X186680000Y-81118333D01*
X186727619Y-81070714D01*
X186822857Y-81023095D01*
X186918095Y-81023095D01*
X187060952Y-81070714D01*
X187632380Y-81642142D01*
X187632380Y-81023095D01*
X177157142Y-91042857D02*
X177204761Y-91090476D01*
X177252380Y-91233333D01*
X177252380Y-91328571D01*
X177204761Y-91471428D01*
X177109523Y-91566666D01*
X177014285Y-91614285D01*
X176823809Y-91661904D01*
X176680952Y-91661904D01*
X176490476Y-91614285D01*
X176395238Y-91566666D01*
X176300000Y-91471428D01*
X176252380Y-91328571D01*
X176252380Y-91233333D01*
X176300000Y-91090476D01*
X176347619Y-91042857D01*
X177252380Y-90090476D02*
X177252380Y-90661904D01*
X177252380Y-90376190D02*
X176252380Y-90376190D01*
X176395238Y-90471428D01*
X176490476Y-90566666D01*
X176538095Y-90661904D01*
X177252380Y-89138095D02*
X177252380Y-89709523D01*
X177252380Y-89423809D02*
X176252380Y-89423809D01*
X176395238Y-89519047D01*
X176490476Y-89614285D01*
X176538095Y-89709523D01*
X173957142Y-86442857D02*
X174004761Y-86490476D01*
X174052380Y-86633333D01*
X174052380Y-86728571D01*
X174004761Y-86871428D01*
X173909523Y-86966666D01*
X173814285Y-87014285D01*
X173623809Y-87061904D01*
X173480952Y-87061904D01*
X173290476Y-87014285D01*
X173195238Y-86966666D01*
X173100000Y-86871428D01*
X173052380Y-86728571D01*
X173052380Y-86633333D01*
X173100000Y-86490476D01*
X173147619Y-86442857D01*
X174052380Y-85490476D02*
X174052380Y-86061904D01*
X174052380Y-85776190D02*
X173052380Y-85776190D01*
X173195238Y-85871428D01*
X173290476Y-85966666D01*
X173338095Y-86061904D01*
X173052380Y-84871428D02*
X173052380Y-84776190D01*
X173100000Y-84680952D01*
X173147619Y-84633333D01*
X173242857Y-84585714D01*
X173433333Y-84538095D01*
X173671428Y-84538095D01*
X173861904Y-84585714D01*
X173957142Y-84633333D01*
X174004761Y-84680952D01*
X174052380Y-84776190D01*
X174052380Y-84871428D01*
X174004761Y-84966666D01*
X173957142Y-85014285D01*
X173861904Y-85061904D01*
X173671428Y-85109523D01*
X173433333Y-85109523D01*
X173242857Y-85061904D01*
X173147619Y-85014285D01*
X173100000Y-84966666D01*
X173052380Y-84871428D01*
X173957142Y-80166666D02*
X174004761Y-80214285D01*
X174052380Y-80357142D01*
X174052380Y-80452380D01*
X174004761Y-80595238D01*
X173909523Y-80690476D01*
X173814285Y-80738095D01*
X173623809Y-80785714D01*
X173480952Y-80785714D01*
X173290476Y-80738095D01*
X173195238Y-80690476D01*
X173100000Y-80595238D01*
X173052380Y-80452380D01*
X173052380Y-80357142D01*
X173100000Y-80214285D01*
X173147619Y-80166666D01*
X173052380Y-79833333D02*
X173052380Y-79166666D01*
X174052380Y-79595238D01*
X177227142Y-75806666D02*
X177274761Y-75854285D01*
X177322380Y-75997142D01*
X177322380Y-76092380D01*
X177274761Y-76235238D01*
X177179523Y-76330476D01*
X177084285Y-76378095D01*
X176893809Y-76425714D01*
X176750952Y-76425714D01*
X176560476Y-76378095D01*
X176465238Y-76330476D01*
X176370000Y-76235238D01*
X176322380Y-76092380D01*
X176322380Y-75997142D01*
X176370000Y-75854285D01*
X176417619Y-75806666D01*
X176655714Y-74949523D02*
X177322380Y-74949523D01*
X176274761Y-75187619D02*
X176989047Y-75425714D01*
X176989047Y-74806666D01*
D18*
X152558523Y-66049333D02*
X153465666Y-66049333D01*
X153647095Y-66109809D01*
X153768047Y-66230761D01*
X153828523Y-66412190D01*
X153828523Y-66533142D01*
X152981857Y-64900285D02*
X153828523Y-64900285D01*
X152498047Y-65202666D02*
X153405190Y-65505047D01*
X153405190Y-64718857D01*
D10*
X143077142Y-65834666D02*
X143124761Y-65882285D01*
X143172380Y-66025142D01*
X143172380Y-66120380D01*
X143124761Y-66263238D01*
X143029523Y-66358476D01*
X142934285Y-66406095D01*
X142743809Y-66453714D01*
X142600952Y-66453714D01*
X142410476Y-66406095D01*
X142315238Y-66358476D01*
X142220000Y-66263238D01*
X142172380Y-66120380D01*
X142172380Y-66025142D01*
X142220000Y-65882285D01*
X142267619Y-65834666D01*
X142172380Y-65501333D02*
X142172380Y-64882285D01*
X142553333Y-65215619D01*
X142553333Y-65072761D01*
X142600952Y-64977523D01*
X142648571Y-64929904D01*
X142743809Y-64882285D01*
X142981904Y-64882285D01*
X143077142Y-64929904D01*
X143124761Y-64977523D01*
X143172380Y-65072761D01*
X143172380Y-65358476D01*
X143124761Y-65453714D01*
X143077142Y-65501333D01*
X127687380Y-80700904D02*
X128496904Y-80700904D01*
X128592142Y-80653285D01*
X128639761Y-80605666D01*
X128687380Y-80510428D01*
X128687380Y-80319952D01*
X128639761Y-80224714D01*
X128592142Y-80177095D01*
X128496904Y-80129476D01*
X127687380Y-80129476D01*
X128687380Y-79129476D02*
X128687380Y-79700904D01*
X128687380Y-79415190D02*
X127687380Y-79415190D01*
X127830238Y-79510428D01*
X127925476Y-79605666D01*
X127973095Y-79700904D01*
X121951904Y-85684761D02*
X122094761Y-85732380D01*
X122332857Y-85732380D01*
X122428095Y-85684761D01*
X122475714Y-85637142D01*
X122523333Y-85541904D01*
X122523333Y-85446666D01*
X122475714Y-85351428D01*
X122428095Y-85303809D01*
X122332857Y-85256190D01*
X122142380Y-85208571D01*
X122047142Y-85160952D01*
X121999523Y-85113333D01*
X121951904Y-85018095D01*
X121951904Y-84922857D01*
X121999523Y-84827619D01*
X122047142Y-84780000D01*
X122142380Y-84732380D01*
X122380476Y-84732380D01*
X122523333Y-84780000D01*
X122904285Y-85684761D02*
X123047142Y-85732380D01*
X123285238Y-85732380D01*
X123380476Y-85684761D01*
X123428095Y-85637142D01*
X123475714Y-85541904D01*
X123475714Y-85446666D01*
X123428095Y-85351428D01*
X123380476Y-85303809D01*
X123285238Y-85256190D01*
X123094761Y-85208571D01*
X122999523Y-85160952D01*
X122951904Y-85113333D01*
X122904285Y-85018095D01*
X122904285Y-84922857D01*
X122951904Y-84827619D01*
X122999523Y-84780000D01*
X123094761Y-84732380D01*
X123332857Y-84732380D01*
X123475714Y-84780000D01*
X123904285Y-85732380D02*
X123904285Y-84732380D01*
X124237619Y-85446666D01*
X124570952Y-84732380D01*
X124570952Y-85732380D01*
X124951904Y-84732380D02*
X125570952Y-84732380D01*
X125237619Y-85113333D01*
X125380476Y-85113333D01*
X125475714Y-85160952D01*
X125523333Y-85208571D01*
X125570952Y-85303809D01*
X125570952Y-85541904D01*
X125523333Y-85637142D01*
X125475714Y-85684761D01*
X125380476Y-85732380D01*
X125094761Y-85732380D01*
X124999523Y-85684761D01*
X124951904Y-85637142D01*
X125904285Y-84732380D02*
X126523333Y-84732380D01*
X126190000Y-85113333D01*
X126332857Y-85113333D01*
X126428095Y-85160952D01*
X126475714Y-85208571D01*
X126523333Y-85303809D01*
X126523333Y-85541904D01*
X126475714Y-85637142D01*
X126428095Y-85684761D01*
X126332857Y-85732380D01*
X126047142Y-85732380D01*
X125951904Y-85684761D01*
X125904285Y-85637142D01*
X127142380Y-84732380D02*
X127237619Y-84732380D01*
X127332857Y-84780000D01*
X127380476Y-84827619D01*
X127428095Y-84922857D01*
X127475714Y-85113333D01*
X127475714Y-85351428D01*
X127428095Y-85541904D01*
X127380476Y-85637142D01*
X127332857Y-85684761D01*
X127237619Y-85732380D01*
X127142380Y-85732380D01*
X127047142Y-85684761D01*
X126999523Y-85637142D01*
X126951904Y-85541904D01*
X126904285Y-85351428D01*
X126904285Y-85113333D01*
X126951904Y-84922857D01*
X126999523Y-84827619D01*
X127047142Y-84780000D01*
X127142380Y-84732380D01*
X127856666Y-84827619D02*
X127904285Y-84780000D01*
X127999523Y-84732380D01*
X128237619Y-84732380D01*
X128332857Y-84780000D01*
X128380476Y-84827619D01*
X128428095Y-84922857D01*
X128428095Y-85018095D01*
X128380476Y-85160952D01*
X127809047Y-85732380D01*
X128428095Y-85732380D01*
X128809047Y-85446666D02*
X129285238Y-85446666D01*
X128713809Y-85732380D02*
X129047142Y-84732380D01*
X129380476Y-85732380D01*
X130285238Y-85637142D02*
X130237619Y-85684761D01*
X130094761Y-85732380D01*
X129999523Y-85732380D01*
X129856666Y-85684761D01*
X129761428Y-85589523D01*
X129713809Y-85494285D01*
X129666190Y-85303809D01*
X129666190Y-85160952D01*
X129713809Y-84970476D01*
X129761428Y-84875238D01*
X129856666Y-84780000D01*
X129999523Y-84732380D01*
X130094761Y-84732380D01*
X130237619Y-84780000D01*
X130285238Y-84827619D01*
X130713809Y-85732380D02*
X130713809Y-84732380D01*
X131094761Y-84732380D01*
X131190000Y-84780000D01*
X131237619Y-84827619D01*
X131285238Y-84922857D01*
X131285238Y-85065714D01*
X131237619Y-85160952D01*
X131190000Y-85208571D01*
X131094761Y-85256190D01*
X130713809Y-85256190D01*
X131618571Y-84732380D02*
X132285238Y-84732380D01*
X131618571Y-85732380D01*
X132285238Y-85732380D01*
X132666190Y-85351428D02*
X133428095Y-85351428D01*
X134475714Y-85732380D02*
X134142380Y-85256190D01*
X133904285Y-85732380D02*
X133904285Y-84732380D01*
X134285238Y-84732380D01*
X134380476Y-84780000D01*
X134428095Y-84827619D01*
X134475714Y-84922857D01*
X134475714Y-85065714D01*
X134428095Y-85160952D01*
X134380476Y-85208571D01*
X134285238Y-85256190D01*
X133904285Y-85256190D01*
X134809047Y-84732380D02*
X135475714Y-84732380D01*
X135047142Y-85732380D01*
X123566979Y-77689000D02*
X123805075Y-77689000D01*
X123709837Y-77927095D02*
X123805075Y-77689000D01*
X123709837Y-77450904D01*
X123995551Y-77831857D02*
X123805075Y-77689000D01*
X123995551Y-77546142D01*
X135348380Y-89071666D02*
X134872190Y-89405000D01*
X135348380Y-89643095D02*
X134348380Y-89643095D01*
X134348380Y-89262142D01*
X134396000Y-89166904D01*
X134443619Y-89119285D01*
X134538857Y-89071666D01*
X134681714Y-89071666D01*
X134776952Y-89119285D01*
X134824571Y-89166904D01*
X134872190Y-89262142D01*
X134872190Y-89643095D01*
X134443619Y-88690714D02*
X134396000Y-88643095D01*
X134348380Y-88547857D01*
X134348380Y-88309761D01*
X134396000Y-88214523D01*
X134443619Y-88166904D01*
X134538857Y-88119285D01*
X134634095Y-88119285D01*
X134776952Y-88166904D01*
X135348380Y-88738333D01*
X135348380Y-88119285D01*
X126264380Y-89071666D02*
X125788190Y-89405000D01*
X126264380Y-89643095D02*
X125264380Y-89643095D01*
X125264380Y-89262142D01*
X125312000Y-89166904D01*
X125359619Y-89119285D01*
X125454857Y-89071666D01*
X125597714Y-89071666D01*
X125692952Y-89119285D01*
X125740571Y-89166904D01*
X125788190Y-89262142D01*
X125788190Y-89643095D01*
X126264380Y-88119285D02*
X126264380Y-88690714D01*
X126264380Y-88405000D02*
X125264380Y-88405000D01*
X125407238Y-88500238D01*
X125502476Y-88595476D01*
X125550095Y-88690714D01*
D18*
X152494523Y-79466096D02*
X153401666Y-79466096D01*
X153583095Y-79526572D01*
X153704047Y-79647524D01*
X153764523Y-79828953D01*
X153764523Y-79949905D01*
X153764523Y-78196096D02*
X153764523Y-78921810D01*
X153764523Y-78558953D02*
X152494523Y-78558953D01*
X152675952Y-78679905D01*
X152796904Y-78800858D01*
X152857380Y-78921810D01*
X152494523Y-77409905D02*
X152494523Y-77288953D01*
X152555000Y-77168001D01*
X152615476Y-77107524D01*
X152736428Y-77047048D01*
X152978333Y-76986572D01*
X153280714Y-76986572D01*
X153522619Y-77047048D01*
X153643571Y-77107524D01*
X153704047Y-77168001D01*
X153764523Y-77288953D01*
X153764523Y-77409905D01*
X153704047Y-77530858D01*
X153643571Y-77591334D01*
X153522619Y-77651810D01*
X153280714Y-77712286D01*
X152978333Y-77712286D01*
X152736428Y-77651810D01*
X152615476Y-77591334D01*
X152555000Y-77530858D01*
X152494523Y-77409905D01*
D10*
X141889666Y-83513380D02*
X141889666Y-84227666D01*
X141842047Y-84370523D01*
X141746809Y-84465761D01*
X141603952Y-84513380D01*
X141508714Y-84513380D01*
X142508714Y-83941952D02*
X142413476Y-83894333D01*
X142365857Y-83846714D01*
X142318238Y-83751476D01*
X142318238Y-83703857D01*
X142365857Y-83608619D01*
X142413476Y-83561000D01*
X142508714Y-83513380D01*
X142699190Y-83513380D01*
X142794428Y-83561000D01*
X142842047Y-83608619D01*
X142889666Y-83703857D01*
X142889666Y-83751476D01*
X142842047Y-83846714D01*
X142794428Y-83894333D01*
X142699190Y-83941952D01*
X142508714Y-83941952D01*
X142413476Y-83989571D01*
X142365857Y-84037190D01*
X142318238Y-84132428D01*
X142318238Y-84322904D01*
X142365857Y-84418142D01*
X142413476Y-84465761D01*
X142508714Y-84513380D01*
X142699190Y-84513380D01*
X142794428Y-84465761D01*
X142842047Y-84418142D01*
X142889666Y-84322904D01*
X142889666Y-84132428D01*
X142842047Y-84037190D01*
X142794428Y-83989571D01*
X142699190Y-83941952D01*
X128416666Y-86832380D02*
X128416666Y-87546666D01*
X128369047Y-87689523D01*
X128273809Y-87784761D01*
X128130952Y-87832380D01*
X128035714Y-87832380D01*
X129321428Y-86832380D02*
X129130952Y-86832380D01*
X129035714Y-86880000D01*
X128988095Y-86927619D01*
X128892857Y-87070476D01*
X128845238Y-87260952D01*
X128845238Y-87641904D01*
X128892857Y-87737142D01*
X128940476Y-87784761D01*
X129035714Y-87832380D01*
X129226190Y-87832380D01*
X129321428Y-87784761D01*
X129369047Y-87737142D01*
X129416666Y-87641904D01*
X129416666Y-87403809D01*
X129369047Y-87308571D01*
X129321428Y-87260952D01*
X129226190Y-87213333D01*
X129035714Y-87213333D01*
X128940476Y-87260952D01*
X128892857Y-87308571D01*
X128845238Y-87403809D01*
D18*
X104154523Y-78833333D02*
X105061666Y-78833333D01*
X105243095Y-78893809D01*
X105364047Y-79014761D01*
X105424523Y-79196190D01*
X105424523Y-79317142D01*
X104154523Y-78349523D02*
X104154523Y-77563333D01*
X104638333Y-77986666D01*
X104638333Y-77805238D01*
X104698809Y-77684285D01*
X104759285Y-77623809D01*
X104880238Y-77563333D01*
X105182619Y-77563333D01*
X105303571Y-77623809D01*
X105364047Y-77684285D01*
X105424523Y-77805238D01*
X105424523Y-78168095D01*
X105364047Y-78289047D01*
X105303571Y-78349523D01*
D10*
X124671142Y-75469142D02*
X124623523Y-75516761D01*
X124480666Y-75564380D01*
X124385428Y-75564380D01*
X124242571Y-75516761D01*
X124147333Y-75421523D01*
X124099714Y-75326285D01*
X124052095Y-75135809D01*
X124052095Y-74992952D01*
X124099714Y-74802476D01*
X124147333Y-74707238D01*
X124242571Y-74612000D01*
X124385428Y-74564380D01*
X124480666Y-74564380D01*
X124623523Y-74612000D01*
X124671142Y-74659619D01*
X125052095Y-74659619D02*
X125099714Y-74612000D01*
X125194952Y-74564380D01*
X125433047Y-74564380D01*
X125528285Y-74612000D01*
X125575904Y-74659619D01*
X125623523Y-74754857D01*
X125623523Y-74850095D01*
X125575904Y-74992952D01*
X125004476Y-75564380D01*
X125623523Y-75564380D01*
X125956857Y-74564380D02*
X126575904Y-74564380D01*
X126242571Y-74945333D01*
X126385428Y-74945333D01*
X126480666Y-74992952D01*
X126528285Y-75040571D01*
X126575904Y-75135809D01*
X126575904Y-75373904D01*
X126528285Y-75469142D01*
X126480666Y-75516761D01*
X126385428Y-75564380D01*
X126099714Y-75564380D01*
X126004476Y-75516761D01*
X125956857Y-75469142D01*
X130617142Y-75487142D02*
X130569523Y-75534761D01*
X130426666Y-75582380D01*
X130331428Y-75582380D01*
X130188571Y-75534761D01*
X130093333Y-75439523D01*
X130045714Y-75344285D01*
X129998095Y-75153809D01*
X129998095Y-75010952D01*
X130045714Y-74820476D01*
X130093333Y-74725238D01*
X130188571Y-74630000D01*
X130331428Y-74582380D01*
X130426666Y-74582380D01*
X130569523Y-74630000D01*
X130617142Y-74677619D01*
X130998095Y-74677619D02*
X131045714Y-74630000D01*
X131140952Y-74582380D01*
X131379047Y-74582380D01*
X131474285Y-74630000D01*
X131521904Y-74677619D01*
X131569523Y-74772857D01*
X131569523Y-74868095D01*
X131521904Y-75010952D01*
X130950476Y-75582380D01*
X131569523Y-75582380D01*
X132521904Y-75582380D02*
X131950476Y-75582380D01*
X132236190Y-75582380D02*
X132236190Y-74582380D01*
X132140952Y-74725238D01*
X132045714Y-74820476D01*
X131950476Y-74868095D01*
X127517142Y-67377142D02*
X127469523Y-67424761D01*
X127326666Y-67472380D01*
X127231428Y-67472380D01*
X127088571Y-67424761D01*
X126993333Y-67329523D01*
X126945714Y-67234285D01*
X126898095Y-67043809D01*
X126898095Y-66900952D01*
X126945714Y-66710476D01*
X126993333Y-66615238D01*
X127088571Y-66520000D01*
X127231428Y-66472380D01*
X127326666Y-66472380D01*
X127469523Y-66520000D01*
X127517142Y-66567619D01*
X128469523Y-67472380D02*
X127898095Y-67472380D01*
X128183809Y-67472380D02*
X128183809Y-66472380D01*
X128088571Y-66615238D01*
X127993333Y-66710476D01*
X127898095Y-66758095D01*
X128945714Y-67472380D02*
X129136190Y-67472380D01*
X129231428Y-67424761D01*
X129279047Y-67377142D01*
X129374285Y-67234285D01*
X129421904Y-67043809D01*
X129421904Y-66662857D01*
X129374285Y-66567619D01*
X129326666Y-66520000D01*
X129231428Y-66472380D01*
X129040952Y-66472380D01*
X128945714Y-66520000D01*
X128898095Y-66567619D01*
X128850476Y-66662857D01*
X128850476Y-66900952D01*
X128898095Y-66996190D01*
X128945714Y-67043809D01*
X129040952Y-67091428D01*
X129231428Y-67091428D01*
X129326666Y-67043809D01*
X129374285Y-66996190D01*
X129421904Y-66900952D01*
X138155142Y-82967142D02*
X138107523Y-83014761D01*
X137964666Y-83062380D01*
X137869428Y-83062380D01*
X137726571Y-83014761D01*
X137631333Y-82919523D01*
X137583714Y-82824285D01*
X137536095Y-82633809D01*
X137536095Y-82490952D01*
X137583714Y-82300476D01*
X137631333Y-82205238D01*
X137726571Y-82110000D01*
X137869428Y-82062380D01*
X137964666Y-82062380D01*
X138107523Y-82110000D01*
X138155142Y-82157619D01*
X139107523Y-83062380D02*
X138536095Y-83062380D01*
X138821809Y-83062380D02*
X138821809Y-82062380D01*
X138726571Y-82205238D01*
X138631333Y-82300476D01*
X138536095Y-82348095D01*
X139964666Y-82395714D02*
X139964666Y-83062380D01*
X139726571Y-82014761D02*
X139488476Y-82729047D01*
X140107523Y-82729047D01*
X138155142Y-77887142D02*
X138107523Y-77934761D01*
X137964666Y-77982380D01*
X137869428Y-77982380D01*
X137726571Y-77934761D01*
X137631333Y-77839523D01*
X137583714Y-77744285D01*
X137536095Y-77553809D01*
X137536095Y-77410952D01*
X137583714Y-77220476D01*
X137631333Y-77125238D01*
X137726571Y-77030000D01*
X137869428Y-76982380D01*
X137964666Y-76982380D01*
X138107523Y-77030000D01*
X138155142Y-77077619D01*
X139107523Y-77982380D02*
X138536095Y-77982380D01*
X138821809Y-77982380D02*
X138821809Y-76982380D01*
X138726571Y-77125238D01*
X138631333Y-77220476D01*
X138536095Y-77268095D01*
X139440857Y-76982380D02*
X140059904Y-76982380D01*
X139726571Y-77363333D01*
X139869428Y-77363333D01*
X139964666Y-77410952D01*
X140012285Y-77458571D01*
X140059904Y-77553809D01*
X140059904Y-77791904D01*
X140012285Y-77887142D01*
X139964666Y-77934761D01*
X139869428Y-77982380D01*
X139583714Y-77982380D01*
X139488476Y-77934761D01*
X139440857Y-77887142D01*
X118323334Y-82692142D02*
X118275715Y-82739761D01*
X118132858Y-82787380D01*
X118037620Y-82787380D01*
X117894762Y-82739761D01*
X117799524Y-82644523D01*
X117751905Y-82549285D01*
X117704286Y-82358809D01*
X117704286Y-82215952D01*
X117751905Y-82025476D01*
X117799524Y-81930238D01*
X117894762Y-81835000D01*
X118037620Y-81787380D01*
X118132858Y-81787380D01*
X118275715Y-81835000D01*
X118323334Y-81882619D01*
X118799524Y-82787380D02*
X118990001Y-82787380D01*
X119085239Y-82739761D01*
X119132858Y-82692142D01*
X119228096Y-82549285D01*
X119275715Y-82358809D01*
X119275715Y-81977857D01*
X119228096Y-81882619D01*
X119180477Y-81835000D01*
X119085239Y-81787380D01*
X118894762Y-81787380D01*
X118799524Y-81835000D01*
X118751905Y-81882619D01*
X118704286Y-81977857D01*
X118704286Y-82215952D01*
X118751905Y-82311190D01*
X118799524Y-82358809D01*
X118894762Y-82406428D01*
X119085239Y-82406428D01*
X119180477Y-82358809D01*
X119228096Y-82311190D01*
X119275715Y-82215952D01*
X118323334Y-77717142D02*
X118275715Y-77764761D01*
X118132858Y-77812380D01*
X118037620Y-77812380D01*
X117894762Y-77764761D01*
X117799524Y-77669523D01*
X117751905Y-77574285D01*
X117704286Y-77383809D01*
X117704286Y-77240952D01*
X117751905Y-77050476D01*
X117799524Y-76955238D01*
X117894762Y-76860000D01*
X118037620Y-76812380D01*
X118132858Y-76812380D01*
X118275715Y-76860000D01*
X118323334Y-76907619D01*
X118894762Y-77240952D02*
X118799524Y-77193333D01*
X118751905Y-77145714D01*
X118704286Y-77050476D01*
X118704286Y-77002857D01*
X118751905Y-76907619D01*
X118799524Y-76860000D01*
X118894762Y-76812380D01*
X119085239Y-76812380D01*
X119180477Y-76860000D01*
X119228096Y-76907619D01*
X119275715Y-77002857D01*
X119275715Y-77050476D01*
X119228096Y-77145714D01*
X119180477Y-77193333D01*
X119085239Y-77240952D01*
X118894762Y-77240952D01*
X118799524Y-77288571D01*
X118751905Y-77336190D01*
X118704286Y-77431428D01*
X118704286Y-77621904D01*
X118751905Y-77717142D01*
X118799524Y-77764761D01*
X118894762Y-77812380D01*
X119085239Y-77812380D01*
X119180477Y-77764761D01*
X119228096Y-77717142D01*
X119275715Y-77621904D01*
X119275715Y-77431428D01*
X119228096Y-77336190D01*
X119180477Y-77288571D01*
X119085239Y-77240952D01*
X120257142Y-94376666D02*
X120304761Y-94424285D01*
X120352380Y-94567142D01*
X120352380Y-94662380D01*
X120304761Y-94805238D01*
X120209523Y-94900476D01*
X120114285Y-94948095D01*
X119923809Y-94995714D01*
X119780952Y-94995714D01*
X119590476Y-94948095D01*
X119495238Y-94900476D01*
X119400000Y-94805238D01*
X119352380Y-94662380D01*
X119352380Y-94567142D01*
X119400000Y-94424285D01*
X119447619Y-94376666D01*
X119352380Y-93519523D02*
X119352380Y-93710000D01*
X119400000Y-93805238D01*
X119447619Y-93852857D01*
X119590476Y-93948095D01*
X119780952Y-93995714D01*
X120161904Y-93995714D01*
X120257142Y-93948095D01*
X120304761Y-93900476D01*
X120352380Y-93805238D01*
X120352380Y-93614761D01*
X120304761Y-93519523D01*
X120257142Y-93471904D01*
X120161904Y-93424285D01*
X119923809Y-93424285D01*
X119828571Y-93471904D01*
X119780952Y-93519523D01*
X119733333Y-93614761D01*
X119733333Y-93805238D01*
X119780952Y-93900476D01*
X119828571Y-93948095D01*
X119923809Y-93995714D01*
X140757142Y-94151666D02*
X140804761Y-94199285D01*
X140852380Y-94342142D01*
X140852380Y-94437380D01*
X140804761Y-94580238D01*
X140709523Y-94675476D01*
X140614285Y-94723095D01*
X140423809Y-94770714D01*
X140280952Y-94770714D01*
X140090476Y-94723095D01*
X139995238Y-94675476D01*
X139900000Y-94580238D01*
X139852380Y-94437380D01*
X139852380Y-94342142D01*
X139900000Y-94199285D01*
X139947619Y-94151666D01*
X139852380Y-93246904D02*
X139852380Y-93723095D01*
X140328571Y-93770714D01*
X140280952Y-93723095D01*
X140233333Y-93627857D01*
X140233333Y-93389761D01*
X140280952Y-93294523D01*
X140328571Y-93246904D01*
X140423809Y-93199285D01*
X140661904Y-93199285D01*
X140757142Y-93246904D01*
X140804761Y-93294523D01*
X140852380Y-93389761D01*
X140852380Y-93627857D01*
X140804761Y-93723095D01*
X140757142Y-93770714D01*
X135253142Y-94151666D02*
X135300761Y-94199285D01*
X135348380Y-94342142D01*
X135348380Y-94437380D01*
X135300761Y-94580238D01*
X135205523Y-94675476D01*
X135110285Y-94723095D01*
X134919809Y-94770714D01*
X134776952Y-94770714D01*
X134586476Y-94723095D01*
X134491238Y-94675476D01*
X134396000Y-94580238D01*
X134348380Y-94437380D01*
X134348380Y-94342142D01*
X134396000Y-94199285D01*
X134443619Y-94151666D01*
X134443619Y-93770714D02*
X134396000Y-93723095D01*
X134348380Y-93627857D01*
X134348380Y-93389761D01*
X134396000Y-93294523D01*
X134443619Y-93246904D01*
X134538857Y-93199285D01*
X134634095Y-93199285D01*
X134776952Y-93246904D01*
X135348380Y-93818333D01*
X135348380Y-93199285D01*
X126169142Y-94278666D02*
X126216761Y-94326285D01*
X126264380Y-94469142D01*
X126264380Y-94564380D01*
X126216761Y-94707238D01*
X126121523Y-94802476D01*
X126026285Y-94850095D01*
X125835809Y-94897714D01*
X125692952Y-94897714D01*
X125502476Y-94850095D01*
X125407238Y-94802476D01*
X125312000Y-94707238D01*
X125264380Y-94564380D01*
X125264380Y-94469142D01*
X125312000Y-94326285D01*
X125359619Y-94278666D01*
X126264380Y-93326285D02*
X126264380Y-93897714D01*
X126264380Y-93612000D02*
X125264380Y-93612000D01*
X125407238Y-93707238D01*
X125502476Y-93802476D01*
X125550095Y-93897714D01*
M02*
