G04 #@! TF.GenerationSoftware,KiCad,Pcbnew,(5.1.4)-1*
G04 #@! TF.CreationDate,2020-01-01T20:20:34-05:00*
G04 #@! TF.ProjectId,Board,426f6172-642e-46b6-9963-61645f706362,rev?*
G04 #@! TF.SameCoordinates,Original*
G04 #@! TF.FileFunction,Soldermask,Bot*
G04 #@! TF.FilePolarity,Negative*
%FSLAX46Y46*%
G04 Gerber Fmt 4.6, Leading zero omitted, Abs format (unit mm)*
G04 Created by KiCad (PCBNEW (5.1.4)-1) date 2020-01-01 20:20:34*
%MOMM*%
%LPD*%
G04 APERTURE LIST*
%ADD10C,0.050000*%
%ADD11C,0.100000*%
G04 APERTURE END LIST*
D10*
X162800000Y-63360000D02*
X162800000Y-103360000D01*
X194300000Y-58360000D02*
X167800000Y-58360000D01*
X195300000Y-106360000D02*
X195300000Y-59360000D01*
X193300000Y-108360000D02*
X167800000Y-108360000D01*
X97800000Y-58360000D02*
X160300000Y-58360000D01*
X95300000Y-105860000D02*
X95300000Y-60860000D01*
X160300000Y-108360000D02*
X97800000Y-108360000D01*
X162800000Y-105860000D02*
X162800000Y-103360000D01*
X162800000Y-60860000D02*
X162800000Y-63360000D01*
X95300000Y-60860000D02*
G75*
G02X97800000Y-58360000I2500000J0D01*
G01*
X162800000Y-63360000D02*
G75*
G02X167800000Y-58360000I5000000J0D01*
G01*
X167800000Y-108360000D02*
G75*
G02X162800000Y-103360000I0J5000000D01*
G01*
X195300000Y-106360000D02*
G75*
G02X193300000Y-108360000I-2000000J0D01*
G01*
X194300000Y-58360000D02*
G75*
G02X195300000Y-59360000I0J-1000000D01*
G01*
X162800000Y-105860000D02*
G75*
G02X160300000Y-108360000I-2500000J0D01*
G01*
X97800000Y-108360000D02*
G75*
G02X95300000Y-105860000I0J2500000D01*
G01*
X160300000Y-58360000D02*
G75*
G02X162800000Y-60860000I0J-2500000D01*
G01*
D11*
G36*
X181275816Y-101417589D02*
G01*
X181353965Y-101433134D01*
X181574808Y-101524610D01*
X181773561Y-101657413D01*
X181942587Y-101826439D01*
X182075390Y-102025192D01*
X182166866Y-102246035D01*
X182166866Y-102246036D01*
X182213500Y-102480479D01*
X182213500Y-102719521D01*
X182182411Y-102875816D01*
X182166866Y-102953965D01*
X182075390Y-103174808D01*
X181942587Y-103373561D01*
X181773561Y-103542587D01*
X181574808Y-103675390D01*
X181353965Y-103766866D01*
X181275816Y-103782411D01*
X181119521Y-103813500D01*
X180880479Y-103813500D01*
X180724184Y-103782411D01*
X180646035Y-103766866D01*
X180425192Y-103675390D01*
X180226439Y-103542587D01*
X180057413Y-103373561D01*
X179924610Y-103174808D01*
X179833134Y-102953965D01*
X179817589Y-102875816D01*
X179786500Y-102719521D01*
X179786500Y-102480479D01*
X179833134Y-102246036D01*
X179833134Y-102246035D01*
X179924610Y-102025192D01*
X180057413Y-101826439D01*
X180226439Y-101657413D01*
X180425192Y-101524610D01*
X180646035Y-101433134D01*
X180724184Y-101417589D01*
X180880479Y-101386500D01*
X181119521Y-101386500D01*
X181275816Y-101417589D01*
X181275816Y-101417589D01*
G37*
G36*
X168346189Y-97210483D02*
G01*
X168346192Y-97210484D01*
X168346191Y-97210484D01*
X168874139Y-97429167D01*
X169349280Y-97746646D01*
X169753354Y-98150720D01*
X170070833Y-98625861D01*
X170070834Y-98625863D01*
X170289517Y-99153811D01*
X170401000Y-99714275D01*
X170401000Y-100285725D01*
X170289517Y-100846189D01*
X170070834Y-101374137D01*
X170070833Y-101374139D01*
X169753354Y-101849280D01*
X169349280Y-102253354D01*
X168874139Y-102570833D01*
X168874138Y-102570834D01*
X168874137Y-102570834D01*
X168346189Y-102789517D01*
X167785725Y-102901000D01*
X167214275Y-102901000D01*
X166653811Y-102789517D01*
X166125863Y-102570834D01*
X166125862Y-102570834D01*
X166125861Y-102570833D01*
X165650720Y-102253354D01*
X165246646Y-101849280D01*
X164929167Y-101374139D01*
X164929166Y-101374137D01*
X164710483Y-100846189D01*
X164599000Y-100285725D01*
X164599000Y-99714275D01*
X164710483Y-99153811D01*
X164929166Y-98625863D01*
X164929167Y-98625861D01*
X165246646Y-98150720D01*
X165650720Y-97746646D01*
X166125861Y-97429167D01*
X166653809Y-97210484D01*
X166653808Y-97210484D01*
X166653811Y-97210483D01*
X167214275Y-97099000D01*
X167785725Y-97099000D01*
X168346189Y-97210483D01*
X168346189Y-97210483D01*
G37*
G36*
X153346189Y-97210483D02*
G01*
X153346192Y-97210484D01*
X153346191Y-97210484D01*
X153874139Y-97429167D01*
X154349280Y-97746646D01*
X154753354Y-98150720D01*
X155070833Y-98625861D01*
X155070834Y-98625863D01*
X155289517Y-99153811D01*
X155401000Y-99714275D01*
X155401000Y-100285725D01*
X155289517Y-100846189D01*
X155070834Y-101374137D01*
X155070833Y-101374139D01*
X154753354Y-101849280D01*
X154349280Y-102253354D01*
X153874139Y-102570833D01*
X153874138Y-102570834D01*
X153874137Y-102570834D01*
X153346189Y-102789517D01*
X152785725Y-102901000D01*
X152214275Y-102901000D01*
X151653811Y-102789517D01*
X151125863Y-102570834D01*
X151125862Y-102570834D01*
X151125861Y-102570833D01*
X150650720Y-102253354D01*
X150246646Y-101849280D01*
X149929167Y-101374139D01*
X149929166Y-101374137D01*
X149710483Y-100846189D01*
X149599000Y-100285725D01*
X149599000Y-99714275D01*
X149710483Y-99153811D01*
X149929166Y-98625863D01*
X149929167Y-98625861D01*
X150246646Y-98150720D01*
X150650720Y-97746646D01*
X151125861Y-97429167D01*
X151653809Y-97210484D01*
X151653808Y-97210484D01*
X151653811Y-97210483D01*
X152214275Y-97099000D01*
X152785725Y-97099000D01*
X153346189Y-97210483D01*
X153346189Y-97210483D01*
G37*
G36*
X105846189Y-97210483D02*
G01*
X105846192Y-97210484D01*
X105846191Y-97210484D01*
X106374139Y-97429167D01*
X106849280Y-97746646D01*
X107253354Y-98150720D01*
X107570833Y-98625861D01*
X107570834Y-98625863D01*
X107789517Y-99153811D01*
X107901000Y-99714275D01*
X107901000Y-100285725D01*
X107789517Y-100846189D01*
X107570834Y-101374137D01*
X107570833Y-101374139D01*
X107253354Y-101849280D01*
X106849280Y-102253354D01*
X106374139Y-102570833D01*
X106374138Y-102570834D01*
X106374137Y-102570834D01*
X105846189Y-102789517D01*
X105285725Y-102901000D01*
X104714275Y-102901000D01*
X104153811Y-102789517D01*
X103625863Y-102570834D01*
X103625862Y-102570834D01*
X103625861Y-102570833D01*
X103150720Y-102253354D01*
X102746646Y-101849280D01*
X102429167Y-101374139D01*
X102429166Y-101374137D01*
X102210483Y-100846189D01*
X102099000Y-100285725D01*
X102099000Y-99714275D01*
X102210483Y-99153811D01*
X102429166Y-98625863D01*
X102429167Y-98625861D01*
X102746646Y-98150720D01*
X103150720Y-97746646D01*
X103625861Y-97429167D01*
X104153809Y-97210484D01*
X104153808Y-97210484D01*
X104153811Y-97210483D01*
X104714275Y-97099000D01*
X105285725Y-97099000D01*
X105846189Y-97210483D01*
X105846189Y-97210483D01*
G37*
G36*
X124691560Y-100549064D02*
G01*
X124843027Y-100579193D01*
X125057045Y-100667842D01*
X125057046Y-100667843D01*
X125249654Y-100796539D01*
X125413461Y-100960346D01*
X125499258Y-101088751D01*
X125542158Y-101152955D01*
X125630807Y-101366973D01*
X125676000Y-101594174D01*
X125676000Y-101825826D01*
X125630807Y-102053027D01*
X125542158Y-102267045D01*
X125542157Y-102267046D01*
X125413461Y-102459654D01*
X125249654Y-102623461D01*
X125121249Y-102709258D01*
X125057045Y-102752158D01*
X124843027Y-102840807D01*
X124691560Y-102870936D01*
X124615827Y-102886000D01*
X124384173Y-102886000D01*
X124308440Y-102870936D01*
X124156973Y-102840807D01*
X123942955Y-102752158D01*
X123878751Y-102709258D01*
X123750346Y-102623461D01*
X123586539Y-102459654D01*
X123457843Y-102267046D01*
X123457842Y-102267045D01*
X123369193Y-102053027D01*
X123324000Y-101825826D01*
X123324000Y-101594174D01*
X123369193Y-101366973D01*
X123457842Y-101152955D01*
X123500742Y-101088751D01*
X123586539Y-100960346D01*
X123750346Y-100796539D01*
X123942954Y-100667843D01*
X123942955Y-100667842D01*
X124156973Y-100579193D01*
X124308440Y-100549064D01*
X124384173Y-100534000D01*
X124615827Y-100534000D01*
X124691560Y-100549064D01*
X124691560Y-100549064D01*
G37*
G36*
X129691560Y-100549064D02*
G01*
X129843027Y-100579193D01*
X130057045Y-100667842D01*
X130057046Y-100667843D01*
X130249654Y-100796539D01*
X130413461Y-100960346D01*
X130499258Y-101088751D01*
X130542158Y-101152955D01*
X130630807Y-101366973D01*
X130676000Y-101594174D01*
X130676000Y-101825826D01*
X130630807Y-102053027D01*
X130542158Y-102267045D01*
X130542157Y-102267046D01*
X130413461Y-102459654D01*
X130249654Y-102623461D01*
X130121249Y-102709258D01*
X130057045Y-102752158D01*
X129843027Y-102840807D01*
X129691560Y-102870936D01*
X129615827Y-102886000D01*
X129384173Y-102886000D01*
X129308440Y-102870936D01*
X129156973Y-102840807D01*
X128942955Y-102752158D01*
X128878751Y-102709258D01*
X128750346Y-102623461D01*
X128586539Y-102459654D01*
X128457843Y-102267046D01*
X128457842Y-102267045D01*
X128369193Y-102053027D01*
X128324000Y-101825826D01*
X128324000Y-101594174D01*
X128369193Y-101366973D01*
X128457842Y-101152955D01*
X128500742Y-101088751D01*
X128586539Y-100960346D01*
X128750346Y-100796539D01*
X128942954Y-100667843D01*
X128942955Y-100667842D01*
X129156973Y-100579193D01*
X129308440Y-100549064D01*
X129384173Y-100534000D01*
X129615827Y-100534000D01*
X129691560Y-100549064D01*
X129691560Y-100549064D01*
G37*
G36*
X134691560Y-100549064D02*
G01*
X134843027Y-100579193D01*
X135057045Y-100667842D01*
X135057046Y-100667843D01*
X135249654Y-100796539D01*
X135413461Y-100960346D01*
X135499258Y-101088751D01*
X135542158Y-101152955D01*
X135630807Y-101366973D01*
X135676000Y-101594174D01*
X135676000Y-101825826D01*
X135630807Y-102053027D01*
X135542158Y-102267045D01*
X135542157Y-102267046D01*
X135413461Y-102459654D01*
X135249654Y-102623461D01*
X135121249Y-102709258D01*
X135057045Y-102752158D01*
X134843027Y-102840807D01*
X134691560Y-102870936D01*
X134615827Y-102886000D01*
X134384173Y-102886000D01*
X134308440Y-102870936D01*
X134156973Y-102840807D01*
X133942955Y-102752158D01*
X133878751Y-102709258D01*
X133750346Y-102623461D01*
X133586539Y-102459654D01*
X133457843Y-102267046D01*
X133457842Y-102267045D01*
X133369193Y-102053027D01*
X133324000Y-101825826D01*
X133324000Y-101594174D01*
X133369193Y-101366973D01*
X133457842Y-101152955D01*
X133500742Y-101088751D01*
X133586539Y-100960346D01*
X133750346Y-100796539D01*
X133942954Y-100667843D01*
X133942955Y-100667842D01*
X134156973Y-100579193D01*
X134308440Y-100549064D01*
X134384173Y-100534000D01*
X134615827Y-100534000D01*
X134691560Y-100549064D01*
X134691560Y-100549064D01*
G37*
G36*
X185713500Y-98813500D02*
G01*
X183286500Y-98813500D01*
X183286500Y-96386500D01*
X185713500Y-96386500D01*
X185713500Y-98813500D01*
X185713500Y-98813500D01*
G37*
G36*
X173401000Y-95901000D02*
G01*
X171599000Y-95901000D01*
X171599000Y-94099000D01*
X173401000Y-94099000D01*
X173401000Y-95901000D01*
X173401000Y-95901000D01*
G37*
G36*
X111650442Y-93305518D02*
G01*
X111716627Y-93312037D01*
X111886466Y-93363557D01*
X112042991Y-93447222D01*
X112078729Y-93476552D01*
X112180186Y-93559814D01*
X112263448Y-93661271D01*
X112292778Y-93697009D01*
X112376443Y-93853534D01*
X112427963Y-94023373D01*
X112445359Y-94200000D01*
X112427963Y-94376627D01*
X112376443Y-94546466D01*
X112292778Y-94702991D01*
X112263448Y-94738729D01*
X112180186Y-94840186D01*
X112078729Y-94923448D01*
X112042991Y-94952778D01*
X111886466Y-95036443D01*
X111716627Y-95087963D01*
X111650442Y-95094482D01*
X111584260Y-95101000D01*
X111495740Y-95101000D01*
X111429557Y-95094481D01*
X111363373Y-95087963D01*
X111193534Y-95036443D01*
X111037009Y-94952778D01*
X111001271Y-94923448D01*
X110899814Y-94840186D01*
X110816552Y-94738729D01*
X110787222Y-94702991D01*
X110703557Y-94546466D01*
X110652037Y-94376627D01*
X110634641Y-94200000D01*
X110652037Y-94023373D01*
X110703557Y-93853534D01*
X110787222Y-93697009D01*
X110816552Y-93661271D01*
X110899814Y-93559814D01*
X111001271Y-93476552D01*
X111037009Y-93447222D01*
X111193534Y-93363557D01*
X111363373Y-93312037D01*
X111429558Y-93305518D01*
X111495740Y-93299000D01*
X111584260Y-93299000D01*
X111650442Y-93305518D01*
X111650442Y-93305518D01*
G37*
G36*
X109901000Y-95101000D02*
G01*
X108099000Y-95101000D01*
X108099000Y-93299000D01*
X109901000Y-93299000D01*
X109901000Y-95101000D01*
X109901000Y-95101000D01*
G37*
G36*
X192721000Y-91841000D02*
G01*
X190919000Y-91841000D01*
X190919000Y-90039000D01*
X192721000Y-90039000D01*
X192721000Y-91841000D01*
X192721000Y-91841000D01*
G37*
G36*
X129651000Y-90611000D02*
G01*
X127849000Y-90611000D01*
X127849000Y-88809000D01*
X129651000Y-88809000D01*
X129651000Y-90611000D01*
X129651000Y-90611000D01*
G37*
G36*
X168141560Y-87669064D02*
G01*
X168293027Y-87699193D01*
X168507045Y-87787842D01*
X168507046Y-87787843D01*
X168699654Y-87916539D01*
X168863461Y-88080346D01*
X168949258Y-88208751D01*
X168992158Y-88272955D01*
X169080807Y-88486973D01*
X169126000Y-88714174D01*
X169126000Y-88945826D01*
X169080807Y-89173027D01*
X168992158Y-89387045D01*
X168992157Y-89387046D01*
X168863461Y-89579654D01*
X168699654Y-89743461D01*
X168571249Y-89829258D01*
X168507045Y-89872158D01*
X168293027Y-89960807D01*
X168141560Y-89990936D01*
X168065827Y-90006000D01*
X167834173Y-90006000D01*
X167758440Y-89990936D01*
X167606973Y-89960807D01*
X167392955Y-89872158D01*
X167328751Y-89829258D01*
X167200346Y-89743461D01*
X167036539Y-89579654D01*
X166907843Y-89387046D01*
X166907842Y-89387045D01*
X166819193Y-89173027D01*
X166774000Y-88945826D01*
X166774000Y-88714174D01*
X166819193Y-88486973D01*
X166907842Y-88272955D01*
X166950742Y-88208751D01*
X167036539Y-88080346D01*
X167200346Y-87916539D01*
X167392954Y-87787843D01*
X167392955Y-87787842D01*
X167606973Y-87699193D01*
X167758440Y-87669064D01*
X167834173Y-87654000D01*
X168065827Y-87654000D01*
X168141560Y-87669064D01*
X168141560Y-87669064D01*
G37*
G36*
X143124000Y-87292000D02*
G01*
X141322000Y-87292000D01*
X141322000Y-85490000D01*
X143124000Y-85490000D01*
X143124000Y-87292000D01*
X143124000Y-87292000D01*
G37*
G36*
X192701000Y-86561000D02*
G01*
X190899000Y-86561000D01*
X190899000Y-84759000D01*
X192701000Y-84759000D01*
X192701000Y-86561000D01*
X192701000Y-86561000D01*
G37*
G36*
X168141560Y-82669064D02*
G01*
X168293027Y-82699193D01*
X168507045Y-82787842D01*
X168507046Y-82787843D01*
X168699654Y-82916539D01*
X168863461Y-83080346D01*
X168949258Y-83208751D01*
X168992158Y-83272955D01*
X169080807Y-83486973D01*
X169126000Y-83714174D01*
X169126000Y-83945826D01*
X169080807Y-84173027D01*
X168992158Y-84387045D01*
X168992157Y-84387046D01*
X168863461Y-84579654D01*
X168699654Y-84743461D01*
X168571249Y-84829258D01*
X168507045Y-84872158D01*
X168293027Y-84960807D01*
X168141560Y-84990936D01*
X168065827Y-85006000D01*
X167834173Y-85006000D01*
X167758440Y-84990936D01*
X167606973Y-84960807D01*
X167392955Y-84872158D01*
X167328751Y-84829258D01*
X167200346Y-84743461D01*
X167036539Y-84579654D01*
X166907843Y-84387046D01*
X166907842Y-84387045D01*
X166819193Y-84173027D01*
X166774000Y-83945826D01*
X166774000Y-83714174D01*
X166819193Y-83486973D01*
X166907842Y-83272955D01*
X166950742Y-83208751D01*
X167036539Y-83080346D01*
X167200346Y-82916539D01*
X167392954Y-82787843D01*
X167392955Y-82787842D01*
X167606973Y-82699193D01*
X167758440Y-82669064D01*
X167834173Y-82654000D01*
X168065827Y-82654000D01*
X168141560Y-82669064D01*
X168141560Y-82669064D01*
G37*
G36*
X154815816Y-79105590D02*
G01*
X154893965Y-79121135D01*
X155114808Y-79212611D01*
X155313561Y-79345414D01*
X155482587Y-79514440D01*
X155615390Y-79713193D01*
X155706866Y-79934036D01*
X155753500Y-80168482D01*
X155753500Y-80407520D01*
X155706866Y-80641966D01*
X155615390Y-80862809D01*
X155482587Y-81061562D01*
X155313561Y-81230588D01*
X155114808Y-81363391D01*
X154893965Y-81454867D01*
X154815816Y-81470412D01*
X154659521Y-81501501D01*
X154420479Y-81501501D01*
X154264184Y-81470412D01*
X154186035Y-81454867D01*
X153965192Y-81363391D01*
X153766439Y-81230588D01*
X153597413Y-81061562D01*
X153464610Y-80862809D01*
X153373134Y-80641966D01*
X153326500Y-80407520D01*
X153326500Y-80168482D01*
X153373134Y-79934036D01*
X153464610Y-79713193D01*
X153597413Y-79514440D01*
X153766439Y-79345414D01*
X153965192Y-79212611D01*
X154186035Y-79121135D01*
X154264184Y-79105590D01*
X154420479Y-79074501D01*
X154659521Y-79074501D01*
X154815816Y-79105590D01*
X154815816Y-79105590D01*
G37*
G36*
X109713500Y-81273500D02*
G01*
X107286500Y-81273500D01*
X107286500Y-78846500D01*
X109713500Y-78846500D01*
X109713500Y-81273500D01*
X109713500Y-81273500D01*
G37*
G36*
X168141560Y-77669064D02*
G01*
X168293027Y-77699193D01*
X168507045Y-77787842D01*
X168507046Y-77787843D01*
X168699654Y-77916539D01*
X168863461Y-78080346D01*
X168949258Y-78208751D01*
X168992158Y-78272955D01*
X169080807Y-78486973D01*
X169126000Y-78714174D01*
X169126000Y-78945826D01*
X169080807Y-79173027D01*
X168992158Y-79387045D01*
X168992157Y-79387046D01*
X168863461Y-79579654D01*
X168699654Y-79743461D01*
X168571249Y-79829258D01*
X168507045Y-79872158D01*
X168293027Y-79960807D01*
X168141560Y-79990936D01*
X168065827Y-80006000D01*
X167834173Y-80006000D01*
X167758440Y-79990936D01*
X167606973Y-79960807D01*
X167392955Y-79872158D01*
X167328751Y-79829258D01*
X167200346Y-79743461D01*
X167036539Y-79579654D01*
X166907843Y-79387046D01*
X166907842Y-79387045D01*
X166819193Y-79173027D01*
X166774000Y-78945826D01*
X166774000Y-78714174D01*
X166819193Y-78486973D01*
X166907842Y-78272955D01*
X166950742Y-78208751D01*
X167036539Y-78080346D01*
X167200346Y-77916539D01*
X167392954Y-77787843D01*
X167392955Y-77787842D01*
X167606973Y-77699193D01*
X167758440Y-77669064D01*
X167834173Y-77654000D01*
X168065827Y-77654000D01*
X168141560Y-77669064D01*
X168141560Y-77669064D01*
G37*
G36*
X150753500Y-78001501D02*
G01*
X148326500Y-78001501D01*
X148326500Y-75574501D01*
X150753500Y-75574501D01*
X150753500Y-78001501D01*
X150753500Y-78001501D01*
G37*
G36*
X103775816Y-75377589D02*
G01*
X103853965Y-75393134D01*
X104074808Y-75484610D01*
X104273561Y-75617413D01*
X104442587Y-75786439D01*
X104575390Y-75985192D01*
X104666866Y-76206035D01*
X104713500Y-76440481D01*
X104713500Y-76679519D01*
X104666866Y-76913965D01*
X104575390Y-77134808D01*
X104442587Y-77333561D01*
X104273561Y-77502587D01*
X104074808Y-77635390D01*
X103853965Y-77726866D01*
X103775816Y-77742411D01*
X103619521Y-77773500D01*
X103380479Y-77773500D01*
X103224184Y-77742411D01*
X103146035Y-77726866D01*
X102925192Y-77635390D01*
X102726439Y-77502587D01*
X102557413Y-77333561D01*
X102424610Y-77134808D01*
X102333134Y-76913965D01*
X102286500Y-76679519D01*
X102286500Y-76440481D01*
X102333134Y-76206035D01*
X102424610Y-75985192D01*
X102557413Y-75786439D01*
X102726439Y-75617413D01*
X102925192Y-75484610D01*
X103146035Y-75393134D01*
X103224184Y-75377589D01*
X103380479Y-75346500D01*
X103619521Y-75346500D01*
X103775816Y-75377589D01*
X103775816Y-75377589D01*
G37*
G36*
X190762383Y-71862489D02*
G01*
X190762386Y-71862490D01*
X190762385Y-71862490D01*
X190826258Y-71888946D01*
X190883748Y-71927360D01*
X190932640Y-71976252D01*
X190971054Y-72033742D01*
X190992624Y-72085818D01*
X190997511Y-72097617D01*
X191011000Y-72165430D01*
X191011000Y-72234570D01*
X190997511Y-72302383D01*
X190997510Y-72302385D01*
X190971054Y-72366258D01*
X190932640Y-72423748D01*
X190883748Y-72472640D01*
X190826258Y-72511054D01*
X190774182Y-72532624D01*
X190762383Y-72537511D01*
X190694570Y-72551000D01*
X190625430Y-72551000D01*
X190557617Y-72537511D01*
X190545818Y-72532624D01*
X190493742Y-72511054D01*
X190436252Y-72472640D01*
X190387360Y-72423748D01*
X190348946Y-72366258D01*
X190322490Y-72302385D01*
X190322489Y-72302383D01*
X190309000Y-72234570D01*
X190309000Y-72165430D01*
X190322489Y-72097617D01*
X190327376Y-72085818D01*
X190348946Y-72033742D01*
X190387360Y-71976252D01*
X190436252Y-71927360D01*
X190493742Y-71888946D01*
X190557615Y-71862490D01*
X190557614Y-71862490D01*
X190557617Y-71862489D01*
X190625430Y-71849000D01*
X190694570Y-71849000D01*
X190762383Y-71862489D01*
X190762383Y-71862489D01*
G37*
G36*
X177063500Y-70413500D02*
G01*
X174636500Y-70413500D01*
X174636500Y-67986500D01*
X177063500Y-67986500D01*
X177063500Y-70413500D01*
X177063500Y-70413500D01*
G37*
G36*
X168346189Y-64710483D02*
G01*
X168874137Y-64929166D01*
X168874139Y-64929167D01*
X169349280Y-65246646D01*
X169753354Y-65650720D01*
X169889055Y-65853811D01*
X170070834Y-66125863D01*
X170289517Y-66653811D01*
X170401000Y-67214275D01*
X170401000Y-67785725D01*
X170289517Y-68346189D01*
X170204520Y-68551390D01*
X170070833Y-68874139D01*
X169753354Y-69349280D01*
X169349280Y-69753354D01*
X168874139Y-70070833D01*
X168874138Y-70070834D01*
X168874137Y-70070834D01*
X168346189Y-70289517D01*
X167785725Y-70401000D01*
X167214275Y-70401000D01*
X166653811Y-70289517D01*
X166125863Y-70070834D01*
X166125862Y-70070834D01*
X166125861Y-70070833D01*
X165650720Y-69753354D01*
X165246646Y-69349280D01*
X164929167Y-68874139D01*
X164795480Y-68551390D01*
X164710483Y-68346189D01*
X164599000Y-67785725D01*
X164599000Y-67214275D01*
X164710483Y-66653811D01*
X164929166Y-66125863D01*
X165110945Y-65853811D01*
X165246646Y-65650720D01*
X165650720Y-65246646D01*
X166125861Y-64929167D01*
X166125863Y-64929166D01*
X166653811Y-64710483D01*
X167214275Y-64599000D01*
X167785725Y-64599000D01*
X168346189Y-64710483D01*
X168346189Y-64710483D01*
G37*
G36*
X105846189Y-63910483D02*
G01*
X106374137Y-64129166D01*
X106374139Y-64129167D01*
X106849280Y-64446646D01*
X107253354Y-64850720D01*
X107517903Y-65246646D01*
X107570834Y-65325863D01*
X107789517Y-65853811D01*
X107901000Y-66414275D01*
X107901000Y-66985725D01*
X107789517Y-67546189D01*
X107611379Y-67976252D01*
X107570833Y-68074139D01*
X107253354Y-68549280D01*
X106849280Y-68953354D01*
X106374139Y-69270833D01*
X106374138Y-69270834D01*
X106374137Y-69270834D01*
X105846189Y-69489517D01*
X105285725Y-69601000D01*
X104714275Y-69601000D01*
X104153811Y-69489517D01*
X103625863Y-69270834D01*
X103625862Y-69270834D01*
X103625861Y-69270833D01*
X103150720Y-68953354D01*
X102746646Y-68549280D01*
X102429167Y-68074139D01*
X102388621Y-67976252D01*
X102210483Y-67546189D01*
X102099000Y-66985725D01*
X102099000Y-66414275D01*
X102210483Y-65853811D01*
X102429166Y-65325863D01*
X102482097Y-65246646D01*
X102746646Y-64850720D01*
X103150720Y-64446646D01*
X103625861Y-64129167D01*
X103625863Y-64129166D01*
X104153811Y-63910483D01*
X104714275Y-63799000D01*
X105285725Y-63799000D01*
X105846189Y-63910483D01*
X105846189Y-63910483D01*
G37*
G36*
X154879816Y-66293589D02*
G01*
X154957965Y-66309134D01*
X155178808Y-66400610D01*
X155377561Y-66533413D01*
X155546587Y-66702439D01*
X155679390Y-66901192D01*
X155770866Y-67122035D01*
X155817500Y-67356481D01*
X155817500Y-67595519D01*
X155770866Y-67829965D01*
X155679390Y-68050808D01*
X155546587Y-68249561D01*
X155377561Y-68418587D01*
X155178808Y-68551390D01*
X154957965Y-68642866D01*
X154879816Y-68658411D01*
X154723521Y-68689500D01*
X154484479Y-68689500D01*
X154328184Y-68658411D01*
X154250035Y-68642866D01*
X154029192Y-68551390D01*
X153830439Y-68418587D01*
X153661413Y-68249561D01*
X153528610Y-68050808D01*
X153437134Y-67829965D01*
X153390500Y-67595519D01*
X153390500Y-67356481D01*
X153437134Y-67122035D01*
X153528610Y-66901192D01*
X153661413Y-66702439D01*
X153830439Y-66533413D01*
X154029192Y-66400610D01*
X154250035Y-66309134D01*
X154328184Y-66293589D01*
X154484479Y-66262500D01*
X154723521Y-66262500D01*
X154879816Y-66293589D01*
X154879816Y-66293589D01*
G37*
G36*
X190762383Y-67862489D02*
G01*
X190762386Y-67862490D01*
X190762385Y-67862490D01*
X190826258Y-67888946D01*
X190883748Y-67927360D01*
X190932640Y-67976252D01*
X190971054Y-68033742D01*
X190987785Y-68074137D01*
X190997511Y-68097617D01*
X191011000Y-68165430D01*
X191011000Y-68234570D01*
X190997511Y-68302383D01*
X190997510Y-68302385D01*
X190971054Y-68366258D01*
X190932640Y-68423748D01*
X190883748Y-68472640D01*
X190826258Y-68511054D01*
X190774182Y-68532624D01*
X190762383Y-68537511D01*
X190694570Y-68551000D01*
X190625430Y-68551000D01*
X190557617Y-68537511D01*
X190545818Y-68532624D01*
X190493742Y-68511054D01*
X190436252Y-68472640D01*
X190387360Y-68423748D01*
X190348946Y-68366258D01*
X190322490Y-68302385D01*
X190322489Y-68302383D01*
X190309000Y-68234570D01*
X190309000Y-68165430D01*
X190322489Y-68097617D01*
X190332215Y-68074137D01*
X190348946Y-68033742D01*
X190387360Y-67976252D01*
X190436252Y-67927360D01*
X190493742Y-67888946D01*
X190557615Y-67862490D01*
X190557614Y-67862490D01*
X190557617Y-67862489D01*
X190625430Y-67849000D01*
X190694570Y-67849000D01*
X190762383Y-67862489D01*
X190762383Y-67862489D01*
G37*
G36*
X137718228Y-66599703D02*
G01*
X137873100Y-66663853D01*
X138012481Y-66756985D01*
X138131015Y-66875519D01*
X138224147Y-67014900D01*
X138288297Y-67169772D01*
X138321000Y-67334184D01*
X138321000Y-67501816D01*
X138288297Y-67666228D01*
X138224147Y-67821100D01*
X138131015Y-67960481D01*
X138012481Y-68079015D01*
X137873100Y-68172147D01*
X137718228Y-68236297D01*
X137553816Y-68269000D01*
X137386184Y-68269000D01*
X137221772Y-68236297D01*
X137066900Y-68172147D01*
X136927519Y-68079015D01*
X136808985Y-67960481D01*
X136715853Y-67821100D01*
X136651703Y-67666228D01*
X136619000Y-67501816D01*
X136619000Y-67334184D01*
X136651703Y-67169772D01*
X136715853Y-67014900D01*
X136808985Y-66875519D01*
X136927519Y-66756985D01*
X137066900Y-66663853D01*
X137221772Y-66599703D01*
X137386184Y-66567000D01*
X137553816Y-66567000D01*
X137718228Y-66599703D01*
X137718228Y-66599703D01*
G37*
G36*
X179625816Y-63017589D02*
G01*
X179703965Y-63033134D01*
X179924808Y-63124610D01*
X180123561Y-63257413D01*
X180292587Y-63426439D01*
X180425390Y-63625192D01*
X180516866Y-63846035D01*
X180563500Y-64080481D01*
X180563500Y-64319519D01*
X180516866Y-64553965D01*
X180425390Y-64774808D01*
X180292587Y-64973561D01*
X180123561Y-65142587D01*
X179924808Y-65275390D01*
X179703965Y-65366866D01*
X179625816Y-65382411D01*
X179469521Y-65413500D01*
X179230479Y-65413500D01*
X179074184Y-65382411D01*
X178996035Y-65366866D01*
X178775192Y-65275390D01*
X178576439Y-65142587D01*
X178407413Y-64973561D01*
X178274610Y-64774808D01*
X178183134Y-64553965D01*
X178136500Y-64319519D01*
X178136500Y-64080481D01*
X178183134Y-63846035D01*
X178274610Y-63625192D01*
X178407413Y-63426439D01*
X178576439Y-63257413D01*
X178775192Y-63124610D01*
X178996035Y-63033134D01*
X179074184Y-63017589D01*
X179230479Y-62986500D01*
X179469521Y-62986500D01*
X179625816Y-63017589D01*
X179625816Y-63017589D01*
G37*
G36*
X150817500Y-65189500D02*
G01*
X148390500Y-65189500D01*
X148390500Y-62762500D01*
X150817500Y-62762500D01*
X150817500Y-65189500D01*
X150817500Y-65189500D01*
G37*
G36*
X138321000Y-64769000D02*
G01*
X136619000Y-64769000D01*
X136619000Y-63067000D01*
X138321000Y-63067000D01*
X138321000Y-64769000D01*
X138321000Y-64769000D01*
G37*
M02*
