M48
; DRILL file {KiCad (5.1.4)-1} date 12/31/2019 12:45:31 AM
; FORMAT={-:-/ absolute / inch / decimal}
; #@! TF.CreationDate,2019-12-31T00:45:31-05:00
; #@! TF.GenerationSoftware,Kicad,Pcbnew,(5.1.4)-1
; #@! TF.FileFunction,Plated,1,2,PTH
FMAT,2
INCH
T1C0.0157
T2C0.0315
T3C0.0394
T4C0.0591
T5C0.0610
%
G90
G05
T1
X4.3406Y-3.4571
X4.3406Y-3.5791
X4.7835Y-3.189
X4.8622Y-3.2071
X4.8622Y-3.2465
X4.889Y-3.2929
X4.8933Y-2.8248
X4.9902Y-3.1256
X5.0106Y-3.1925
X5.0213Y-3.0992
X5.0388Y-3.3049
X5.0457Y-3.1516
X5.0701Y-3.0992
X5.0807Y-3.1917
X5.1024Y-3.1232
X5.1543Y-2.7031
X5.204Y-2.8272
X5.2953Y-3.1972
X5.3248Y-3.2661
X6.9581Y-3.6022
X6.9685Y-2.9016
X6.9705Y-3.0677
X6.9705Y-3.1398
X6.9752Y-3.389
X7.0606Y-3.389
X7.0736Y-3.0969
X7.1016Y-3.2433
X7.1756Y-3.0969
X7.213Y-3.3295
X7.3902Y-3.1516
X7.4752Y-3.2626
X7.5819Y-3.0579
T2
X5.4122Y-2.5165
X5.4122Y-2.6543
T3
X7.5925Y-3.7986
X7.5906Y-3.3803
X5.5993Y-3.4012
X5.0689Y-3.5319
X7.5913Y-3.5882
T4
X4.9016Y-4.0043
X5.0984Y-4.0043
X5.2953Y-4.0043
X6.6122Y-3.1035
X6.6122Y-3.3004
X6.6122Y-3.4972
T5
X7.3591Y-2.724
X7.4969Y-2.5272
X5.8899Y-2.5187
X6.0868Y-2.6565
X6.9232Y-2.7244
X7.061Y-2.5276
X5.8874Y-3.0231
X6.0843Y-3.1609
X7.126Y-4.0394
X7.2638Y-3.8425
X4.0748Y-3.0142
X4.2717Y-3.152
X4.0748Y-3.8272
X4.2717Y-3.965
T0
M30
