G04 #@! TF.GenerationSoftware,KiCad,Pcbnew,(5.1.4)-1*
G04 #@! TF.CreationDate,2020-01-01T19:34:11-05:00*
G04 #@! TF.ProjectId,Board,426f6172-642e-46b6-9963-61645f706362,rev?*
G04 #@! TF.SameCoordinates,Original*
G04 #@! TF.FileFunction,Soldermask,Bot*
G04 #@! TF.FilePolarity,Negative*
%FSLAX46Y46*%
G04 Gerber Fmt 4.6, Leading zero omitted, Abs format (unit mm)*
G04 Created by KiCad (PCBNEW (5.1.4)-1) date 2020-01-01 19:34:11*
%MOMM*%
%LPD*%
G04 APERTURE LIST*
%ADD10C,0.100000*%
G04 APERTURE END LIST*
D10*
G36*
X142380442Y-140715518D02*
G01*
X142446627Y-140722037D01*
X142616466Y-140773557D01*
X142772991Y-140857222D01*
X142808729Y-140886552D01*
X142910186Y-140969814D01*
X142993448Y-141071271D01*
X143022778Y-141107009D01*
X143106443Y-141263534D01*
X143157963Y-141433373D01*
X143175359Y-141610000D01*
X143157963Y-141786627D01*
X143106443Y-141956466D01*
X143022778Y-142112991D01*
X142993448Y-142148729D01*
X142910186Y-142250186D01*
X142808729Y-142333448D01*
X142772991Y-142362778D01*
X142616466Y-142446443D01*
X142446627Y-142497963D01*
X142380442Y-142504482D01*
X142314260Y-142511000D01*
X142225740Y-142511000D01*
X142159558Y-142504482D01*
X142093373Y-142497963D01*
X141923534Y-142446443D01*
X141767009Y-142362778D01*
X141731271Y-142333448D01*
X141629814Y-142250186D01*
X141546552Y-142148729D01*
X141517222Y-142112991D01*
X141433557Y-141956466D01*
X141382037Y-141786627D01*
X141364641Y-141610000D01*
X141382037Y-141433373D01*
X141433557Y-141263534D01*
X141517222Y-141107009D01*
X141546552Y-141071271D01*
X141629814Y-140969814D01*
X141731271Y-140886552D01*
X141767009Y-140857222D01*
X141923534Y-140773557D01*
X142093373Y-140722037D01*
X142159558Y-140715518D01*
X142225740Y-140709000D01*
X142314260Y-140709000D01*
X142380442Y-140715518D01*
X142380442Y-140715518D01*
G37*
G36*
X140631000Y-142511000D02*
G01*
X138829000Y-142511000D01*
X138829000Y-140709000D01*
X140631000Y-140709000D01*
X140631000Y-142511000D01*
X140631000Y-142511000D01*
G37*
G36*
X111031000Y-142291000D02*
G01*
X109229000Y-142291000D01*
X109229000Y-140489000D01*
X111031000Y-140489000D01*
X111031000Y-142291000D01*
X111031000Y-142291000D01*
G37*
G36*
X105701000Y-142251000D02*
G01*
X103899000Y-142251000D01*
X103899000Y-140449000D01*
X105701000Y-140449000D01*
X105701000Y-142251000D01*
X105701000Y-142251000D01*
G37*
G36*
X133721000Y-142081000D02*
G01*
X131919000Y-142081000D01*
X131919000Y-140279000D01*
X133721000Y-140279000D01*
X133721000Y-142081000D01*
X133721000Y-142081000D01*
G37*
G36*
X68346189Y-134710483D02*
G01*
X68346192Y-134710484D01*
X68346191Y-134710484D01*
X68874139Y-134929167D01*
X69349280Y-135246646D01*
X69753354Y-135650720D01*
X70053553Y-136100000D01*
X70070834Y-136125863D01*
X70289517Y-136653811D01*
X70401000Y-137214275D01*
X70401000Y-137785725D01*
X70289517Y-138346189D01*
X70094656Y-138816625D01*
X70070833Y-138874139D01*
X69753354Y-139349280D01*
X69349280Y-139753354D01*
X68874139Y-140070833D01*
X68874138Y-140070834D01*
X68874137Y-140070834D01*
X68346189Y-140289517D01*
X67785725Y-140401000D01*
X67214275Y-140401000D01*
X66653811Y-140289517D01*
X66125863Y-140070834D01*
X66125862Y-140070834D01*
X66125861Y-140070833D01*
X65650720Y-139753354D01*
X65246646Y-139349280D01*
X64929167Y-138874139D01*
X64905344Y-138816625D01*
X64710483Y-138346189D01*
X64599000Y-137785725D01*
X64599000Y-137214275D01*
X64710483Y-136653811D01*
X64929166Y-136125863D01*
X64946447Y-136100000D01*
X65246646Y-135650720D01*
X65650720Y-135246646D01*
X66125861Y-134929167D01*
X66653809Y-134710484D01*
X66653808Y-134710484D01*
X66653811Y-134710483D01*
X67214275Y-134599000D01*
X67785725Y-134599000D01*
X68346189Y-134710483D01*
X68346189Y-134710483D01*
G37*
G36*
X132930442Y-137745518D02*
G01*
X132996627Y-137752037D01*
X133166466Y-137803557D01*
X133322991Y-137887222D01*
X133358729Y-137916552D01*
X133460186Y-137999814D01*
X133543448Y-138101271D01*
X133572778Y-138137009D01*
X133656443Y-138293534D01*
X133707963Y-138463373D01*
X133725359Y-138640000D01*
X133707963Y-138816627D01*
X133656443Y-138986466D01*
X133572778Y-139142991D01*
X133543448Y-139178729D01*
X133460186Y-139280186D01*
X133375993Y-139349280D01*
X133322991Y-139392778D01*
X133166466Y-139476443D01*
X132996627Y-139527963D01*
X132930443Y-139534481D01*
X132864260Y-139541000D01*
X132775740Y-139541000D01*
X132709557Y-139534481D01*
X132643373Y-139527963D01*
X132473534Y-139476443D01*
X132317009Y-139392778D01*
X132264007Y-139349280D01*
X132179814Y-139280186D01*
X132096552Y-139178729D01*
X132067222Y-139142991D01*
X131983557Y-138986466D01*
X131932037Y-138816627D01*
X131914641Y-138640000D01*
X131932037Y-138463373D01*
X131983557Y-138293534D01*
X132067222Y-138137009D01*
X132096552Y-138101271D01*
X132179814Y-137999814D01*
X132281271Y-137916552D01*
X132317009Y-137887222D01*
X132473534Y-137803557D01*
X132643373Y-137752037D01*
X132709558Y-137745518D01*
X132775740Y-137739000D01*
X132864260Y-137739000D01*
X132930442Y-137745518D01*
X132930442Y-137745518D01*
G37*
G36*
X74080443Y-136085519D02*
G01*
X74146627Y-136092037D01*
X74316466Y-136143557D01*
X74472991Y-136227222D01*
X74508729Y-136256552D01*
X74610186Y-136339814D01*
X74693448Y-136441271D01*
X74722778Y-136477009D01*
X74806443Y-136633534D01*
X74857963Y-136803373D01*
X74875359Y-136980000D01*
X74857963Y-137156627D01*
X74806443Y-137326466D01*
X74722778Y-137482991D01*
X74693448Y-137518729D01*
X74610186Y-137620186D01*
X74508729Y-137703448D01*
X74472991Y-137732778D01*
X74316466Y-137816443D01*
X74146627Y-137867963D01*
X74080443Y-137874481D01*
X74014260Y-137881000D01*
X73925740Y-137881000D01*
X73859557Y-137874481D01*
X73793373Y-137867963D01*
X73623534Y-137816443D01*
X73467009Y-137732778D01*
X73431271Y-137703448D01*
X73329814Y-137620186D01*
X73246552Y-137518729D01*
X73217222Y-137482991D01*
X73133557Y-137326466D01*
X73082037Y-137156627D01*
X73064641Y-136980000D01*
X73082037Y-136803373D01*
X73133557Y-136633534D01*
X73217222Y-136477009D01*
X73246552Y-136441271D01*
X73329814Y-136339814D01*
X73431271Y-136256552D01*
X73467009Y-136227222D01*
X73623534Y-136143557D01*
X73793373Y-136092037D01*
X73859557Y-136085519D01*
X73925740Y-136079000D01*
X74014260Y-136079000D01*
X74080443Y-136085519D01*
X74080443Y-136085519D01*
G37*
G36*
X132930442Y-135205518D02*
G01*
X132996627Y-135212037D01*
X133166466Y-135263557D01*
X133322991Y-135347222D01*
X133358729Y-135376552D01*
X133460186Y-135459814D01*
X133543448Y-135561271D01*
X133572778Y-135597009D01*
X133656443Y-135753534D01*
X133707963Y-135923373D01*
X133725359Y-136100000D01*
X133707963Y-136276627D01*
X133656443Y-136446466D01*
X133572778Y-136602991D01*
X133547713Y-136633532D01*
X133460186Y-136740186D01*
X133358729Y-136823448D01*
X133322991Y-136852778D01*
X133166466Y-136936443D01*
X132996627Y-136987963D01*
X132930443Y-136994481D01*
X132864260Y-137001000D01*
X132775740Y-137001000D01*
X132709557Y-136994481D01*
X132643373Y-136987963D01*
X132473534Y-136936443D01*
X132317009Y-136852778D01*
X132281271Y-136823448D01*
X132179814Y-136740186D01*
X132092287Y-136633532D01*
X132067222Y-136602991D01*
X131983557Y-136446466D01*
X131932037Y-136276627D01*
X131914641Y-136100000D01*
X131932037Y-135923373D01*
X131983557Y-135753534D01*
X132067222Y-135597009D01*
X132096552Y-135561271D01*
X132179814Y-135459814D01*
X132281271Y-135376552D01*
X132317009Y-135347222D01*
X132473534Y-135263557D01*
X132643373Y-135212037D01*
X132709558Y-135205518D01*
X132775740Y-135199000D01*
X132864260Y-135199000D01*
X132930442Y-135205518D01*
X132930442Y-135205518D01*
G37*
G36*
X74080442Y-133545518D02*
G01*
X74146627Y-133552037D01*
X74316466Y-133603557D01*
X74472991Y-133687222D01*
X74508729Y-133716552D01*
X74610186Y-133799814D01*
X74693448Y-133901271D01*
X74722778Y-133937009D01*
X74806443Y-134093534D01*
X74857963Y-134263373D01*
X74875359Y-134440000D01*
X74857963Y-134616627D01*
X74806443Y-134786466D01*
X74722778Y-134942991D01*
X74693448Y-134978729D01*
X74610186Y-135080186D01*
X74508729Y-135163448D01*
X74472991Y-135192778D01*
X74316466Y-135276443D01*
X74146627Y-135327963D01*
X74080443Y-135334481D01*
X74014260Y-135341000D01*
X73925740Y-135341000D01*
X73859557Y-135334481D01*
X73793373Y-135327963D01*
X73623534Y-135276443D01*
X73467009Y-135192778D01*
X73431271Y-135163448D01*
X73329814Y-135080186D01*
X73246552Y-134978729D01*
X73217222Y-134942991D01*
X73133557Y-134786466D01*
X73082037Y-134616627D01*
X73064641Y-134440000D01*
X73082037Y-134263373D01*
X73133557Y-134093534D01*
X73217222Y-133937009D01*
X73246552Y-133901271D01*
X73329814Y-133799814D01*
X73431271Y-133716552D01*
X73467009Y-133687222D01*
X73623534Y-133603557D01*
X73793373Y-133552037D01*
X73859558Y-133545518D01*
X73925740Y-133539000D01*
X74014260Y-133539000D01*
X74080442Y-133545518D01*
X74080442Y-133545518D01*
G37*
G36*
X74080442Y-131005518D02*
G01*
X74146627Y-131012037D01*
X74316466Y-131063557D01*
X74472991Y-131147222D01*
X74508729Y-131176552D01*
X74610186Y-131259814D01*
X74693448Y-131361271D01*
X74722778Y-131397009D01*
X74806443Y-131553534D01*
X74857963Y-131723373D01*
X74875359Y-131900000D01*
X74857963Y-132076627D01*
X74806443Y-132246466D01*
X74722778Y-132402991D01*
X74693448Y-132438729D01*
X74610186Y-132540186D01*
X74508729Y-132623448D01*
X74472991Y-132652778D01*
X74316466Y-132736443D01*
X74146627Y-132787963D01*
X74080442Y-132794482D01*
X74014260Y-132801000D01*
X73925740Y-132801000D01*
X73859558Y-132794482D01*
X73793373Y-132787963D01*
X73623534Y-132736443D01*
X73467009Y-132652778D01*
X73431271Y-132623448D01*
X73329814Y-132540186D01*
X73246552Y-132438729D01*
X73217222Y-132402991D01*
X73133557Y-132246466D01*
X73082037Y-132076627D01*
X73064641Y-131900000D01*
X73082037Y-131723373D01*
X73133557Y-131553534D01*
X73217222Y-131397009D01*
X73246552Y-131361271D01*
X73329814Y-131259814D01*
X73431271Y-131176552D01*
X73467009Y-131147222D01*
X73623534Y-131063557D01*
X73793373Y-131012037D01*
X73859558Y-131005518D01*
X73925740Y-130999000D01*
X74014260Y-130999000D01*
X74080442Y-131005518D01*
X74080442Y-131005518D01*
G37*
G36*
X144240442Y-129585518D02*
G01*
X144306627Y-129592037D01*
X144476466Y-129643557D01*
X144632991Y-129727222D01*
X144668729Y-129756552D01*
X144770186Y-129839814D01*
X144853448Y-129941271D01*
X144882778Y-129977009D01*
X144966443Y-130133534D01*
X145017963Y-130303373D01*
X145035359Y-130480000D01*
X145017963Y-130656627D01*
X144966443Y-130826466D01*
X144882778Y-130982991D01*
X144858940Y-131012037D01*
X144770186Y-131120186D01*
X144668729Y-131203448D01*
X144632991Y-131232778D01*
X144476466Y-131316443D01*
X144306627Y-131367963D01*
X144240442Y-131374482D01*
X144174260Y-131381000D01*
X144085740Y-131381000D01*
X144019558Y-131374482D01*
X143953373Y-131367963D01*
X143783534Y-131316443D01*
X143627009Y-131232778D01*
X143591271Y-131203448D01*
X143489814Y-131120186D01*
X143401060Y-131012037D01*
X143377222Y-130982991D01*
X143293557Y-130826466D01*
X143242037Y-130656627D01*
X143224641Y-130480000D01*
X143242037Y-130303373D01*
X143293557Y-130133534D01*
X143377222Y-129977009D01*
X143406552Y-129941271D01*
X143489814Y-129839814D01*
X143591271Y-129756552D01*
X143627009Y-129727222D01*
X143783534Y-129643557D01*
X143953373Y-129592037D01*
X144019558Y-129585518D01*
X144085740Y-129579000D01*
X144174260Y-129579000D01*
X144240442Y-129585518D01*
X144240442Y-129585518D01*
G37*
G36*
X74080443Y-128465519D02*
G01*
X74146627Y-128472037D01*
X74316466Y-128523557D01*
X74472991Y-128607222D01*
X74508729Y-128636552D01*
X74610186Y-128719814D01*
X74693448Y-128821271D01*
X74722778Y-128857009D01*
X74806443Y-129013534D01*
X74857963Y-129183373D01*
X74875359Y-129360000D01*
X74857963Y-129536627D01*
X74806443Y-129706466D01*
X74722778Y-129862991D01*
X74693448Y-129898729D01*
X74610186Y-130000186D01*
X74508729Y-130083448D01*
X74472991Y-130112778D01*
X74316466Y-130196443D01*
X74146627Y-130247963D01*
X74080442Y-130254482D01*
X74014260Y-130261000D01*
X73925740Y-130261000D01*
X73859558Y-130254482D01*
X73793373Y-130247963D01*
X73623534Y-130196443D01*
X73467009Y-130112778D01*
X73431271Y-130083448D01*
X73329814Y-130000186D01*
X73246552Y-129898729D01*
X73217222Y-129862991D01*
X73133557Y-129706466D01*
X73082037Y-129536627D01*
X73064641Y-129360000D01*
X73082037Y-129183373D01*
X73133557Y-129013534D01*
X73217222Y-128857009D01*
X73246552Y-128821271D01*
X73329814Y-128719814D01*
X73431271Y-128636552D01*
X73467009Y-128607222D01*
X73623534Y-128523557D01*
X73793373Y-128472037D01*
X73859557Y-128465519D01*
X73925740Y-128459000D01*
X74014260Y-128459000D01*
X74080443Y-128465519D01*
X74080443Y-128465519D01*
G37*
G36*
X144240443Y-127045519D02*
G01*
X144306627Y-127052037D01*
X144476466Y-127103557D01*
X144632991Y-127187222D01*
X144668729Y-127216552D01*
X144770186Y-127299814D01*
X144853448Y-127401271D01*
X144882778Y-127437009D01*
X144966443Y-127593534D01*
X145017963Y-127763373D01*
X145035359Y-127940000D01*
X145017963Y-128116627D01*
X144966443Y-128286466D01*
X144882778Y-128442991D01*
X144858940Y-128472037D01*
X144770186Y-128580186D01*
X144668729Y-128663448D01*
X144632991Y-128692778D01*
X144476466Y-128776443D01*
X144306627Y-128827963D01*
X144240442Y-128834482D01*
X144174260Y-128841000D01*
X144085740Y-128841000D01*
X144019558Y-128834482D01*
X143953373Y-128827963D01*
X143783534Y-128776443D01*
X143627009Y-128692778D01*
X143591271Y-128663448D01*
X143489814Y-128580186D01*
X143401060Y-128472037D01*
X143377222Y-128442991D01*
X143293557Y-128286466D01*
X143242037Y-128116627D01*
X143224641Y-127940000D01*
X143242037Y-127763373D01*
X143293557Y-127593534D01*
X143377222Y-127437009D01*
X143406552Y-127401271D01*
X143489814Y-127299814D01*
X143591271Y-127216552D01*
X143627009Y-127187222D01*
X143783534Y-127103557D01*
X143953373Y-127052037D01*
X144019557Y-127045519D01*
X144085740Y-127039000D01*
X144174260Y-127039000D01*
X144240443Y-127045519D01*
X144240443Y-127045519D01*
G37*
G36*
X74080443Y-125925519D02*
G01*
X74146627Y-125932037D01*
X74316466Y-125983557D01*
X74472991Y-126067222D01*
X74508729Y-126096552D01*
X74610186Y-126179814D01*
X74693448Y-126281271D01*
X74722778Y-126317009D01*
X74806443Y-126473534D01*
X74857963Y-126643373D01*
X74875359Y-126820000D01*
X74857963Y-126996627D01*
X74806443Y-127166466D01*
X74722778Y-127322991D01*
X74693448Y-127358729D01*
X74610186Y-127460186D01*
X74508729Y-127543448D01*
X74472991Y-127572778D01*
X74316466Y-127656443D01*
X74146627Y-127707963D01*
X74080443Y-127714481D01*
X74014260Y-127721000D01*
X73925740Y-127721000D01*
X73859557Y-127714481D01*
X73793373Y-127707963D01*
X73623534Y-127656443D01*
X73467009Y-127572778D01*
X73431271Y-127543448D01*
X73329814Y-127460186D01*
X73246552Y-127358729D01*
X73217222Y-127322991D01*
X73133557Y-127166466D01*
X73082037Y-126996627D01*
X73064641Y-126820000D01*
X73082037Y-126643373D01*
X73133557Y-126473534D01*
X73217222Y-126317009D01*
X73246552Y-126281271D01*
X73329814Y-126179814D01*
X73431271Y-126096552D01*
X73467009Y-126067222D01*
X73623534Y-125983557D01*
X73793373Y-125932037D01*
X73859557Y-125925519D01*
X73925740Y-125919000D01*
X74014260Y-125919000D01*
X74080443Y-125925519D01*
X74080443Y-125925519D01*
G37*
G36*
X144240443Y-124505519D02*
G01*
X144306627Y-124512037D01*
X144476466Y-124563557D01*
X144632991Y-124647222D01*
X144668729Y-124676552D01*
X144770186Y-124759814D01*
X144853448Y-124861271D01*
X144882778Y-124897009D01*
X144966443Y-125053534D01*
X145017963Y-125223373D01*
X145035359Y-125400000D01*
X145017963Y-125576627D01*
X144966443Y-125746466D01*
X144882778Y-125902991D01*
X144858940Y-125932037D01*
X144770186Y-126040186D01*
X144668729Y-126123448D01*
X144632991Y-126152778D01*
X144476466Y-126236443D01*
X144306627Y-126287963D01*
X144240443Y-126294481D01*
X144174260Y-126301000D01*
X144085740Y-126301000D01*
X144019557Y-126294481D01*
X143953373Y-126287963D01*
X143783534Y-126236443D01*
X143627009Y-126152778D01*
X143591271Y-126123448D01*
X143489814Y-126040186D01*
X143401060Y-125932037D01*
X143377222Y-125902991D01*
X143293557Y-125746466D01*
X143242037Y-125576627D01*
X143224641Y-125400000D01*
X143242037Y-125223373D01*
X143293557Y-125053534D01*
X143377222Y-124897009D01*
X143406552Y-124861271D01*
X143489814Y-124759814D01*
X143591271Y-124676552D01*
X143627009Y-124647222D01*
X143783534Y-124563557D01*
X143953373Y-124512037D01*
X144019557Y-124505519D01*
X144085740Y-124499000D01*
X144174260Y-124499000D01*
X144240443Y-124505519D01*
X144240443Y-124505519D01*
G37*
G36*
X74080442Y-123385518D02*
G01*
X74146627Y-123392037D01*
X74316466Y-123443557D01*
X74472991Y-123527222D01*
X74508729Y-123556552D01*
X74610186Y-123639814D01*
X74693448Y-123741271D01*
X74722778Y-123777009D01*
X74806443Y-123933534D01*
X74857963Y-124103373D01*
X74875359Y-124280000D01*
X74857963Y-124456627D01*
X74806443Y-124626466D01*
X74722778Y-124782991D01*
X74693448Y-124818729D01*
X74610186Y-124920186D01*
X74508729Y-125003448D01*
X74472991Y-125032778D01*
X74316466Y-125116443D01*
X74146627Y-125167963D01*
X74080443Y-125174481D01*
X74014260Y-125181000D01*
X73925740Y-125181000D01*
X73859557Y-125174481D01*
X73793373Y-125167963D01*
X73623534Y-125116443D01*
X73467009Y-125032778D01*
X73431271Y-125003448D01*
X73329814Y-124920186D01*
X73246552Y-124818729D01*
X73217222Y-124782991D01*
X73133557Y-124626466D01*
X73082037Y-124456627D01*
X73064641Y-124280000D01*
X73082037Y-124103373D01*
X73133557Y-123933534D01*
X73217222Y-123777009D01*
X73246552Y-123741271D01*
X73329814Y-123639814D01*
X73431271Y-123556552D01*
X73467009Y-123527222D01*
X73623534Y-123443557D01*
X73793373Y-123392037D01*
X73859558Y-123385518D01*
X73925740Y-123379000D01*
X74014260Y-123379000D01*
X74080442Y-123385518D01*
X74080442Y-123385518D01*
G37*
G36*
X145031000Y-123761000D02*
G01*
X143229000Y-123761000D01*
X143229000Y-121959000D01*
X145031000Y-121959000D01*
X145031000Y-123761000D01*
X145031000Y-123761000D01*
G37*
G36*
X74871000Y-122641000D02*
G01*
X73069000Y-122641000D01*
X73069000Y-120839000D01*
X74871000Y-120839000D01*
X74871000Y-122641000D01*
X74871000Y-122641000D01*
G37*
G36*
X74731000Y-116251000D02*
G01*
X72929000Y-116251000D01*
X72929000Y-114449000D01*
X74731000Y-114449000D01*
X74731000Y-116251000D01*
X74731000Y-116251000D01*
G37*
G36*
X129831000Y-107381000D02*
G01*
X128029000Y-107381000D01*
X128029000Y-105579000D01*
X129831000Y-105579000D01*
X129831000Y-107381000D01*
X129831000Y-107381000D01*
G37*
G36*
X123501000Y-107301000D02*
G01*
X121699000Y-107301000D01*
X121699000Y-105499000D01*
X123501000Y-105499000D01*
X123501000Y-107301000D01*
X123501000Y-107301000D01*
G37*
G36*
X136710443Y-101045519D02*
G01*
X136776627Y-101052037D01*
X136946466Y-101103557D01*
X137102991Y-101187222D01*
X137138729Y-101216552D01*
X137240186Y-101299814D01*
X137323448Y-101401271D01*
X137352778Y-101437009D01*
X137436443Y-101593534D01*
X137487963Y-101763373D01*
X137505359Y-101940000D01*
X137487963Y-102116627D01*
X137436443Y-102286466D01*
X137352778Y-102442991D01*
X137323448Y-102478729D01*
X137240186Y-102580186D01*
X137138729Y-102663448D01*
X137102991Y-102692778D01*
X136946466Y-102776443D01*
X136776627Y-102827963D01*
X136710442Y-102834482D01*
X136644260Y-102841000D01*
X136555740Y-102841000D01*
X136489557Y-102834481D01*
X136423373Y-102827963D01*
X136253534Y-102776443D01*
X136097009Y-102692778D01*
X136061271Y-102663448D01*
X135959814Y-102580186D01*
X135876552Y-102478729D01*
X135847222Y-102442991D01*
X135763557Y-102286466D01*
X135712037Y-102116627D01*
X135694641Y-101940000D01*
X135712037Y-101763373D01*
X135763557Y-101593534D01*
X135847222Y-101437009D01*
X135876552Y-101401271D01*
X135959814Y-101299814D01*
X136061271Y-101216552D01*
X136097009Y-101187222D01*
X136253534Y-101103557D01*
X136423373Y-101052037D01*
X136489557Y-101045519D01*
X136555740Y-101039000D01*
X136644260Y-101039000D01*
X136710443Y-101045519D01*
X136710443Y-101045519D01*
G37*
G36*
X74657807Y-99302648D02*
G01*
X74809550Y-99348678D01*
X74949397Y-99423428D01*
X75071975Y-99524025D01*
X75172572Y-99646602D01*
X75247322Y-99786449D01*
X75293352Y-99938192D01*
X75305000Y-100056454D01*
X75305000Y-101643546D01*
X75293352Y-101761808D01*
X75247322Y-101913551D01*
X75172572Y-102053398D01*
X75071975Y-102175975D01*
X74949398Y-102276572D01*
X74809551Y-102351322D01*
X74657808Y-102397352D01*
X74500000Y-102412895D01*
X74342193Y-102397352D01*
X74190450Y-102351322D01*
X74050603Y-102276572D01*
X73928026Y-102175975D01*
X73827429Y-102053398D01*
X73752679Y-101913551D01*
X73706649Y-101761808D01*
X73695001Y-101643546D01*
X73695000Y-100056455D01*
X73706648Y-99938193D01*
X73752678Y-99786450D01*
X73827428Y-99646603D01*
X73928025Y-99524025D01*
X74050602Y-99423428D01*
X74190449Y-99348678D01*
X74342192Y-99302648D01*
X74500000Y-99287105D01*
X74657807Y-99302648D01*
X74657807Y-99302648D01*
G37*
G36*
X63057807Y-99302648D02*
G01*
X63209550Y-99348678D01*
X63349397Y-99423428D01*
X63471975Y-99524025D01*
X63572572Y-99646602D01*
X63647322Y-99786449D01*
X63693352Y-99938192D01*
X63705000Y-100056454D01*
X63705000Y-101643546D01*
X63693352Y-101761808D01*
X63647322Y-101913551D01*
X63572572Y-102053398D01*
X63471975Y-102175975D01*
X63349398Y-102276572D01*
X63209551Y-102351322D01*
X63057808Y-102397352D01*
X62900000Y-102412895D01*
X62742193Y-102397352D01*
X62590450Y-102351322D01*
X62450603Y-102276572D01*
X62328026Y-102175975D01*
X62227429Y-102053398D01*
X62152679Y-101913551D01*
X62106649Y-101761808D01*
X62095001Y-101643546D01*
X62095000Y-100056455D01*
X62106648Y-99938193D01*
X62152678Y-99786450D01*
X62227428Y-99646603D01*
X62328025Y-99524025D01*
X62450602Y-99423428D01*
X62590449Y-99348678D01*
X62742192Y-99302648D01*
X62900000Y-99287105D01*
X63057807Y-99302648D01*
X63057807Y-99302648D01*
G37*
G36*
X69157807Y-99302648D02*
G01*
X69309550Y-99348678D01*
X69449397Y-99423428D01*
X69571975Y-99524025D01*
X69672572Y-99646602D01*
X69747322Y-99786449D01*
X69793352Y-99938192D01*
X69805000Y-100056454D01*
X69805000Y-101643546D01*
X69793352Y-101761808D01*
X69747322Y-101913551D01*
X69672572Y-102053398D01*
X69571975Y-102175975D01*
X69449398Y-102276572D01*
X69309551Y-102351322D01*
X69157808Y-102397352D01*
X69000000Y-102412895D01*
X68842193Y-102397352D01*
X68690450Y-102351322D01*
X68550603Y-102276572D01*
X68428026Y-102175975D01*
X68327429Y-102053398D01*
X68252679Y-101913551D01*
X68206649Y-101761808D01*
X68195001Y-101643546D01*
X68195000Y-100056455D01*
X68206648Y-99938193D01*
X68252678Y-99786450D01*
X68327428Y-99646603D01*
X68428025Y-99524025D01*
X68550602Y-99423428D01*
X68690449Y-99348678D01*
X68842192Y-99302648D01*
X69000000Y-99287105D01*
X69157807Y-99302648D01*
X69157807Y-99302648D01*
G37*
G36*
X122613500Y-100463500D02*
G01*
X120186500Y-100463500D01*
X120186500Y-98036500D01*
X122613500Y-98036500D01*
X122613500Y-100463500D01*
X122613500Y-100463500D01*
G37*
G36*
X65457807Y-97302648D02*
G01*
X65609550Y-97348678D01*
X65749397Y-97423428D01*
X65871975Y-97524025D01*
X65972572Y-97646602D01*
X66047322Y-97786449D01*
X66093352Y-97938192D01*
X66105000Y-98056454D01*
X66105000Y-99643546D01*
X66093352Y-99761808D01*
X66047322Y-99913551D01*
X65972572Y-100053398D01*
X65871975Y-100175975D01*
X65749398Y-100276572D01*
X65609551Y-100351322D01*
X65457808Y-100397352D01*
X65300000Y-100412895D01*
X65142193Y-100397352D01*
X64990450Y-100351322D01*
X64850603Y-100276572D01*
X64728026Y-100175975D01*
X64627429Y-100053398D01*
X64552679Y-99913551D01*
X64506649Y-99761808D01*
X64495001Y-99643546D01*
X64495000Y-98056455D01*
X64506648Y-97938193D01*
X64552678Y-97786450D01*
X64627428Y-97646603D01*
X64728025Y-97524025D01*
X64850602Y-97423428D01*
X64990449Y-97348678D01*
X65142192Y-97302648D01*
X65300000Y-97287105D01*
X65457807Y-97302648D01*
X65457807Y-97302648D01*
G37*
G36*
X70957807Y-97302648D02*
G01*
X71109550Y-97348678D01*
X71249397Y-97423428D01*
X71371975Y-97524025D01*
X71472572Y-97646602D01*
X71547322Y-97786449D01*
X71593352Y-97938192D01*
X71605000Y-98056454D01*
X71605000Y-99643546D01*
X71593352Y-99761808D01*
X71547322Y-99913551D01*
X71472572Y-100053398D01*
X71371975Y-100175975D01*
X71249398Y-100276572D01*
X71109551Y-100351322D01*
X70957808Y-100397352D01*
X70800000Y-100412895D01*
X70642193Y-100397352D01*
X70490450Y-100351322D01*
X70350603Y-100276572D01*
X70228026Y-100175975D01*
X70127429Y-100053398D01*
X70052679Y-99913551D01*
X70006649Y-99761808D01*
X69995001Y-99643546D01*
X69995000Y-98056455D01*
X70006648Y-97938193D01*
X70052678Y-97786450D01*
X70127428Y-97646603D01*
X70228025Y-97524025D01*
X70350602Y-97423428D01*
X70490449Y-97348678D01*
X70642192Y-97302648D01*
X70800000Y-97287105D01*
X70957807Y-97302648D01*
X70957807Y-97302648D01*
G37*
G36*
X137501000Y-100301000D02*
G01*
X135699000Y-100301000D01*
X135699000Y-98499000D01*
X137501000Y-98499000D01*
X137501000Y-100301000D01*
X137501000Y-100301000D01*
G37*
G36*
X145162383Y-97662489D02*
G01*
X145162386Y-97662490D01*
X145162385Y-97662490D01*
X145226258Y-97688946D01*
X145283748Y-97727360D01*
X145332640Y-97776252D01*
X145371054Y-97833742D01*
X145392624Y-97885818D01*
X145397511Y-97897617D01*
X145411000Y-97965430D01*
X145411000Y-98034570D01*
X145397511Y-98102383D01*
X145397510Y-98102385D01*
X145371054Y-98166258D01*
X145332640Y-98223748D01*
X145283748Y-98272640D01*
X145226258Y-98311054D01*
X145174182Y-98332624D01*
X145162383Y-98337511D01*
X145094570Y-98351000D01*
X145025430Y-98351000D01*
X144957617Y-98337511D01*
X144945818Y-98332624D01*
X144893742Y-98311054D01*
X144836252Y-98272640D01*
X144787360Y-98223748D01*
X144748946Y-98166258D01*
X144722490Y-98102385D01*
X144722489Y-98102383D01*
X144709000Y-98034570D01*
X144709000Y-97965430D01*
X144722489Y-97897617D01*
X144727376Y-97885818D01*
X144748946Y-97833742D01*
X144787360Y-97776252D01*
X144836252Y-97727360D01*
X144893742Y-97688946D01*
X144957615Y-97662490D01*
X144957614Y-97662490D01*
X144957617Y-97662489D01*
X145025430Y-97649000D01*
X145094570Y-97649000D01*
X145162383Y-97662489D01*
X145162383Y-97662489D01*
G37*
G36*
X125175816Y-93067589D02*
G01*
X125253965Y-93083134D01*
X125474808Y-93174610D01*
X125673561Y-93307413D01*
X125842587Y-93476439D01*
X125975390Y-93675192D01*
X126066866Y-93896035D01*
X126080669Y-93965430D01*
X126107912Y-94102385D01*
X126113500Y-94130481D01*
X126113500Y-94369519D01*
X126066866Y-94603965D01*
X125975390Y-94824808D01*
X125842587Y-95023561D01*
X125673561Y-95192587D01*
X125474808Y-95325390D01*
X125253965Y-95416866D01*
X125175816Y-95432411D01*
X125019521Y-95463500D01*
X124780479Y-95463500D01*
X124624184Y-95432411D01*
X124546035Y-95416866D01*
X124325192Y-95325390D01*
X124126439Y-95192587D01*
X123957413Y-95023561D01*
X123824610Y-94824808D01*
X123733134Y-94603965D01*
X123686500Y-94369519D01*
X123686500Y-94130481D01*
X123692089Y-94102385D01*
X123719331Y-93965430D01*
X123733134Y-93896035D01*
X123824610Y-93675192D01*
X123957413Y-93476439D01*
X124126439Y-93307413D01*
X124325192Y-93174610D01*
X124546035Y-93083134D01*
X124624184Y-93067589D01*
X124780479Y-93036500D01*
X125019521Y-93036500D01*
X125175816Y-93067589D01*
X125175816Y-93067589D01*
G37*
G36*
X145162383Y-93662489D02*
G01*
X145162386Y-93662490D01*
X145162385Y-93662490D01*
X145226258Y-93688946D01*
X145283748Y-93727360D01*
X145332640Y-93776252D01*
X145371054Y-93833742D01*
X145392624Y-93885818D01*
X145397511Y-93897617D01*
X145411000Y-93965430D01*
X145411000Y-94034570D01*
X145397511Y-94102383D01*
X145397510Y-94102385D01*
X145371054Y-94166258D01*
X145332640Y-94223748D01*
X145283748Y-94272640D01*
X145226258Y-94311054D01*
X145174182Y-94332624D01*
X145162383Y-94337511D01*
X145094570Y-94351000D01*
X145025430Y-94351000D01*
X144957617Y-94337511D01*
X144945818Y-94332624D01*
X144893742Y-94311054D01*
X144836252Y-94272640D01*
X144787360Y-94223748D01*
X144748946Y-94166258D01*
X144722490Y-94102385D01*
X144722489Y-94102383D01*
X144709000Y-94034570D01*
X144709000Y-93965430D01*
X144722489Y-93897617D01*
X144727376Y-93885818D01*
X144748946Y-93833742D01*
X144787360Y-93776252D01*
X144836252Y-93727360D01*
X144893742Y-93688946D01*
X144957615Y-93662490D01*
X144957614Y-93662490D01*
X144957617Y-93662489D01*
X145025430Y-93649000D01*
X145094570Y-93649000D01*
X145162383Y-93662489D01*
X145162383Y-93662489D01*
G37*
G36*
X68346189Y-87210483D02*
G01*
X68874137Y-87429166D01*
X68874139Y-87429167D01*
X69349280Y-87746646D01*
X69753354Y-88150720D01*
X70070833Y-88625861D01*
X70070834Y-88625863D01*
X70289517Y-89153811D01*
X70401000Y-89714275D01*
X70401000Y-90285725D01*
X70289517Y-90846189D01*
X70289516Y-90846191D01*
X70070833Y-91374139D01*
X69753354Y-91849280D01*
X69349280Y-92253354D01*
X68874139Y-92570833D01*
X68874138Y-92570834D01*
X68874137Y-92570834D01*
X68346189Y-92789517D01*
X67785725Y-92901000D01*
X67214275Y-92901000D01*
X66653811Y-92789517D01*
X66125863Y-92570834D01*
X66125862Y-92570834D01*
X66125861Y-92570833D01*
X65650720Y-92253354D01*
X65246646Y-91849280D01*
X64929167Y-91374139D01*
X64710484Y-90846191D01*
X64710483Y-90846189D01*
X64599000Y-90285725D01*
X64599000Y-89714275D01*
X64710483Y-89153811D01*
X64929166Y-88625863D01*
X64929167Y-88625861D01*
X65246646Y-88150720D01*
X65650720Y-87746646D01*
X66125861Y-87429167D01*
X66125863Y-87429166D01*
X66653811Y-87210483D01*
X67214275Y-87099000D01*
X67785725Y-87099000D01*
X68346189Y-87210483D01*
X68346189Y-87210483D01*
G37*
G36*
X135846189Y-87210483D02*
G01*
X136374137Y-87429166D01*
X136374139Y-87429167D01*
X136849280Y-87746646D01*
X137253354Y-88150720D01*
X137570833Y-88625861D01*
X137570834Y-88625863D01*
X137789517Y-89153811D01*
X137901000Y-89714275D01*
X137901000Y-90285725D01*
X137789517Y-90846189D01*
X137789516Y-90846191D01*
X137570833Y-91374139D01*
X137253354Y-91849280D01*
X136849280Y-92253354D01*
X136374139Y-92570833D01*
X136374138Y-92570834D01*
X136374137Y-92570834D01*
X135846189Y-92789517D01*
X135285725Y-92901000D01*
X134714275Y-92901000D01*
X134153811Y-92789517D01*
X133625863Y-92570834D01*
X133625862Y-92570834D01*
X133625861Y-92570833D01*
X133150720Y-92253354D01*
X132746646Y-91849280D01*
X132429167Y-91374139D01*
X132210484Y-90846191D01*
X132210483Y-90846189D01*
X132099000Y-90285725D01*
X132099000Y-89714275D01*
X132210483Y-89153811D01*
X132429166Y-88625863D01*
X132429167Y-88625861D01*
X132746646Y-88150720D01*
X133150720Y-87746646D01*
X133625861Y-87429167D01*
X133625863Y-87429166D01*
X134153811Y-87210483D01*
X134714275Y-87099000D01*
X135285725Y-87099000D01*
X135846189Y-87210483D01*
X135846189Y-87210483D01*
G37*
G36*
X144281560Y-85369064D02*
G01*
X144433027Y-85399193D01*
X144647045Y-85487842D01*
X144647046Y-85487843D01*
X144839654Y-85616539D01*
X145003461Y-85780346D01*
X145089258Y-85908751D01*
X145132158Y-85972955D01*
X145220807Y-86186973D01*
X145266000Y-86414174D01*
X145266000Y-86645826D01*
X145220807Y-86873027D01*
X145132158Y-87087045D01*
X145132157Y-87087046D01*
X145003461Y-87279654D01*
X144839654Y-87443461D01*
X144711249Y-87529258D01*
X144647045Y-87572158D01*
X144433027Y-87660807D01*
X144281560Y-87690936D01*
X144205827Y-87706000D01*
X143974173Y-87706000D01*
X143898440Y-87690936D01*
X143746973Y-87660807D01*
X143532955Y-87572158D01*
X143468751Y-87529258D01*
X143340346Y-87443461D01*
X143176539Y-87279654D01*
X143047843Y-87087046D01*
X143047842Y-87087045D01*
X142959193Y-86873027D01*
X142914000Y-86645826D01*
X142914000Y-86414174D01*
X142959193Y-86186973D01*
X143047842Y-85972955D01*
X143090742Y-85908751D01*
X143176539Y-85780346D01*
X143340346Y-85616539D01*
X143532954Y-85487843D01*
X143532955Y-85487842D01*
X143746973Y-85399193D01*
X143898440Y-85369064D01*
X143974173Y-85354000D01*
X144205827Y-85354000D01*
X144281560Y-85369064D01*
X144281560Y-85369064D01*
G37*
G36*
X124211808Y-83606648D02*
G01*
X124363551Y-83652678D01*
X124503398Y-83727428D01*
X124625975Y-83828025D01*
X124726572Y-83950602D01*
X124801322Y-84090449D01*
X124847352Y-84242192D01*
X124862895Y-84400000D01*
X124847352Y-84557808D01*
X124801322Y-84709551D01*
X124726572Y-84849398D01*
X124625975Y-84971975D01*
X124503398Y-85072572D01*
X124363551Y-85147322D01*
X124211808Y-85193352D01*
X124093546Y-85205000D01*
X122506454Y-85205000D01*
X122388192Y-85193352D01*
X122236449Y-85147322D01*
X122096602Y-85072572D01*
X121974025Y-84971975D01*
X121873428Y-84849398D01*
X121798678Y-84709551D01*
X121752648Y-84557808D01*
X121737105Y-84400000D01*
X121752648Y-84242192D01*
X121798678Y-84090449D01*
X121873428Y-83950602D01*
X121974025Y-83828025D01*
X122096602Y-83727428D01*
X122236449Y-83652678D01*
X122388192Y-83606648D01*
X122506454Y-83595000D01*
X124093546Y-83595000D01*
X124211808Y-83606648D01*
X124211808Y-83606648D01*
G37*
G36*
X90111808Y-83506648D02*
G01*
X90263551Y-83552678D01*
X90403398Y-83627428D01*
X90525975Y-83728025D01*
X90626572Y-83850602D01*
X90701322Y-83990449D01*
X90747352Y-84142192D01*
X90762895Y-84300000D01*
X90747352Y-84457808D01*
X90701322Y-84609551D01*
X90626572Y-84749398D01*
X90525975Y-84871975D01*
X90403398Y-84972572D01*
X90263551Y-85047322D01*
X90111808Y-85093352D01*
X89993546Y-85105000D01*
X88406454Y-85105000D01*
X88288192Y-85093352D01*
X88136449Y-85047322D01*
X87996602Y-84972572D01*
X87874025Y-84871975D01*
X87773428Y-84749398D01*
X87698678Y-84609551D01*
X87652648Y-84457808D01*
X87637105Y-84300000D01*
X87652648Y-84142192D01*
X87698678Y-83990449D01*
X87773428Y-83850602D01*
X87874025Y-83728025D01*
X87996602Y-83627428D01*
X88136449Y-83552678D01*
X88288192Y-83506648D01*
X88406454Y-83495000D01*
X89993546Y-83495000D01*
X90111808Y-83506648D01*
X90111808Y-83506648D01*
G37*
G36*
X76023500Y-83283500D02*
G01*
X73596500Y-83283500D01*
X73596500Y-80856500D01*
X76023500Y-80856500D01*
X76023500Y-83283500D01*
X76023500Y-83283500D01*
G37*
G36*
X144281560Y-80369064D02*
G01*
X144433027Y-80399193D01*
X144647045Y-80487842D01*
X144647046Y-80487843D01*
X144839654Y-80616539D01*
X145003461Y-80780346D01*
X145054345Y-80856500D01*
X145132158Y-80972955D01*
X145220807Y-81186973D01*
X145266000Y-81414174D01*
X145266000Y-81645826D01*
X145220807Y-81873027D01*
X145132158Y-82087045D01*
X145132157Y-82087046D01*
X145003461Y-82279654D01*
X144839654Y-82443461D01*
X144711249Y-82529258D01*
X144647045Y-82572158D01*
X144433027Y-82660807D01*
X144281560Y-82690936D01*
X144205827Y-82706000D01*
X143974173Y-82706000D01*
X143898440Y-82690936D01*
X143746973Y-82660807D01*
X143532955Y-82572158D01*
X143468751Y-82529258D01*
X143340346Y-82443461D01*
X143176539Y-82279654D01*
X143047843Y-82087046D01*
X143047842Y-82087045D01*
X142959193Y-81873027D01*
X142914000Y-81645826D01*
X142914000Y-81414174D01*
X142959193Y-81186973D01*
X143047842Y-80972955D01*
X143125655Y-80856500D01*
X143176539Y-80780346D01*
X143340346Y-80616539D01*
X143532954Y-80487843D01*
X143532955Y-80487842D01*
X143746973Y-80399193D01*
X143898440Y-80369064D01*
X143974173Y-80354000D01*
X144205827Y-80354000D01*
X144281560Y-80369064D01*
X144281560Y-80369064D01*
G37*
G36*
X126211808Y-79906648D02*
G01*
X126363551Y-79952678D01*
X126503398Y-80027428D01*
X126625975Y-80128025D01*
X126726572Y-80250602D01*
X126801322Y-80390449D01*
X126847352Y-80542192D01*
X126862895Y-80700000D01*
X126847352Y-80857808D01*
X126801322Y-81009551D01*
X126726572Y-81149398D01*
X126625975Y-81271975D01*
X126503398Y-81372572D01*
X126363551Y-81447322D01*
X126211808Y-81493352D01*
X126093546Y-81505000D01*
X124506454Y-81505000D01*
X124388192Y-81493352D01*
X124236449Y-81447322D01*
X124096602Y-81372572D01*
X123974025Y-81271975D01*
X123873428Y-81149398D01*
X123798678Y-81009551D01*
X123752648Y-80857808D01*
X123737105Y-80700000D01*
X123752648Y-80542192D01*
X123798678Y-80390449D01*
X123873428Y-80250602D01*
X123974025Y-80128025D01*
X124096602Y-80027428D01*
X124236449Y-79952678D01*
X124388192Y-79906648D01*
X124506454Y-79895000D01*
X126093546Y-79895000D01*
X126211808Y-79906648D01*
X126211808Y-79906648D01*
G37*
G36*
X92111808Y-79806648D02*
G01*
X92263551Y-79852678D01*
X92403398Y-79927428D01*
X92525975Y-80028025D01*
X92626572Y-80150602D01*
X92701322Y-80290449D01*
X92747352Y-80442192D01*
X92762895Y-80600000D01*
X92747352Y-80757808D01*
X92701322Y-80909551D01*
X92626572Y-81049398D01*
X92525975Y-81171975D01*
X92403398Y-81272572D01*
X92263551Y-81347322D01*
X92111808Y-81393352D01*
X91993546Y-81405000D01*
X90406454Y-81405000D01*
X90288192Y-81393352D01*
X90136449Y-81347322D01*
X89996602Y-81272572D01*
X89874025Y-81171975D01*
X89773428Y-81049398D01*
X89698678Y-80909551D01*
X89652648Y-80757808D01*
X89637105Y-80600000D01*
X89652648Y-80442192D01*
X89698678Y-80290449D01*
X89773428Y-80150602D01*
X89874025Y-80028025D01*
X89996602Y-79927428D01*
X90136449Y-79852678D01*
X90288192Y-79806648D01*
X90406454Y-79795000D01*
X91993546Y-79795000D01*
X92111808Y-79806648D01*
X92111808Y-79806648D01*
G37*
G36*
X70085816Y-77387589D02*
G01*
X70163965Y-77403134D01*
X70384808Y-77494610D01*
X70583561Y-77627413D01*
X70752587Y-77796439D01*
X70885390Y-77995192D01*
X70976866Y-78216035D01*
X70976866Y-78216036D01*
X71023500Y-78450479D01*
X71023500Y-78689521D01*
X71001524Y-78800000D01*
X70976866Y-78923965D01*
X70885390Y-79144808D01*
X70752587Y-79343561D01*
X70583561Y-79512587D01*
X70384808Y-79645390D01*
X70163965Y-79736866D01*
X70085816Y-79752411D01*
X69929521Y-79783500D01*
X69690479Y-79783500D01*
X69534184Y-79752411D01*
X69456035Y-79736866D01*
X69235192Y-79645390D01*
X69036439Y-79512587D01*
X68867413Y-79343561D01*
X68734610Y-79144808D01*
X68643134Y-78923965D01*
X68618476Y-78800000D01*
X68596500Y-78689521D01*
X68596500Y-78450479D01*
X68643134Y-78216036D01*
X68643134Y-78216035D01*
X68734610Y-77995192D01*
X68867413Y-77796439D01*
X69036439Y-77627413D01*
X69235192Y-77494610D01*
X69456035Y-77403134D01*
X69534184Y-77387589D01*
X69690479Y-77356500D01*
X69929521Y-77356500D01*
X70085816Y-77387589D01*
X70085816Y-77387589D01*
G37*
G36*
X124211808Y-78106648D02*
G01*
X124363551Y-78152678D01*
X124503398Y-78227428D01*
X124625975Y-78328025D01*
X124726572Y-78450602D01*
X124801322Y-78590449D01*
X124847352Y-78742192D01*
X124862895Y-78900000D01*
X124847352Y-79057808D01*
X124801322Y-79209551D01*
X124726572Y-79349398D01*
X124625975Y-79471975D01*
X124503398Y-79572572D01*
X124363551Y-79647322D01*
X124211808Y-79693352D01*
X124093546Y-79705000D01*
X122506454Y-79705000D01*
X122388192Y-79693352D01*
X122236449Y-79647322D01*
X122096602Y-79572572D01*
X121974025Y-79471975D01*
X121873428Y-79349398D01*
X121798678Y-79209551D01*
X121752648Y-79057808D01*
X121737105Y-78900000D01*
X121752648Y-78742192D01*
X121798678Y-78590449D01*
X121873428Y-78450602D01*
X121974025Y-78328025D01*
X122096602Y-78227428D01*
X122236449Y-78152678D01*
X122388192Y-78106648D01*
X122506454Y-78095000D01*
X124093546Y-78095000D01*
X124211808Y-78106648D01*
X124211808Y-78106648D01*
G37*
G36*
X90111808Y-78006648D02*
G01*
X90263551Y-78052678D01*
X90403398Y-78127428D01*
X90525975Y-78228025D01*
X90626572Y-78350602D01*
X90701322Y-78490449D01*
X90747352Y-78642192D01*
X90762895Y-78800000D01*
X90747352Y-78957808D01*
X90701322Y-79109551D01*
X90626572Y-79249398D01*
X90525975Y-79371975D01*
X90403398Y-79472572D01*
X90263551Y-79547322D01*
X90111808Y-79593352D01*
X89993546Y-79605000D01*
X88406454Y-79605000D01*
X88288192Y-79593352D01*
X88136449Y-79547322D01*
X87996602Y-79472572D01*
X87874025Y-79371975D01*
X87773428Y-79249398D01*
X87698678Y-79109551D01*
X87652648Y-78957808D01*
X87637105Y-78800000D01*
X87652648Y-78642192D01*
X87698678Y-78490449D01*
X87773428Y-78350602D01*
X87874025Y-78228025D01*
X87996602Y-78127428D01*
X88136449Y-78052678D01*
X88288192Y-78006648D01*
X88406454Y-77995000D01*
X89993546Y-77995000D01*
X90111808Y-78006648D01*
X90111808Y-78006648D01*
G37*
G36*
X144281560Y-75369064D02*
G01*
X144433027Y-75399193D01*
X144647045Y-75487842D01*
X144711249Y-75530742D01*
X144839654Y-75616539D01*
X145003461Y-75780346D01*
X145065084Y-75872572D01*
X145132158Y-75972955D01*
X145220807Y-76186973D01*
X145266000Y-76414174D01*
X145266000Y-76645826D01*
X145220807Y-76873027D01*
X145132158Y-77087045D01*
X145132157Y-77087046D01*
X145003461Y-77279654D01*
X144839654Y-77443461D01*
X144711249Y-77529258D01*
X144647045Y-77572158D01*
X144433027Y-77660807D01*
X144281560Y-77690936D01*
X144205827Y-77706000D01*
X143974173Y-77706000D01*
X143898440Y-77690936D01*
X143746973Y-77660807D01*
X143532955Y-77572158D01*
X143468751Y-77529258D01*
X143340346Y-77443461D01*
X143176539Y-77279654D01*
X143047843Y-77087046D01*
X143047842Y-77087045D01*
X142959193Y-76873027D01*
X142914000Y-76645826D01*
X142914000Y-76414174D01*
X142959193Y-76186973D01*
X143047842Y-75972955D01*
X143114916Y-75872572D01*
X143176539Y-75780346D01*
X143340346Y-75616539D01*
X143468751Y-75530742D01*
X143532955Y-75487842D01*
X143746973Y-75399193D01*
X143898440Y-75369064D01*
X143974173Y-75354000D01*
X144205827Y-75354000D01*
X144281560Y-75369064D01*
X144281560Y-75369064D01*
G37*
G36*
X126211808Y-74406648D02*
G01*
X126363551Y-74452678D01*
X126503398Y-74527428D01*
X126625975Y-74628025D01*
X126726572Y-74750602D01*
X126801322Y-74890449D01*
X126847352Y-75042192D01*
X126862895Y-75200000D01*
X126847352Y-75357808D01*
X126801322Y-75509551D01*
X126726572Y-75649398D01*
X126625975Y-75771975D01*
X126503398Y-75872572D01*
X126363551Y-75947322D01*
X126211808Y-75993352D01*
X126093546Y-76005000D01*
X124506454Y-76005000D01*
X124388192Y-75993352D01*
X124236449Y-75947322D01*
X124096602Y-75872572D01*
X123974025Y-75771975D01*
X123873428Y-75649398D01*
X123798678Y-75509551D01*
X123752648Y-75357808D01*
X123737105Y-75200000D01*
X123752648Y-75042192D01*
X123798678Y-74890449D01*
X123873428Y-74750602D01*
X123974025Y-74628025D01*
X124096602Y-74527428D01*
X124236449Y-74452678D01*
X124388192Y-74406648D01*
X124506454Y-74395000D01*
X126093546Y-74395000D01*
X126211808Y-74406648D01*
X126211808Y-74406648D01*
G37*
G36*
X92111808Y-74306648D02*
G01*
X92263551Y-74352678D01*
X92403398Y-74427428D01*
X92525975Y-74528025D01*
X92626572Y-74650602D01*
X92701322Y-74790449D01*
X92747352Y-74942192D01*
X92762895Y-75100000D01*
X92747352Y-75257808D01*
X92701322Y-75409551D01*
X92626572Y-75549398D01*
X92525975Y-75671975D01*
X92403398Y-75772572D01*
X92263551Y-75847322D01*
X92111808Y-75893352D01*
X91993546Y-75905000D01*
X90406454Y-75905000D01*
X90288192Y-75893352D01*
X90136449Y-75847322D01*
X89996602Y-75772572D01*
X89874025Y-75671975D01*
X89773428Y-75549398D01*
X89698678Y-75409551D01*
X89652648Y-75257808D01*
X89637105Y-75100000D01*
X89652648Y-74942192D01*
X89698678Y-74790449D01*
X89773428Y-74650602D01*
X89874025Y-74528025D01*
X89996602Y-74427428D01*
X90136449Y-74352678D01*
X90288192Y-74306648D01*
X90406454Y-74295000D01*
X91993546Y-74295000D01*
X92111808Y-74306648D01*
X92111808Y-74306648D01*
G37*
G36*
X124211808Y-72006648D02*
G01*
X124363551Y-72052678D01*
X124503398Y-72127428D01*
X124625975Y-72228025D01*
X124726572Y-72350602D01*
X124801322Y-72490449D01*
X124847352Y-72642192D01*
X124862895Y-72800000D01*
X124847352Y-72957808D01*
X124801322Y-73109551D01*
X124726572Y-73249398D01*
X124625975Y-73371975D01*
X124503398Y-73472572D01*
X124363551Y-73547322D01*
X124211808Y-73593352D01*
X124093546Y-73605000D01*
X122506454Y-73605000D01*
X122388192Y-73593352D01*
X122236449Y-73547322D01*
X122096602Y-73472572D01*
X121974025Y-73371975D01*
X121873428Y-73249398D01*
X121798678Y-73109551D01*
X121752648Y-72957808D01*
X121737105Y-72800000D01*
X121752648Y-72642192D01*
X121798678Y-72490449D01*
X121873428Y-72350602D01*
X121974025Y-72228025D01*
X122096602Y-72127428D01*
X122236449Y-72052678D01*
X122388192Y-72006648D01*
X122506454Y-71995000D01*
X124093546Y-71995000D01*
X124211808Y-72006648D01*
X124211808Y-72006648D01*
G37*
G36*
X90111808Y-71906648D02*
G01*
X90263551Y-71952678D01*
X90403398Y-72027428D01*
X90525975Y-72128025D01*
X90626572Y-72250602D01*
X90701322Y-72390449D01*
X90747352Y-72542192D01*
X90762895Y-72700000D01*
X90747352Y-72857808D01*
X90701322Y-73009551D01*
X90626572Y-73149398D01*
X90525975Y-73271975D01*
X90403398Y-73372572D01*
X90263551Y-73447322D01*
X90111808Y-73493352D01*
X89993546Y-73505000D01*
X88406454Y-73505000D01*
X88288192Y-73493352D01*
X88136449Y-73447322D01*
X87996602Y-73372572D01*
X87874025Y-73271975D01*
X87773428Y-73149398D01*
X87698678Y-73009551D01*
X87652648Y-72857808D01*
X87637105Y-72700000D01*
X87652648Y-72542192D01*
X87698678Y-72390449D01*
X87773428Y-72250602D01*
X87874025Y-72128025D01*
X87996602Y-72027428D01*
X88136449Y-71952678D01*
X88288192Y-71906648D01*
X88406454Y-71895000D01*
X89993546Y-71895000D01*
X90111808Y-71906648D01*
X90111808Y-71906648D01*
G37*
M02*
