G04 #@! TF.GenerationSoftware,KiCad,Pcbnew,(5.1.4)-1*
G04 #@! TF.CreationDate,2020-01-01T19:34:10-05:00*
G04 #@! TF.ProjectId,Board,426f6172-642e-46b6-9963-61645f706362,rev?*
G04 #@! TF.SameCoordinates,Original*
G04 #@! TF.FileFunction,Copper,L2,Bot*
G04 #@! TF.FilePolarity,Positive*
%FSLAX46Y46*%
G04 Gerber Fmt 4.6, Leading zero omitted, Abs format (unit mm)*
G04 Created by KiCad (PCBNEW (5.1.4)-1) date 2020-01-01 19:34:10*
%MOMM*%
%LPD*%
G04 APERTURE LIST*
%ADD10O,1.700000X1.700000*%
%ADD11R,1.700000X1.700000*%
%ADD12O,3.016000X1.508000*%
%ADD13C,0.600000*%
%ADD14O,1.508000X3.016000*%
%ADD15C,5.700000*%
%ADD16C,2.325000*%
%ADD17R,2.325000X2.325000*%
%ADD18C,2.250000*%
%ADD19C,0.800000*%
%ADD20C,1.000000*%
%ADD21C,0.250000*%
%ADD22C,0.500000*%
%ADD23C,0.254000*%
G04 APERTURE END LIST*
D10*
X136600000Y-101940000D03*
D11*
X136600000Y-99400000D03*
D12*
X123300000Y-84400000D03*
X125300000Y-80700000D03*
X123300000Y-78900000D03*
X125300000Y-75200000D03*
X123300000Y-72800000D03*
D13*
X145060000Y-94000000D03*
X145060000Y-98000000D03*
D12*
X89200000Y-84300000D03*
X91200000Y-80600000D03*
X89200000Y-78800000D03*
X91200000Y-75100000D03*
X89200000Y-72700000D03*
D14*
X74500000Y-100850000D03*
X70800000Y-98850000D03*
X69000000Y-100850000D03*
X65300000Y-98850000D03*
X62900000Y-100850000D03*
D15*
X67500000Y-137500000D03*
X135000000Y-90000000D03*
X67500000Y-90000000D03*
D10*
X73970000Y-136980000D03*
X73970000Y-134440000D03*
X73970000Y-131900000D03*
X73970000Y-129360000D03*
X73970000Y-126820000D03*
X73970000Y-124280000D03*
D11*
X73970000Y-121740000D03*
D10*
X144130000Y-130480000D03*
X144130000Y-127940000D03*
X144130000Y-125400000D03*
D11*
X144130000Y-122860000D03*
X104800000Y-141350000D03*
D10*
X132820000Y-136100000D03*
X132820000Y-138640000D03*
D11*
X132820000Y-141180000D03*
X73830000Y-115350000D03*
X110130000Y-141390000D03*
X122600000Y-106400000D03*
X128930000Y-106480000D03*
D10*
X142270000Y-141610000D03*
D11*
X139730000Y-141610000D03*
D16*
X69810000Y-78570000D03*
D17*
X74810000Y-82070000D03*
D16*
X124900000Y-94250000D03*
D17*
X121400000Y-99250000D03*
D18*
X144090000Y-86530000D03*
X144090000Y-76530000D03*
X144090000Y-81530000D03*
D19*
X94530000Y-116370000D03*
X105990000Y-134880000D03*
X95360000Y-130860000D03*
X127000000Y-117560000D03*
X127118000Y-122232000D03*
X118262000Y-131308000D03*
X111510000Y-127110000D03*
X95080000Y-121190000D03*
X111780000Y-121470000D03*
X113240000Y-118160000D03*
X86570000Y-117160000D03*
X127840000Y-114540000D03*
X139131000Y-115721000D03*
X107430000Y-108990000D03*
X98550000Y-113491000D03*
X112175000Y-96555000D03*
X105210000Y-96750000D03*
X96810000Y-92860000D03*
X81430000Y-92810000D03*
X108650000Y-77960000D03*
X108700000Y-92540000D03*
X142850000Y-111450000D03*
X142100000Y-94700000D03*
X84000000Y-109000000D03*
X85330000Y-118620000D03*
X86060000Y-120940000D03*
X78900000Y-120960000D03*
X78870000Y-131580000D03*
X130050000Y-122470000D03*
X89000000Y-113380000D03*
X91830000Y-113380000D03*
X128440000Y-126770000D03*
X100120000Y-105910000D03*
X106810000Y-107050000D03*
X100920000Y-128650000D03*
X95410000Y-127580000D03*
X100320000Y-126550000D03*
X95750000Y-125030000D03*
X100310000Y-127660000D03*
X95500000Y-126320000D03*
X113240000Y-115380000D03*
X110700000Y-115690000D03*
X108730000Y-135270000D03*
X108730000Y-137350000D03*
X107620000Y-129250000D03*
X109190000Y-129250000D03*
X95928000Y-129402000D03*
X99690000Y-129410000D03*
X115320000Y-137090000D03*
X113100000Y-137080000D03*
X107430000Y-135300000D03*
X107430000Y-137310000D03*
D20*
X78500001Y-121359999D02*
X78500001Y-131210001D01*
X78900000Y-120960000D02*
X78500001Y-121359999D01*
X78500001Y-131210001D02*
X78870000Y-131580000D01*
X78870000Y-131580000D02*
X78870000Y-131580000D01*
X130050000Y-122470000D02*
X130050000Y-122470000D01*
X86060000Y-120940000D02*
X85310000Y-120190000D01*
X85330000Y-120170000D02*
X85330000Y-118620000D01*
X85310000Y-120190000D02*
X85330000Y-120170000D01*
X91830000Y-113380000D02*
X89000000Y-113380000D01*
X130050000Y-125160000D02*
X128440000Y-126770000D01*
X130050000Y-122470000D02*
X130050000Y-125160000D01*
X101260000Y-107050000D02*
X100120000Y-105910000D01*
X101260000Y-107050000D02*
X106810000Y-107050000D01*
D21*
X95410000Y-127580000D02*
X95410000Y-127580000D01*
D22*
X95809999Y-127979999D02*
X95410000Y-127580000D01*
X96340001Y-128510001D02*
X95809999Y-127979999D01*
X100048003Y-128510001D02*
X96340001Y-128510001D01*
X100188002Y-128650000D02*
X100048003Y-128510001D01*
X100920000Y-128650000D02*
X100188002Y-128650000D01*
D21*
X95750000Y-125030000D02*
X95750000Y-125030000D01*
D22*
X97270000Y-126550000D02*
X95750000Y-125030000D01*
X100320000Y-126550000D02*
X97270000Y-126550000D01*
D21*
X95500000Y-126320000D02*
X95500000Y-126320000D01*
D22*
X96840000Y-127660000D02*
X95500000Y-126320000D01*
X100310000Y-127660000D02*
X96840000Y-127660000D01*
D20*
X111010000Y-115380000D02*
X110700000Y-115690000D01*
X113240000Y-115380000D02*
X111010000Y-115380000D01*
D21*
X108730000Y-137220000D02*
X108730000Y-137350000D01*
X108730000Y-137350000D02*
X108730000Y-137350000D01*
D22*
X108730000Y-135270000D02*
X108730000Y-137350000D01*
D21*
X109060000Y-129250000D02*
X109190000Y-129250000D01*
X109190000Y-129250000D02*
X109190000Y-129250000D01*
D20*
X109190000Y-129250000D02*
X107620000Y-129250000D01*
D21*
X96493685Y-129402000D02*
X96501685Y-129410000D01*
X95928000Y-129402000D02*
X96493685Y-129402000D01*
X99510000Y-129410000D02*
X99690000Y-129410000D01*
X99690000Y-129410000D02*
X99690000Y-129410000D01*
D22*
X95936000Y-129410000D02*
X95928000Y-129402000D01*
X99690000Y-129410000D02*
X95936000Y-129410000D01*
D21*
X113100000Y-137080000D02*
X113100000Y-137080000D01*
D20*
X113110000Y-137090000D02*
X113100000Y-137080000D01*
X115320000Y-137090000D02*
X113110000Y-137090000D01*
D21*
X107430000Y-137310000D02*
X107430000Y-137310000D01*
D22*
X107430000Y-135300000D02*
X107430000Y-137310000D01*
D23*
G36*
X145768083Y-70731173D02*
G01*
X146511891Y-70934656D01*
X147207905Y-71266638D01*
X147834130Y-71716626D01*
X148370777Y-72270403D01*
X148800871Y-72910451D01*
X149110829Y-73616553D01*
X149292065Y-74371457D01*
X149340001Y-75024220D01*
X149340000Y-139970608D01*
X149268827Y-140768083D01*
X149065344Y-141511890D01*
X148733363Y-142207904D01*
X148283374Y-142834130D01*
X147729597Y-143370777D01*
X147089549Y-143800871D01*
X146383447Y-144110829D01*
X145628543Y-144292065D01*
X144975793Y-144340000D01*
X65029392Y-144340000D01*
X64231917Y-144268827D01*
X63488110Y-144065344D01*
X62792096Y-143733363D01*
X62165870Y-143283374D01*
X61629223Y-142729597D01*
X61199129Y-142089549D01*
X60889171Y-141383447D01*
X60707935Y-140628543D01*
X60660000Y-139975793D01*
X60660000Y-139952033D01*
X65227572Y-139952033D01*
X65545757Y-140405850D01*
X66150210Y-140731269D01*
X66806535Y-140932512D01*
X67489510Y-141001845D01*
X68172888Y-140936605D01*
X68830407Y-140739298D01*
X69281345Y-140500000D01*
X103311928Y-140500000D01*
X103311928Y-142200000D01*
X103324188Y-142324482D01*
X103360498Y-142444180D01*
X103419463Y-142554494D01*
X103498815Y-142651185D01*
X103595506Y-142730537D01*
X103705820Y-142789502D01*
X103825518Y-142825812D01*
X103950000Y-142838072D01*
X105650000Y-142838072D01*
X105774482Y-142825812D01*
X105894180Y-142789502D01*
X106004494Y-142730537D01*
X106101185Y-142651185D01*
X106180537Y-142554494D01*
X106239502Y-142444180D01*
X106275812Y-142324482D01*
X106288072Y-142200000D01*
X106288072Y-140540000D01*
X108641928Y-140540000D01*
X108641928Y-142240000D01*
X108654188Y-142364482D01*
X108690498Y-142484180D01*
X108749463Y-142594494D01*
X108828815Y-142691185D01*
X108925506Y-142770537D01*
X109035820Y-142829502D01*
X109155518Y-142865812D01*
X109280000Y-142878072D01*
X110980000Y-142878072D01*
X111104482Y-142865812D01*
X111224180Y-142829502D01*
X111334494Y-142770537D01*
X111431185Y-142691185D01*
X111510537Y-142594494D01*
X111569502Y-142484180D01*
X111605812Y-142364482D01*
X111618072Y-142240000D01*
X111618072Y-140540000D01*
X111605812Y-140415518D01*
X111569502Y-140295820D01*
X111510537Y-140185506D01*
X111431185Y-140088815D01*
X111334494Y-140009463D01*
X111224180Y-139950498D01*
X111104482Y-139914188D01*
X110980000Y-139901928D01*
X109280000Y-139901928D01*
X109155518Y-139914188D01*
X109035820Y-139950498D01*
X108925506Y-140009463D01*
X108828815Y-140088815D01*
X108749463Y-140185506D01*
X108690498Y-140295820D01*
X108654188Y-140415518D01*
X108641928Y-140540000D01*
X106288072Y-140540000D01*
X106288072Y-140500000D01*
X106275812Y-140375518D01*
X106239502Y-140255820D01*
X106180537Y-140145506D01*
X106101185Y-140048815D01*
X106004494Y-139969463D01*
X105894180Y-139910498D01*
X105774482Y-139874188D01*
X105650000Y-139861928D01*
X103950000Y-139861928D01*
X103825518Y-139874188D01*
X103705820Y-139910498D01*
X103595506Y-139969463D01*
X103498815Y-140048815D01*
X103419463Y-140145506D01*
X103360498Y-140255820D01*
X103324188Y-140375518D01*
X103311928Y-140500000D01*
X69281345Y-140500000D01*
X69436799Y-140417506D01*
X69454243Y-140405850D01*
X69772428Y-139952033D01*
X67500000Y-137679605D01*
X65227572Y-139952033D01*
X60660000Y-139952033D01*
X60660000Y-137489510D01*
X63998155Y-137489510D01*
X64063395Y-138172888D01*
X64260702Y-138830407D01*
X64582494Y-139436799D01*
X64594150Y-139454243D01*
X65047967Y-139772428D01*
X67320395Y-137500000D01*
X67679605Y-137500000D01*
X69952033Y-139772428D01*
X70405850Y-139454243D01*
X70731269Y-138849790D01*
X70795595Y-138640000D01*
X131327815Y-138640000D01*
X131356487Y-138931111D01*
X131441401Y-139211034D01*
X131579294Y-139469014D01*
X131764866Y-139695134D01*
X131794687Y-139719607D01*
X131725820Y-139740498D01*
X131615506Y-139799463D01*
X131518815Y-139878815D01*
X131439463Y-139975506D01*
X131380498Y-140085820D01*
X131344188Y-140205518D01*
X131331928Y-140330000D01*
X131331928Y-142030000D01*
X131344188Y-142154482D01*
X131380498Y-142274180D01*
X131439463Y-142384494D01*
X131518815Y-142481185D01*
X131615506Y-142560537D01*
X131725820Y-142619502D01*
X131845518Y-142655812D01*
X131970000Y-142668072D01*
X133670000Y-142668072D01*
X133794482Y-142655812D01*
X133914180Y-142619502D01*
X134024494Y-142560537D01*
X134121185Y-142481185D01*
X134200537Y-142384494D01*
X134259502Y-142274180D01*
X134295812Y-142154482D01*
X134308072Y-142030000D01*
X134308072Y-140760000D01*
X138241928Y-140760000D01*
X138241928Y-142460000D01*
X138254188Y-142584482D01*
X138290498Y-142704180D01*
X138349463Y-142814494D01*
X138428815Y-142911185D01*
X138525506Y-142990537D01*
X138635820Y-143049502D01*
X138755518Y-143085812D01*
X138880000Y-143098072D01*
X140580000Y-143098072D01*
X140704482Y-143085812D01*
X140824180Y-143049502D01*
X140934494Y-142990537D01*
X141031185Y-142911185D01*
X141110537Y-142814494D01*
X141169502Y-142704180D01*
X141190393Y-142635313D01*
X141214866Y-142665134D01*
X141440986Y-142850706D01*
X141698966Y-142988599D01*
X141978889Y-143073513D01*
X142197050Y-143095000D01*
X142342950Y-143095000D01*
X142561111Y-143073513D01*
X142841034Y-142988599D01*
X143099014Y-142850706D01*
X143325134Y-142665134D01*
X143510706Y-142439014D01*
X143648599Y-142181034D01*
X143733513Y-141901111D01*
X143762185Y-141610000D01*
X143733513Y-141318889D01*
X143648599Y-141038966D01*
X143510706Y-140780986D01*
X143325134Y-140554866D01*
X143099014Y-140369294D01*
X142841034Y-140231401D01*
X142561111Y-140146487D01*
X142342950Y-140125000D01*
X142197050Y-140125000D01*
X141978889Y-140146487D01*
X141698966Y-140231401D01*
X141440986Y-140369294D01*
X141214866Y-140554866D01*
X141190393Y-140584687D01*
X141169502Y-140515820D01*
X141110537Y-140405506D01*
X141031185Y-140308815D01*
X140934494Y-140229463D01*
X140824180Y-140170498D01*
X140704482Y-140134188D01*
X140580000Y-140121928D01*
X138880000Y-140121928D01*
X138755518Y-140134188D01*
X138635820Y-140170498D01*
X138525506Y-140229463D01*
X138428815Y-140308815D01*
X138349463Y-140405506D01*
X138290498Y-140515820D01*
X138254188Y-140635518D01*
X138241928Y-140760000D01*
X134308072Y-140760000D01*
X134308072Y-140330000D01*
X134295812Y-140205518D01*
X134259502Y-140085820D01*
X134200537Y-139975506D01*
X134121185Y-139878815D01*
X134024494Y-139799463D01*
X133914180Y-139740498D01*
X133845313Y-139719607D01*
X133875134Y-139695134D01*
X134060706Y-139469014D01*
X134198599Y-139211034D01*
X134283513Y-138931111D01*
X134312185Y-138640000D01*
X134283513Y-138348889D01*
X134198599Y-138068966D01*
X134060706Y-137810986D01*
X133875134Y-137584866D01*
X133649014Y-137399294D01*
X133584477Y-137364799D01*
X133701355Y-137295178D01*
X133917588Y-137100269D01*
X134091641Y-136866920D01*
X134216825Y-136604099D01*
X134261476Y-136456890D01*
X134140155Y-136227000D01*
X132947000Y-136227000D01*
X132947000Y-136247000D01*
X132693000Y-136247000D01*
X132693000Y-136227000D01*
X131499845Y-136227000D01*
X131378524Y-136456890D01*
X131423175Y-136604099D01*
X131548359Y-136866920D01*
X131722412Y-137100269D01*
X131938645Y-137295178D01*
X132055523Y-137364799D01*
X131990986Y-137399294D01*
X131764866Y-137584866D01*
X131579294Y-137810986D01*
X131441401Y-138068966D01*
X131356487Y-138348889D01*
X131327815Y-138640000D01*
X70795595Y-138640000D01*
X70932512Y-138193465D01*
X71001845Y-137510490D01*
X70936605Y-136827112D01*
X70739298Y-136169593D01*
X70417506Y-135563201D01*
X70405850Y-135545757D01*
X69952033Y-135227572D01*
X67679605Y-137500000D01*
X67320395Y-137500000D01*
X65047967Y-135227572D01*
X64594150Y-135545757D01*
X64268731Y-136150210D01*
X64067488Y-136806535D01*
X63998155Y-137489510D01*
X60660000Y-137489510D01*
X60660000Y-135047967D01*
X65227572Y-135047967D01*
X67500000Y-137320395D01*
X69772428Y-135047967D01*
X69454243Y-134594150D01*
X68849790Y-134268731D01*
X68193465Y-134067488D01*
X67510490Y-133998155D01*
X66827112Y-134063395D01*
X66169593Y-134260702D01*
X65563201Y-134582494D01*
X65545757Y-134594150D01*
X65227572Y-135047967D01*
X60660000Y-135047967D01*
X60660000Y-124280000D01*
X72477815Y-124280000D01*
X72506487Y-124571111D01*
X72591401Y-124851034D01*
X72729294Y-125109014D01*
X72914866Y-125335134D01*
X73140986Y-125520706D01*
X73195791Y-125550000D01*
X73140986Y-125579294D01*
X72914866Y-125764866D01*
X72729294Y-125990986D01*
X72591401Y-126248966D01*
X72506487Y-126528889D01*
X72477815Y-126820000D01*
X72506487Y-127111111D01*
X72591401Y-127391034D01*
X72729294Y-127649014D01*
X72914866Y-127875134D01*
X73140986Y-128060706D01*
X73195791Y-128090000D01*
X73140986Y-128119294D01*
X72914866Y-128304866D01*
X72729294Y-128530986D01*
X72591401Y-128788966D01*
X72506487Y-129068889D01*
X72477815Y-129360000D01*
X72506487Y-129651111D01*
X72591401Y-129931034D01*
X72729294Y-130189014D01*
X72914866Y-130415134D01*
X73140986Y-130600706D01*
X73195791Y-130630000D01*
X73140986Y-130659294D01*
X72914866Y-130844866D01*
X72729294Y-131070986D01*
X72591401Y-131328966D01*
X72506487Y-131608889D01*
X72477815Y-131900000D01*
X72506487Y-132191111D01*
X72591401Y-132471034D01*
X72729294Y-132729014D01*
X72914866Y-132955134D01*
X73140986Y-133140706D01*
X73195791Y-133170000D01*
X73140986Y-133199294D01*
X72914866Y-133384866D01*
X72729294Y-133610986D01*
X72591401Y-133868966D01*
X72506487Y-134148889D01*
X72477815Y-134440000D01*
X72506487Y-134731111D01*
X72591401Y-135011034D01*
X72729294Y-135269014D01*
X72914866Y-135495134D01*
X73140986Y-135680706D01*
X73195791Y-135710000D01*
X73140986Y-135739294D01*
X72914866Y-135924866D01*
X72729294Y-136150986D01*
X72591401Y-136408966D01*
X72506487Y-136688889D01*
X72477815Y-136980000D01*
X72506487Y-137271111D01*
X72591401Y-137551034D01*
X72729294Y-137809014D01*
X72914866Y-138035134D01*
X73140986Y-138220706D01*
X73398966Y-138358599D01*
X73678889Y-138443513D01*
X73897050Y-138465000D01*
X74042950Y-138465000D01*
X74261111Y-138443513D01*
X74541034Y-138358599D01*
X74799014Y-138220706D01*
X75025134Y-138035134D01*
X75210706Y-137809014D01*
X75348599Y-137551034D01*
X75433513Y-137271111D01*
X75462185Y-136980000D01*
X75433513Y-136688889D01*
X75348599Y-136408966D01*
X75210706Y-136150986D01*
X75025134Y-135924866D01*
X74799014Y-135739294D01*
X74744209Y-135710000D01*
X74799014Y-135680706D01*
X75025134Y-135495134D01*
X75210706Y-135269014D01*
X75248631Y-135198061D01*
X106395000Y-135198061D01*
X106395000Y-135401939D01*
X106434774Y-135601898D01*
X106512795Y-135790256D01*
X106545000Y-135838455D01*
X106545001Y-136771545D01*
X106512795Y-136819744D01*
X106434774Y-137008102D01*
X106395000Y-137208061D01*
X106395000Y-137411939D01*
X106434774Y-137611898D01*
X106512795Y-137800256D01*
X106626063Y-137969774D01*
X106770226Y-138113937D01*
X106939744Y-138227205D01*
X107128102Y-138305226D01*
X107328061Y-138345000D01*
X107531939Y-138345000D01*
X107731898Y-138305226D01*
X107920256Y-138227205D01*
X108054078Y-138137789D01*
X108070226Y-138153937D01*
X108239744Y-138267205D01*
X108428102Y-138345226D01*
X108628061Y-138385000D01*
X108831939Y-138385000D01*
X109031898Y-138345226D01*
X109220256Y-138267205D01*
X109389774Y-138153937D01*
X109533937Y-138009774D01*
X109647205Y-137840256D01*
X109725226Y-137651898D01*
X109765000Y-137451939D01*
X109765000Y-137248061D01*
X109731571Y-137080000D01*
X111959509Y-137080000D01*
X111981423Y-137302498D01*
X112046324Y-137516446D01*
X112151717Y-137713622D01*
X112258012Y-137843143D01*
X112268004Y-137853135D01*
X112303551Y-137896449D01*
X112476377Y-138038284D01*
X112673553Y-138143676D01*
X112856860Y-138199282D01*
X112887501Y-138208577D01*
X113109999Y-138230491D01*
X113165751Y-138225000D01*
X115375752Y-138225000D01*
X115542499Y-138208577D01*
X115756447Y-138143676D01*
X115953623Y-138038284D01*
X116126449Y-137896449D01*
X116268284Y-137723623D01*
X116373676Y-137526447D01*
X116438577Y-137312499D01*
X116460491Y-137090000D01*
X116438577Y-136867501D01*
X116373676Y-136653553D01*
X116268284Y-136456377D01*
X116126449Y-136283551D01*
X115953623Y-136141716D01*
X115756447Y-136036324D01*
X115542499Y-135971423D01*
X115375752Y-135955000D01*
X113257284Y-135955000D01*
X113100000Y-135939509D01*
X112877502Y-135961423D01*
X112663554Y-136026324D01*
X112466378Y-136131717D01*
X112293552Y-136273552D01*
X112151717Y-136446378D01*
X112046324Y-136643554D01*
X111981423Y-136857502D01*
X111959509Y-137080000D01*
X109731571Y-137080000D01*
X109725226Y-137048102D01*
X109647205Y-136859744D01*
X109615000Y-136811546D01*
X109615000Y-135808454D01*
X109647205Y-135760256D01*
X109654307Y-135743110D01*
X131378524Y-135743110D01*
X131499845Y-135973000D01*
X132693000Y-135973000D01*
X132693000Y-134779186D01*
X132947000Y-134779186D01*
X132947000Y-135973000D01*
X134140155Y-135973000D01*
X134261476Y-135743110D01*
X134216825Y-135595901D01*
X134091641Y-135333080D01*
X133917588Y-135099731D01*
X133701355Y-134904822D01*
X133451252Y-134755843D01*
X133176891Y-134658519D01*
X132947000Y-134779186D01*
X132693000Y-134779186D01*
X132463109Y-134658519D01*
X132188748Y-134755843D01*
X131938645Y-134904822D01*
X131722412Y-135099731D01*
X131548359Y-135333080D01*
X131423175Y-135595901D01*
X131378524Y-135743110D01*
X109654307Y-135743110D01*
X109725226Y-135571898D01*
X109765000Y-135371939D01*
X109765000Y-135168061D01*
X109725226Y-134968102D01*
X109647205Y-134779744D01*
X109533937Y-134610226D01*
X109389774Y-134466063D01*
X109220256Y-134352795D01*
X109031898Y-134274774D01*
X108831939Y-134235000D01*
X108628061Y-134235000D01*
X108428102Y-134274774D01*
X108239744Y-134352795D01*
X108070226Y-134466063D01*
X108060072Y-134476217D01*
X107920256Y-134382795D01*
X107731898Y-134304774D01*
X107531939Y-134265000D01*
X107328061Y-134265000D01*
X107128102Y-134304774D01*
X106939744Y-134382795D01*
X106770226Y-134496063D01*
X106626063Y-134640226D01*
X106512795Y-134809744D01*
X106434774Y-134998102D01*
X106395000Y-135198061D01*
X75248631Y-135198061D01*
X75348599Y-135011034D01*
X75433513Y-134731111D01*
X75462185Y-134440000D01*
X75433513Y-134148889D01*
X75348599Y-133868966D01*
X75210706Y-133610986D01*
X75025134Y-133384866D01*
X74799014Y-133199294D01*
X74744209Y-133170000D01*
X74799014Y-133140706D01*
X75025134Y-132955134D01*
X75210706Y-132729014D01*
X75348599Y-132471034D01*
X75433513Y-132191111D01*
X75462185Y-131900000D01*
X75433513Y-131608889D01*
X75348599Y-131328966D01*
X75210706Y-131070986D01*
X75025134Y-130844866D01*
X74799014Y-130659294D01*
X74744209Y-130630000D01*
X74799014Y-130600706D01*
X75025134Y-130415134D01*
X75210706Y-130189014D01*
X75348599Y-129931034D01*
X75433513Y-129651111D01*
X75462185Y-129360000D01*
X75433513Y-129068889D01*
X75348599Y-128788966D01*
X75210706Y-128530986D01*
X75025134Y-128304866D01*
X74799014Y-128119294D01*
X74744209Y-128090000D01*
X74799014Y-128060706D01*
X75025134Y-127875134D01*
X75210706Y-127649014D01*
X75348599Y-127391034D01*
X75433513Y-127111111D01*
X75462185Y-126820000D01*
X75433513Y-126528889D01*
X75348599Y-126248966D01*
X75210706Y-125990986D01*
X75025134Y-125764866D01*
X74799014Y-125579294D01*
X74744209Y-125550000D01*
X74799014Y-125520706D01*
X75025134Y-125335134D01*
X75210706Y-125109014D01*
X75348599Y-124851034D01*
X75433513Y-124571111D01*
X75462185Y-124280000D01*
X75433513Y-123988889D01*
X75348599Y-123708966D01*
X75210706Y-123450986D01*
X75025134Y-123224866D01*
X74995313Y-123200393D01*
X75064180Y-123179502D01*
X75174494Y-123120537D01*
X75271185Y-123041185D01*
X75350537Y-122944494D01*
X75409502Y-122834180D01*
X75445812Y-122714482D01*
X75458072Y-122590000D01*
X75458072Y-121359999D01*
X77359510Y-121359999D01*
X77365001Y-121415751D01*
X77365002Y-131154240D01*
X77359510Y-131210001D01*
X77381424Y-131432499D01*
X77446325Y-131646447D01*
X77446326Y-131646448D01*
X77551718Y-131843624D01*
X77693553Y-132016450D01*
X77736860Y-132051991D01*
X78028008Y-132343140D01*
X78063551Y-132386449D01*
X78236377Y-132528284D01*
X78433553Y-132633676D01*
X78647501Y-132698577D01*
X78870000Y-132720491D01*
X79092499Y-132698577D01*
X79306447Y-132633676D01*
X79503623Y-132528284D01*
X79676449Y-132386449D01*
X79818284Y-132213623D01*
X79923676Y-132016447D01*
X79988577Y-131802499D01*
X80010491Y-131580000D01*
X79988577Y-131357501D01*
X79923676Y-131143554D01*
X79923676Y-131143553D01*
X79818284Y-130946377D01*
X79676449Y-130773551D01*
X79635001Y-130739535D01*
X79635001Y-127478061D01*
X94375000Y-127478061D01*
X94375000Y-127681939D01*
X94414774Y-127881898D01*
X94492795Y-128070256D01*
X94606063Y-128239774D01*
X94750226Y-128383937D01*
X94919744Y-128497205D01*
X95108102Y-128575226D01*
X95164957Y-128586535D01*
X95222356Y-128643934D01*
X95124063Y-128742226D01*
X95010795Y-128911744D01*
X94932774Y-129100102D01*
X94893000Y-129300061D01*
X94893000Y-129503939D01*
X94932774Y-129703898D01*
X95010795Y-129892256D01*
X95124063Y-130061774D01*
X95268226Y-130205937D01*
X95437744Y-130319205D01*
X95626102Y-130397226D01*
X95826061Y-130437000D01*
X96029939Y-130437000D01*
X96229898Y-130397226D01*
X96418256Y-130319205D01*
X96454481Y-130295000D01*
X99151546Y-130295000D01*
X99199744Y-130327205D01*
X99388102Y-130405226D01*
X99588061Y-130445000D01*
X99791939Y-130445000D01*
X99991898Y-130405226D01*
X100180256Y-130327205D01*
X100349774Y-130213937D01*
X100493937Y-130069774D01*
X100607205Y-129900256D01*
X100685226Y-129711898D01*
X100695428Y-129660607D01*
X100818061Y-129685000D01*
X101021939Y-129685000D01*
X101221898Y-129645226D01*
X101410256Y-129567205D01*
X101579774Y-129453937D01*
X101723937Y-129309774D01*
X101763876Y-129250000D01*
X106479509Y-129250000D01*
X106501423Y-129472499D01*
X106566324Y-129686447D01*
X106671716Y-129883623D01*
X106813551Y-130056449D01*
X106986377Y-130198284D01*
X107183553Y-130303676D01*
X107397501Y-130368577D01*
X107564248Y-130385000D01*
X109245752Y-130385000D01*
X109412499Y-130368577D01*
X109626447Y-130303676D01*
X109823623Y-130198284D01*
X109996449Y-130056449D01*
X110138284Y-129883623D01*
X110243676Y-129686447D01*
X110308577Y-129472499D01*
X110330491Y-129250000D01*
X110308577Y-129027501D01*
X110243676Y-128813553D01*
X110138284Y-128616377D01*
X109996449Y-128443551D01*
X109823623Y-128301716D01*
X109626447Y-128196324D01*
X109412499Y-128131423D01*
X109245752Y-128115000D01*
X107564248Y-128115000D01*
X107397501Y-128131423D01*
X107183553Y-128196324D01*
X106986377Y-128301716D01*
X106813551Y-128443551D01*
X106671716Y-128616377D01*
X106566324Y-128813553D01*
X106501423Y-129027501D01*
X106479509Y-129250000D01*
X101763876Y-129250000D01*
X101837205Y-129140256D01*
X101915226Y-128951898D01*
X101955000Y-128751939D01*
X101955000Y-128548061D01*
X101915226Y-128348102D01*
X101837205Y-128159744D01*
X101723937Y-127990226D01*
X101579774Y-127846063D01*
X101410256Y-127732795D01*
X101345000Y-127705765D01*
X101345000Y-127558061D01*
X101305226Y-127358102D01*
X101227205Y-127169744D01*
X101188945Y-127112483D01*
X101237205Y-127040256D01*
X101315226Y-126851898D01*
X101331516Y-126770000D01*
X127299509Y-126770000D01*
X127321423Y-126992498D01*
X127386324Y-127206446D01*
X127491717Y-127403622D01*
X127633552Y-127576448D01*
X127806378Y-127718283D01*
X128003554Y-127823676D01*
X128217502Y-127888577D01*
X128440000Y-127910491D01*
X128662498Y-127888577D01*
X128876446Y-127823676D01*
X129073622Y-127718283D01*
X129203143Y-127611988D01*
X130813140Y-126001991D01*
X130856449Y-125966449D01*
X130998284Y-125793623D01*
X131103676Y-125596447D01*
X131163268Y-125400000D01*
X142637815Y-125400000D01*
X142666487Y-125691111D01*
X142751401Y-125971034D01*
X142889294Y-126229014D01*
X143074866Y-126455134D01*
X143300986Y-126640706D01*
X143355791Y-126670000D01*
X143300986Y-126699294D01*
X143074866Y-126884866D01*
X142889294Y-127110986D01*
X142751401Y-127368966D01*
X142666487Y-127648889D01*
X142637815Y-127940000D01*
X142666487Y-128231111D01*
X142751401Y-128511034D01*
X142889294Y-128769014D01*
X143074866Y-128995134D01*
X143300986Y-129180706D01*
X143355791Y-129210000D01*
X143300986Y-129239294D01*
X143074866Y-129424866D01*
X142889294Y-129650986D01*
X142751401Y-129908966D01*
X142666487Y-130188889D01*
X142637815Y-130480000D01*
X142666487Y-130771111D01*
X142751401Y-131051034D01*
X142889294Y-131309014D01*
X143074866Y-131535134D01*
X143300986Y-131720706D01*
X143558966Y-131858599D01*
X143838889Y-131943513D01*
X144057050Y-131965000D01*
X144202950Y-131965000D01*
X144421111Y-131943513D01*
X144701034Y-131858599D01*
X144959014Y-131720706D01*
X145185134Y-131535134D01*
X145370706Y-131309014D01*
X145508599Y-131051034D01*
X145593513Y-130771111D01*
X145622185Y-130480000D01*
X145593513Y-130188889D01*
X145508599Y-129908966D01*
X145370706Y-129650986D01*
X145185134Y-129424866D01*
X144959014Y-129239294D01*
X144904209Y-129210000D01*
X144959014Y-129180706D01*
X145185134Y-128995134D01*
X145370706Y-128769014D01*
X145508599Y-128511034D01*
X145593513Y-128231111D01*
X145622185Y-127940000D01*
X145593513Y-127648889D01*
X145508599Y-127368966D01*
X145370706Y-127110986D01*
X145185134Y-126884866D01*
X144959014Y-126699294D01*
X144904209Y-126670000D01*
X144959014Y-126640706D01*
X145185134Y-126455134D01*
X145370706Y-126229014D01*
X145508599Y-125971034D01*
X145593513Y-125691111D01*
X145622185Y-125400000D01*
X145593513Y-125108889D01*
X145508599Y-124828966D01*
X145370706Y-124570986D01*
X145185134Y-124344866D01*
X145155313Y-124320393D01*
X145224180Y-124299502D01*
X145334494Y-124240537D01*
X145431185Y-124161185D01*
X145510537Y-124064494D01*
X145569502Y-123954180D01*
X145605812Y-123834482D01*
X145618072Y-123710000D01*
X145618072Y-122010000D01*
X145605812Y-121885518D01*
X145569502Y-121765820D01*
X145510537Y-121655506D01*
X145431185Y-121558815D01*
X145334494Y-121479463D01*
X145224180Y-121420498D01*
X145104482Y-121384188D01*
X144980000Y-121371928D01*
X143280000Y-121371928D01*
X143155518Y-121384188D01*
X143035820Y-121420498D01*
X142925506Y-121479463D01*
X142828815Y-121558815D01*
X142749463Y-121655506D01*
X142690498Y-121765820D01*
X142654188Y-121885518D01*
X142641928Y-122010000D01*
X142641928Y-123710000D01*
X142654188Y-123834482D01*
X142690498Y-123954180D01*
X142749463Y-124064494D01*
X142828815Y-124161185D01*
X142925506Y-124240537D01*
X143035820Y-124299502D01*
X143104687Y-124320393D01*
X143074866Y-124344866D01*
X142889294Y-124570986D01*
X142751401Y-124828966D01*
X142666487Y-125108889D01*
X142637815Y-125400000D01*
X131163268Y-125400000D01*
X131168577Y-125382499D01*
X131185000Y-125215752D01*
X131190491Y-125160000D01*
X131185000Y-125104248D01*
X131185000Y-122525752D01*
X131190491Y-122470000D01*
X131168577Y-122247501D01*
X131103676Y-122033553D01*
X130998284Y-121836377D01*
X130856449Y-121663551D01*
X130683623Y-121521716D01*
X130486447Y-121416324D01*
X130272499Y-121351423D01*
X130105752Y-121335000D01*
X130105751Y-121335000D01*
X130050000Y-121329509D01*
X129994248Y-121335000D01*
X129827501Y-121351423D01*
X129613553Y-121416324D01*
X129416377Y-121521716D01*
X129243551Y-121663551D01*
X129101716Y-121836377D01*
X128996324Y-122033553D01*
X128931423Y-122247501D01*
X128909509Y-122470000D01*
X128915000Y-122525752D01*
X128915001Y-124689867D01*
X127598012Y-126006857D01*
X127491717Y-126136378D01*
X127386324Y-126333554D01*
X127321423Y-126547502D01*
X127299509Y-126770000D01*
X101331516Y-126770000D01*
X101355000Y-126651939D01*
X101355000Y-126448061D01*
X101315226Y-126248102D01*
X101237205Y-126059744D01*
X101123937Y-125890226D01*
X100979774Y-125746063D01*
X100810256Y-125632795D01*
X100621898Y-125554774D01*
X100421939Y-125515000D01*
X100218061Y-125515000D01*
X100018102Y-125554774D01*
X99829744Y-125632795D01*
X99781546Y-125665000D01*
X97636579Y-125665000D01*
X96756535Y-124784957D01*
X96745226Y-124728102D01*
X96667205Y-124539744D01*
X96553937Y-124370226D01*
X96409774Y-124226063D01*
X96240256Y-124112795D01*
X96051898Y-124034774D01*
X95851939Y-123995000D01*
X95648061Y-123995000D01*
X95448102Y-124034774D01*
X95259744Y-124112795D01*
X95090226Y-124226063D01*
X94946063Y-124370226D01*
X94832795Y-124539744D01*
X94754774Y-124728102D01*
X94715000Y-124928061D01*
X94715000Y-125131939D01*
X94754774Y-125331898D01*
X94832795Y-125520256D01*
X94834092Y-125522197D01*
X94696063Y-125660226D01*
X94582795Y-125829744D01*
X94504774Y-126018102D01*
X94465000Y-126218061D01*
X94465000Y-126421939D01*
X94504774Y-126621898D01*
X94582795Y-126810256D01*
X94636163Y-126890126D01*
X94606063Y-126920226D01*
X94492795Y-127089744D01*
X94414774Y-127278102D01*
X94375000Y-127478061D01*
X79635001Y-127478061D01*
X79635001Y-121830130D01*
X79741988Y-121723143D01*
X79848283Y-121593622D01*
X79953676Y-121396446D01*
X80018577Y-121182499D01*
X80040491Y-120960001D01*
X80018577Y-120737502D01*
X79953676Y-120523554D01*
X79848283Y-120326378D01*
X79736361Y-120190000D01*
X84169509Y-120190000D01*
X84191423Y-120412498D01*
X84256324Y-120626446D01*
X84361717Y-120823622D01*
X84451599Y-120933143D01*
X84503552Y-120996448D01*
X84546855Y-121031986D01*
X85296857Y-121781988D01*
X85426377Y-121888283D01*
X85623553Y-121993675D01*
X85837500Y-122058577D01*
X86059999Y-122080490D01*
X86282498Y-122058577D01*
X86496446Y-121993675D01*
X86693622Y-121888283D01*
X86866448Y-121746448D01*
X87008283Y-121573622D01*
X87113675Y-121376446D01*
X87178577Y-121162498D01*
X87200490Y-120939999D01*
X87178577Y-120717500D01*
X87113675Y-120503553D01*
X87008283Y-120306377D01*
X86901988Y-120176857D01*
X86465000Y-119739869D01*
X86465000Y-118564248D01*
X86448577Y-118397501D01*
X86383676Y-118183553D01*
X86278284Y-117986377D01*
X86136449Y-117813551D01*
X85963623Y-117671716D01*
X85766447Y-117566324D01*
X85552499Y-117501423D01*
X85330000Y-117479509D01*
X85107502Y-117501423D01*
X84893554Y-117566324D01*
X84696378Y-117671716D01*
X84523552Y-117813551D01*
X84381717Y-117986377D01*
X84276325Y-118183553D01*
X84211423Y-118397501D01*
X84195000Y-118564248D01*
X84195000Y-119955710D01*
X84191423Y-119967502D01*
X84169509Y-120190000D01*
X79736361Y-120190000D01*
X79706448Y-120153552D01*
X79533622Y-120011717D01*
X79336446Y-119906324D01*
X79122498Y-119841423D01*
X78899999Y-119819509D01*
X78677501Y-119841423D01*
X78463554Y-119906324D01*
X78266378Y-120011717D01*
X78136857Y-120118012D01*
X77736866Y-120518003D01*
X77693552Y-120553550D01*
X77551717Y-120726376D01*
X77481331Y-120858061D01*
X77446325Y-120923553D01*
X77381424Y-121137501D01*
X77359510Y-121359999D01*
X75458072Y-121359999D01*
X75458072Y-120890000D01*
X75445812Y-120765518D01*
X75409502Y-120645820D01*
X75350537Y-120535506D01*
X75271185Y-120438815D01*
X75174494Y-120359463D01*
X75064180Y-120300498D01*
X74944482Y-120264188D01*
X74820000Y-120251928D01*
X73120000Y-120251928D01*
X72995518Y-120264188D01*
X72875820Y-120300498D01*
X72765506Y-120359463D01*
X72668815Y-120438815D01*
X72589463Y-120535506D01*
X72530498Y-120645820D01*
X72494188Y-120765518D01*
X72481928Y-120890000D01*
X72481928Y-122590000D01*
X72494188Y-122714482D01*
X72530498Y-122834180D01*
X72589463Y-122944494D01*
X72668815Y-123041185D01*
X72765506Y-123120537D01*
X72875820Y-123179502D01*
X72944687Y-123200393D01*
X72914866Y-123224866D01*
X72729294Y-123450986D01*
X72591401Y-123708966D01*
X72506487Y-123988889D01*
X72477815Y-124280000D01*
X60660000Y-124280000D01*
X60660000Y-114500000D01*
X72341928Y-114500000D01*
X72341928Y-116200000D01*
X72354188Y-116324482D01*
X72390498Y-116444180D01*
X72449463Y-116554494D01*
X72528815Y-116651185D01*
X72625506Y-116730537D01*
X72735820Y-116789502D01*
X72855518Y-116825812D01*
X72980000Y-116838072D01*
X74680000Y-116838072D01*
X74804482Y-116825812D01*
X74924180Y-116789502D01*
X75034494Y-116730537D01*
X75131185Y-116651185D01*
X75210537Y-116554494D01*
X75269502Y-116444180D01*
X75305812Y-116324482D01*
X75318072Y-116200000D01*
X75318072Y-115690000D01*
X109559509Y-115690000D01*
X109581423Y-115912498D01*
X109646324Y-116126446D01*
X109751717Y-116323622D01*
X109893552Y-116496448D01*
X110066378Y-116638283D01*
X110263554Y-116743676D01*
X110477502Y-116808577D01*
X110700000Y-116830491D01*
X110922498Y-116808577D01*
X111136446Y-116743676D01*
X111333622Y-116638283D01*
X111463143Y-116531988D01*
X111480131Y-116515000D01*
X113295752Y-116515000D01*
X113462499Y-116498577D01*
X113676447Y-116433676D01*
X113873623Y-116328284D01*
X114046449Y-116186449D01*
X114188284Y-116013623D01*
X114293676Y-115816447D01*
X114358577Y-115602499D01*
X114380491Y-115380000D01*
X114358577Y-115157501D01*
X114293676Y-114943553D01*
X114188284Y-114746377D01*
X114046449Y-114573551D01*
X113873623Y-114431716D01*
X113676447Y-114326324D01*
X113462499Y-114261423D01*
X113295752Y-114245000D01*
X111065743Y-114245000D01*
X111009999Y-114239510D01*
X110954255Y-114245000D01*
X110954248Y-114245000D01*
X110808493Y-114259356D01*
X110787500Y-114261423D01*
X110747106Y-114273677D01*
X110573553Y-114326324D01*
X110376377Y-114431716D01*
X110203551Y-114573551D01*
X110168004Y-114616865D01*
X109858012Y-114926857D01*
X109751717Y-115056378D01*
X109646324Y-115253554D01*
X109581423Y-115467502D01*
X109559509Y-115690000D01*
X75318072Y-115690000D01*
X75318072Y-114500000D01*
X75305812Y-114375518D01*
X75269502Y-114255820D01*
X75210537Y-114145506D01*
X75131185Y-114048815D01*
X75034494Y-113969463D01*
X74924180Y-113910498D01*
X74804482Y-113874188D01*
X74680000Y-113861928D01*
X72980000Y-113861928D01*
X72855518Y-113874188D01*
X72735820Y-113910498D01*
X72625506Y-113969463D01*
X72528815Y-114048815D01*
X72449463Y-114145506D01*
X72390498Y-114255820D01*
X72354188Y-114375518D01*
X72341928Y-114500000D01*
X60660000Y-114500000D01*
X60660000Y-113380000D01*
X87859509Y-113380000D01*
X87881423Y-113602499D01*
X87946324Y-113816447D01*
X88051716Y-114013623D01*
X88193551Y-114186449D01*
X88366377Y-114328284D01*
X88563553Y-114433676D01*
X88777501Y-114498577D01*
X88944248Y-114515000D01*
X91885752Y-114515000D01*
X92052499Y-114498577D01*
X92266447Y-114433676D01*
X92463623Y-114328284D01*
X92636449Y-114186449D01*
X92778284Y-114013623D01*
X92883676Y-113816447D01*
X92948577Y-113602499D01*
X92970491Y-113380000D01*
X92948577Y-113157501D01*
X92883676Y-112943553D01*
X92778284Y-112746377D01*
X92636449Y-112573551D01*
X92463623Y-112431716D01*
X92266447Y-112326324D01*
X92052499Y-112261423D01*
X91885752Y-112245000D01*
X88944248Y-112245000D01*
X88777501Y-112261423D01*
X88563553Y-112326324D01*
X88366377Y-112431716D01*
X88193551Y-112573551D01*
X88051716Y-112746377D01*
X87946324Y-112943553D01*
X87881423Y-113157501D01*
X87859509Y-113380000D01*
X60660000Y-113380000D01*
X60660000Y-105910000D01*
X98979509Y-105910000D01*
X99001423Y-106132498D01*
X99066324Y-106346446D01*
X99171717Y-106543622D01*
X99278012Y-106673143D01*
X100418008Y-107813140D01*
X100453551Y-107856449D01*
X100626377Y-107998284D01*
X100823553Y-108103676D01*
X101037501Y-108168577D01*
X101204248Y-108185000D01*
X101204257Y-108185000D01*
X101259999Y-108190490D01*
X101315741Y-108185000D01*
X106865752Y-108185000D01*
X107032499Y-108168577D01*
X107246447Y-108103676D01*
X107443623Y-107998284D01*
X107616449Y-107856449D01*
X107758284Y-107683623D01*
X107863676Y-107486447D01*
X107928577Y-107272499D01*
X107930792Y-107250000D01*
X121111928Y-107250000D01*
X121124188Y-107374482D01*
X121160498Y-107494180D01*
X121219463Y-107604494D01*
X121298815Y-107701185D01*
X121395506Y-107780537D01*
X121505820Y-107839502D01*
X121625518Y-107875812D01*
X121750000Y-107888072D01*
X122314250Y-107885000D01*
X122473000Y-107726250D01*
X122473000Y-106527000D01*
X122727000Y-106527000D01*
X122727000Y-107726250D01*
X122885750Y-107885000D01*
X123450000Y-107888072D01*
X123574482Y-107875812D01*
X123694180Y-107839502D01*
X123804494Y-107780537D01*
X123901185Y-107701185D01*
X123980537Y-107604494D01*
X124039502Y-107494180D01*
X124075812Y-107374482D01*
X124088072Y-107250000D01*
X124085000Y-106685750D01*
X123926250Y-106527000D01*
X122727000Y-106527000D01*
X122473000Y-106527000D01*
X121273750Y-106527000D01*
X121115000Y-106685750D01*
X121111928Y-107250000D01*
X107930792Y-107250000D01*
X107950491Y-107050000D01*
X107928577Y-106827501D01*
X107863676Y-106613553D01*
X107758284Y-106416377D01*
X107616449Y-106243551D01*
X107443623Y-106101716D01*
X107246447Y-105996324D01*
X107032499Y-105931423D01*
X106865752Y-105915000D01*
X101730132Y-105915000D01*
X101365132Y-105550000D01*
X121111928Y-105550000D01*
X121115000Y-106114250D01*
X121273750Y-106273000D01*
X122473000Y-106273000D01*
X122473000Y-105073750D01*
X122727000Y-105073750D01*
X122727000Y-106273000D01*
X123926250Y-106273000D01*
X124085000Y-106114250D01*
X124087636Y-105630000D01*
X127441928Y-105630000D01*
X127441928Y-107330000D01*
X127454188Y-107454482D01*
X127490498Y-107574180D01*
X127549463Y-107684494D01*
X127628815Y-107781185D01*
X127725506Y-107860537D01*
X127835820Y-107919502D01*
X127955518Y-107955812D01*
X128080000Y-107968072D01*
X129780000Y-107968072D01*
X129904482Y-107955812D01*
X130024180Y-107919502D01*
X130134494Y-107860537D01*
X130231185Y-107781185D01*
X130310537Y-107684494D01*
X130369502Y-107574180D01*
X130405812Y-107454482D01*
X130418072Y-107330000D01*
X130418072Y-105630000D01*
X130405812Y-105505518D01*
X130369502Y-105385820D01*
X130310537Y-105275506D01*
X130231185Y-105178815D01*
X130134494Y-105099463D01*
X130024180Y-105040498D01*
X129904482Y-105004188D01*
X129780000Y-104991928D01*
X128080000Y-104991928D01*
X127955518Y-105004188D01*
X127835820Y-105040498D01*
X127725506Y-105099463D01*
X127628815Y-105178815D01*
X127549463Y-105275506D01*
X127490498Y-105385820D01*
X127454188Y-105505518D01*
X127441928Y-105630000D01*
X124087636Y-105630000D01*
X124088072Y-105550000D01*
X124075812Y-105425518D01*
X124039502Y-105305820D01*
X123980537Y-105195506D01*
X123901185Y-105098815D01*
X123804494Y-105019463D01*
X123694180Y-104960498D01*
X123574482Y-104924188D01*
X123450000Y-104911928D01*
X122885750Y-104915000D01*
X122727000Y-105073750D01*
X122473000Y-105073750D01*
X122314250Y-104915000D01*
X121750000Y-104911928D01*
X121625518Y-104924188D01*
X121505820Y-104960498D01*
X121395506Y-105019463D01*
X121298815Y-105098815D01*
X121219463Y-105195506D01*
X121160498Y-105305820D01*
X121124188Y-105425518D01*
X121111928Y-105550000D01*
X101365132Y-105550000D01*
X100883143Y-105068012D01*
X100753622Y-104961717D01*
X100556446Y-104856324D01*
X100342498Y-104791423D01*
X100120000Y-104769509D01*
X99897502Y-104791423D01*
X99683554Y-104856324D01*
X99486378Y-104961717D01*
X99313552Y-105103552D01*
X99171717Y-105276378D01*
X99066324Y-105473554D01*
X99001423Y-105687502D01*
X98979509Y-105910000D01*
X60660000Y-105910000D01*
X60660000Y-100977000D01*
X61511000Y-100977000D01*
X61511000Y-101731000D01*
X61562466Y-101999540D01*
X61665332Y-102252880D01*
X61815646Y-102481284D01*
X62007631Y-102675974D01*
X62233909Y-102829469D01*
X62485785Y-102935870D01*
X62558186Y-102950286D01*
X62773000Y-102827677D01*
X62773000Y-100977000D01*
X63027000Y-100977000D01*
X63027000Y-102827677D01*
X63241814Y-102950286D01*
X63314215Y-102935870D01*
X63566091Y-102829469D01*
X63792369Y-102675974D01*
X63984354Y-102481284D01*
X64134668Y-102252880D01*
X64237534Y-101999540D01*
X64289000Y-101731000D01*
X64289000Y-100977000D01*
X63027000Y-100977000D01*
X62773000Y-100977000D01*
X61511000Y-100977000D01*
X60660000Y-100977000D01*
X60660000Y-99969000D01*
X61511000Y-99969000D01*
X61511000Y-100723000D01*
X62773000Y-100723000D01*
X62773000Y-98872323D01*
X63027000Y-98872323D01*
X63027000Y-100723000D01*
X64289000Y-100723000D01*
X64289000Y-100561584D01*
X64313078Y-100590923D01*
X64524581Y-100764499D01*
X64765882Y-100893477D01*
X65027710Y-100972902D01*
X65300000Y-100999720D01*
X65572291Y-100972902D01*
X65834119Y-100893477D01*
X66075420Y-100764499D01*
X66286923Y-100590923D01*
X66460499Y-100379420D01*
X66589477Y-100138119D01*
X66622950Y-100027771D01*
X67611000Y-100027771D01*
X67611000Y-101672230D01*
X67631098Y-101876291D01*
X67710524Y-102138119D01*
X67839502Y-102379420D01*
X68013078Y-102590923D01*
X68224581Y-102764499D01*
X68465882Y-102893477D01*
X68727710Y-102972902D01*
X69000000Y-102999720D01*
X69272291Y-102972902D01*
X69534119Y-102893477D01*
X69775420Y-102764499D01*
X69986923Y-102590923D01*
X70160499Y-102379420D01*
X70289477Y-102138119D01*
X70368902Y-101876291D01*
X70389000Y-101672230D01*
X70389000Y-100930825D01*
X70527710Y-100972902D01*
X70800000Y-100999720D01*
X71072291Y-100972902D01*
X71334119Y-100893477D01*
X71575420Y-100764499D01*
X71786923Y-100590923D01*
X71960499Y-100379420D01*
X72089477Y-100138119D01*
X72122950Y-100027771D01*
X73111000Y-100027771D01*
X73111000Y-101672230D01*
X73131098Y-101876291D01*
X73210524Y-102138119D01*
X73339502Y-102379420D01*
X73513078Y-102590923D01*
X73724581Y-102764499D01*
X73965882Y-102893477D01*
X74227710Y-102972902D01*
X74500000Y-102999720D01*
X74772291Y-102972902D01*
X75034119Y-102893477D01*
X75275420Y-102764499D01*
X75486923Y-102590923D01*
X75660499Y-102379420D01*
X75789477Y-102138119D01*
X75849576Y-101940000D01*
X135107815Y-101940000D01*
X135136487Y-102231111D01*
X135221401Y-102511034D01*
X135359294Y-102769014D01*
X135544866Y-102995134D01*
X135770986Y-103180706D01*
X136028966Y-103318599D01*
X136308889Y-103403513D01*
X136527050Y-103425000D01*
X136672950Y-103425000D01*
X136891111Y-103403513D01*
X137171034Y-103318599D01*
X137429014Y-103180706D01*
X137655134Y-102995134D01*
X137840706Y-102769014D01*
X137978599Y-102511034D01*
X138063513Y-102231111D01*
X138092185Y-101940000D01*
X138063513Y-101648889D01*
X137978599Y-101368966D01*
X137840706Y-101110986D01*
X137655134Y-100884866D01*
X137625313Y-100860393D01*
X137694180Y-100839502D01*
X137804494Y-100780537D01*
X137901185Y-100701185D01*
X137980537Y-100604494D01*
X138039502Y-100494180D01*
X138075812Y-100374482D01*
X138088072Y-100250000D01*
X138088072Y-98550000D01*
X138075812Y-98425518D01*
X138039502Y-98305820D01*
X137980537Y-98195506D01*
X137901185Y-98098815D01*
X137804494Y-98019463D01*
X137694180Y-97960498D01*
X137574482Y-97924188D01*
X137450000Y-97911928D01*
X135750000Y-97911928D01*
X135625518Y-97924188D01*
X135505820Y-97960498D01*
X135395506Y-98019463D01*
X135298815Y-98098815D01*
X135219463Y-98195506D01*
X135160498Y-98305820D01*
X135124188Y-98425518D01*
X135111928Y-98550000D01*
X135111928Y-100250000D01*
X135124188Y-100374482D01*
X135160498Y-100494180D01*
X135219463Y-100604494D01*
X135298815Y-100701185D01*
X135395506Y-100780537D01*
X135505820Y-100839502D01*
X135574687Y-100860393D01*
X135544866Y-100884866D01*
X135359294Y-101110986D01*
X135221401Y-101368966D01*
X135136487Y-101648889D01*
X135107815Y-101940000D01*
X75849576Y-101940000D01*
X75868902Y-101876291D01*
X75889000Y-101672230D01*
X75889000Y-100027770D01*
X75868902Y-99823709D01*
X75789477Y-99561881D01*
X75660499Y-99320580D01*
X75486922Y-99109077D01*
X75275419Y-98935501D01*
X75034118Y-98806523D01*
X74772290Y-98727098D01*
X74500000Y-98700280D01*
X74227709Y-98727098D01*
X73965881Y-98806523D01*
X73724580Y-98935501D01*
X73513077Y-99109078D01*
X73339501Y-99320581D01*
X73210523Y-99561882D01*
X73131098Y-99823710D01*
X73111000Y-100027771D01*
X72122950Y-100027771D01*
X72168902Y-99876291D01*
X72189000Y-99672230D01*
X72189000Y-98087500D01*
X119599428Y-98087500D01*
X119599428Y-100412500D01*
X119611688Y-100536982D01*
X119647998Y-100656680D01*
X119706963Y-100766994D01*
X119786315Y-100863685D01*
X119883006Y-100943037D01*
X119993320Y-101002002D01*
X120113018Y-101038312D01*
X120237500Y-101050572D01*
X122562500Y-101050572D01*
X122686982Y-101038312D01*
X122806680Y-101002002D01*
X122916994Y-100943037D01*
X123013685Y-100863685D01*
X123093037Y-100766994D01*
X123152002Y-100656680D01*
X123188312Y-100536982D01*
X123200572Y-100412500D01*
X123200572Y-98087500D01*
X123188312Y-97963018D01*
X123171596Y-97907911D01*
X144125000Y-97907911D01*
X144125000Y-98092089D01*
X144160932Y-98272729D01*
X144231414Y-98442889D01*
X144333738Y-98596028D01*
X144463972Y-98726262D01*
X144617111Y-98828586D01*
X144787271Y-98899068D01*
X144967911Y-98935000D01*
X145152089Y-98935000D01*
X145332729Y-98899068D01*
X145502889Y-98828586D01*
X145656028Y-98726262D01*
X145786262Y-98596028D01*
X145888586Y-98442889D01*
X145959068Y-98272729D01*
X145995000Y-98092089D01*
X145995000Y-97907911D01*
X145959068Y-97727271D01*
X145888586Y-97557111D01*
X145786262Y-97403972D01*
X145656028Y-97273738D01*
X145502889Y-97171414D01*
X145332729Y-97100932D01*
X145152089Y-97065000D01*
X144967911Y-97065000D01*
X144787271Y-97100932D01*
X144617111Y-97171414D01*
X144463972Y-97273738D01*
X144333738Y-97403972D01*
X144231414Y-97557111D01*
X144160932Y-97727271D01*
X144125000Y-97907911D01*
X123171596Y-97907911D01*
X123152002Y-97843320D01*
X123093037Y-97733006D01*
X123013685Y-97636315D01*
X122916994Y-97556963D01*
X122806680Y-97497998D01*
X122686982Y-97461688D01*
X122562500Y-97449428D01*
X120237500Y-97449428D01*
X120113018Y-97461688D01*
X119993320Y-97497998D01*
X119883006Y-97556963D01*
X119786315Y-97636315D01*
X119706963Y-97733006D01*
X119647998Y-97843320D01*
X119611688Y-97963018D01*
X119599428Y-98087500D01*
X72189000Y-98087500D01*
X72189000Y-98027770D01*
X72168902Y-97823709D01*
X72089477Y-97561881D01*
X71960499Y-97320580D01*
X71786922Y-97109077D01*
X71575419Y-96935501D01*
X71334118Y-96806523D01*
X71072290Y-96727098D01*
X70800000Y-96700280D01*
X70527709Y-96727098D01*
X70265881Y-96806523D01*
X70024580Y-96935501D01*
X69813077Y-97109078D01*
X69639501Y-97320581D01*
X69510523Y-97561882D01*
X69431098Y-97823710D01*
X69411000Y-98027771D01*
X69411000Y-98769175D01*
X69272290Y-98727098D01*
X69000000Y-98700280D01*
X68727709Y-98727098D01*
X68465881Y-98806523D01*
X68224580Y-98935501D01*
X68013077Y-99109078D01*
X67839501Y-99320581D01*
X67710523Y-99561882D01*
X67631098Y-99823710D01*
X67611000Y-100027771D01*
X66622950Y-100027771D01*
X66668902Y-99876291D01*
X66689000Y-99672230D01*
X66689000Y-98027770D01*
X66668902Y-97823709D01*
X66589477Y-97561881D01*
X66460499Y-97320580D01*
X66286922Y-97109077D01*
X66075419Y-96935501D01*
X65834118Y-96806523D01*
X65572290Y-96727098D01*
X65300000Y-96700280D01*
X65027709Y-96727098D01*
X64765881Y-96806523D01*
X64524580Y-96935501D01*
X64313077Y-97109078D01*
X64139501Y-97320581D01*
X64010523Y-97561882D01*
X63931098Y-97823710D01*
X63911000Y-98027771D01*
X63911000Y-99144328D01*
X63792369Y-99024026D01*
X63566091Y-98870531D01*
X63314215Y-98764130D01*
X63241814Y-98749714D01*
X63027000Y-98872323D01*
X62773000Y-98872323D01*
X62558186Y-98749714D01*
X62485785Y-98764130D01*
X62233909Y-98870531D01*
X62007631Y-99024026D01*
X61815646Y-99218716D01*
X61665332Y-99447120D01*
X61562466Y-99700460D01*
X61511000Y-99969000D01*
X60660000Y-99969000D01*
X60660000Y-94072962D01*
X123102500Y-94072962D01*
X123102500Y-94427038D01*
X123171577Y-94774311D01*
X123307076Y-95101435D01*
X123503791Y-95395839D01*
X123754161Y-95646209D01*
X124048565Y-95842924D01*
X124375689Y-95978423D01*
X124722962Y-96047500D01*
X125077038Y-96047500D01*
X125424311Y-95978423D01*
X125751435Y-95842924D01*
X126045839Y-95646209D01*
X126296209Y-95395839D01*
X126492924Y-95101435D01*
X126628423Y-94774311D01*
X126697500Y-94427038D01*
X126697500Y-94072962D01*
X126664670Y-93907911D01*
X144125000Y-93907911D01*
X144125000Y-94092089D01*
X144160932Y-94272729D01*
X144231414Y-94442889D01*
X144333738Y-94596028D01*
X144463972Y-94726262D01*
X144617111Y-94828586D01*
X144787271Y-94899068D01*
X144967911Y-94935000D01*
X145152089Y-94935000D01*
X145332729Y-94899068D01*
X145502889Y-94828586D01*
X145656028Y-94726262D01*
X145786262Y-94596028D01*
X145888586Y-94442889D01*
X145959068Y-94272729D01*
X145995000Y-94092089D01*
X145995000Y-93907911D01*
X145959068Y-93727271D01*
X145888586Y-93557111D01*
X145786262Y-93403972D01*
X145656028Y-93273738D01*
X145502889Y-93171414D01*
X145332729Y-93100932D01*
X145152089Y-93065000D01*
X144967911Y-93065000D01*
X144787271Y-93100932D01*
X144617111Y-93171414D01*
X144463972Y-93273738D01*
X144333738Y-93403972D01*
X144231414Y-93557111D01*
X144160932Y-93727271D01*
X144125000Y-93907911D01*
X126664670Y-93907911D01*
X126628423Y-93725689D01*
X126492924Y-93398565D01*
X126296209Y-93104161D01*
X126045839Y-92853791D01*
X125751435Y-92657076D01*
X125424311Y-92521577D01*
X125077038Y-92452500D01*
X124722962Y-92452500D01*
X124375689Y-92521577D01*
X124048565Y-92657076D01*
X123754161Y-92853791D01*
X123503791Y-93104161D01*
X123307076Y-93398565D01*
X123171577Y-93725689D01*
X123102500Y-94072962D01*
X60660000Y-94072962D01*
X60660000Y-92452033D01*
X65227572Y-92452033D01*
X65545757Y-92905850D01*
X66150210Y-93231269D01*
X66806535Y-93432512D01*
X67489510Y-93501845D01*
X68172888Y-93436605D01*
X68830407Y-93239298D01*
X69436799Y-92917506D01*
X69454243Y-92905850D01*
X69772428Y-92452033D01*
X132727572Y-92452033D01*
X133045757Y-92905850D01*
X133650210Y-93231269D01*
X134306535Y-93432512D01*
X134989510Y-93501845D01*
X135672888Y-93436605D01*
X136330407Y-93239298D01*
X136936799Y-92917506D01*
X136954243Y-92905850D01*
X137272428Y-92452033D01*
X135000000Y-90179605D01*
X132727572Y-92452033D01*
X69772428Y-92452033D01*
X67500000Y-90179605D01*
X65227572Y-92452033D01*
X60660000Y-92452033D01*
X60660000Y-89989510D01*
X63998155Y-89989510D01*
X64063395Y-90672888D01*
X64260702Y-91330407D01*
X64582494Y-91936799D01*
X64594150Y-91954243D01*
X65047967Y-92272428D01*
X67320395Y-90000000D01*
X67679605Y-90000000D01*
X69952033Y-92272428D01*
X70405850Y-91954243D01*
X70731269Y-91349790D01*
X70932512Y-90693465D01*
X71001845Y-90010490D01*
X70999843Y-89989510D01*
X131498155Y-89989510D01*
X131563395Y-90672888D01*
X131760702Y-91330407D01*
X132082494Y-91936799D01*
X132094150Y-91954243D01*
X132547967Y-92272428D01*
X134820395Y-90000000D01*
X135179605Y-90000000D01*
X137452033Y-92272428D01*
X137905850Y-91954243D01*
X138231269Y-91349790D01*
X138432512Y-90693465D01*
X138501845Y-90010490D01*
X138436605Y-89327112D01*
X138239298Y-88669593D01*
X137917506Y-88063201D01*
X137905850Y-88045757D01*
X137452033Y-87727572D01*
X135179605Y-90000000D01*
X134820395Y-90000000D01*
X132547967Y-87727572D01*
X132094150Y-88045757D01*
X131768731Y-88650210D01*
X131567488Y-89306535D01*
X131498155Y-89989510D01*
X70999843Y-89989510D01*
X70936605Y-89327112D01*
X70739298Y-88669593D01*
X70417506Y-88063201D01*
X70405850Y-88045757D01*
X69952033Y-87727572D01*
X67679605Y-90000000D01*
X67320395Y-90000000D01*
X65047967Y-87727572D01*
X64594150Y-88045757D01*
X64268731Y-88650210D01*
X64067488Y-89306535D01*
X63998155Y-89989510D01*
X60660000Y-89989510D01*
X60660000Y-87547967D01*
X65227572Y-87547967D01*
X67500000Y-89820395D01*
X69772428Y-87547967D01*
X132727572Y-87547967D01*
X135000000Y-89820395D01*
X137272428Y-87547967D01*
X136954243Y-87094150D01*
X136349790Y-86768731D01*
X135693465Y-86567488D01*
X135010490Y-86498155D01*
X134327112Y-86563395D01*
X133669593Y-86760702D01*
X133063201Y-87082494D01*
X133045757Y-87094150D01*
X132727572Y-87547967D01*
X69772428Y-87547967D01*
X69454243Y-87094150D01*
X68849790Y-86768731D01*
X68193465Y-86567488D01*
X67510490Y-86498155D01*
X66827112Y-86563395D01*
X66169593Y-86760702D01*
X65563201Y-87082494D01*
X65545757Y-87094150D01*
X65227572Y-87547967D01*
X60660000Y-87547967D01*
X60660000Y-86356655D01*
X142330000Y-86356655D01*
X142330000Y-86703345D01*
X142397636Y-87043373D01*
X142530308Y-87363673D01*
X142722919Y-87651935D01*
X142968065Y-87897081D01*
X143256327Y-88089692D01*
X143576627Y-88222364D01*
X143916655Y-88290000D01*
X144263345Y-88290000D01*
X144603373Y-88222364D01*
X144923673Y-88089692D01*
X145211935Y-87897081D01*
X145457081Y-87651935D01*
X145649692Y-87363673D01*
X145782364Y-87043373D01*
X145850000Y-86703345D01*
X145850000Y-86356655D01*
X145782364Y-86016627D01*
X145649692Y-85696327D01*
X145457081Y-85408065D01*
X145211935Y-85162919D01*
X144923673Y-84970308D01*
X144603373Y-84837636D01*
X144263345Y-84770000D01*
X143916655Y-84770000D01*
X143576627Y-84837636D01*
X143256327Y-84970308D01*
X142968065Y-85162919D01*
X142722919Y-85408065D01*
X142530308Y-85696327D01*
X142397636Y-86016627D01*
X142330000Y-86356655D01*
X60660000Y-86356655D01*
X60660000Y-84300000D01*
X87050280Y-84300000D01*
X87077098Y-84572291D01*
X87156523Y-84834119D01*
X87285501Y-85075420D01*
X87459077Y-85286923D01*
X87670580Y-85460499D01*
X87911881Y-85589477D01*
X88173709Y-85668902D01*
X88377770Y-85689000D01*
X90022230Y-85689000D01*
X90226291Y-85668902D01*
X90488119Y-85589477D01*
X90729420Y-85460499D01*
X90940923Y-85286923D01*
X91114499Y-85075420D01*
X91243477Y-84834119D01*
X91322902Y-84572291D01*
X91339870Y-84400000D01*
X121150280Y-84400000D01*
X121177098Y-84672291D01*
X121256523Y-84934119D01*
X121385501Y-85175420D01*
X121559077Y-85386923D01*
X121770580Y-85560499D01*
X122011881Y-85689477D01*
X122273709Y-85768902D01*
X122477770Y-85789000D01*
X124122230Y-85789000D01*
X124326291Y-85768902D01*
X124588119Y-85689477D01*
X124829420Y-85560499D01*
X125040923Y-85386923D01*
X125214499Y-85175420D01*
X125343477Y-84934119D01*
X125422902Y-84672291D01*
X125449720Y-84400000D01*
X125422902Y-84127709D01*
X125343477Y-83865881D01*
X125214499Y-83624580D01*
X125040923Y-83413077D01*
X124829420Y-83239501D01*
X124588119Y-83110523D01*
X124326291Y-83031098D01*
X124122230Y-83011000D01*
X122477770Y-83011000D01*
X122273709Y-83031098D01*
X122011881Y-83110523D01*
X121770580Y-83239501D01*
X121559077Y-83413077D01*
X121385501Y-83624580D01*
X121256523Y-83865881D01*
X121177098Y-84127709D01*
X121150280Y-84400000D01*
X91339870Y-84400000D01*
X91349720Y-84300000D01*
X91322902Y-84027709D01*
X91243477Y-83765881D01*
X91114499Y-83524580D01*
X90940923Y-83313077D01*
X90729420Y-83139501D01*
X90488119Y-83010523D01*
X90226291Y-82931098D01*
X90022230Y-82911000D01*
X88377770Y-82911000D01*
X88173709Y-82931098D01*
X87911881Y-83010523D01*
X87670580Y-83139501D01*
X87459077Y-83313077D01*
X87285501Y-83524580D01*
X87156523Y-83765881D01*
X87077098Y-84027709D01*
X87050280Y-84300000D01*
X60660000Y-84300000D01*
X60660000Y-80907500D01*
X73009428Y-80907500D01*
X73009428Y-83232500D01*
X73021688Y-83356982D01*
X73057998Y-83476680D01*
X73116963Y-83586994D01*
X73196315Y-83683685D01*
X73293006Y-83763037D01*
X73403320Y-83822002D01*
X73523018Y-83858312D01*
X73647500Y-83870572D01*
X75972500Y-83870572D01*
X76096982Y-83858312D01*
X76216680Y-83822002D01*
X76326994Y-83763037D01*
X76423685Y-83683685D01*
X76503037Y-83586994D01*
X76562002Y-83476680D01*
X76598312Y-83356982D01*
X76610572Y-83232500D01*
X76610572Y-82754531D01*
X143045074Y-82754531D01*
X143155921Y-83031714D01*
X143466840Y-83185089D01*
X143801705Y-83274860D01*
X144147650Y-83297576D01*
X144491380Y-83252366D01*
X144819685Y-83140966D01*
X145024079Y-83031714D01*
X145134926Y-82754531D01*
X144090000Y-81709605D01*
X143045074Y-82754531D01*
X76610572Y-82754531D01*
X76610572Y-80907500D01*
X76598312Y-80783018D01*
X76562002Y-80663320D01*
X76503037Y-80553006D01*
X76423685Y-80456315D01*
X76326994Y-80376963D01*
X76216680Y-80317998D01*
X76096982Y-80281688D01*
X75972500Y-80269428D01*
X73647500Y-80269428D01*
X73523018Y-80281688D01*
X73403320Y-80317998D01*
X73293006Y-80376963D01*
X73196315Y-80456315D01*
X73116963Y-80553006D01*
X73057998Y-80663320D01*
X73021688Y-80783018D01*
X73009428Y-80907500D01*
X60660000Y-80907500D01*
X60660000Y-78392962D01*
X68012500Y-78392962D01*
X68012500Y-78747038D01*
X68081577Y-79094311D01*
X68217076Y-79421435D01*
X68413791Y-79715839D01*
X68664161Y-79966209D01*
X68958565Y-80162924D01*
X69285689Y-80298423D01*
X69632962Y-80367500D01*
X69987038Y-80367500D01*
X70334311Y-80298423D01*
X70661435Y-80162924D01*
X70955839Y-79966209D01*
X71206209Y-79715839D01*
X71402924Y-79421435D01*
X71538423Y-79094311D01*
X71596965Y-78800000D01*
X87050280Y-78800000D01*
X87077098Y-79072291D01*
X87156523Y-79334119D01*
X87285501Y-79575420D01*
X87459077Y-79786923D01*
X87670580Y-79960499D01*
X87911881Y-80089477D01*
X88173709Y-80168902D01*
X88377770Y-80189000D01*
X89119175Y-80189000D01*
X89077098Y-80327709D01*
X89050280Y-80600000D01*
X89077098Y-80872291D01*
X89156523Y-81134119D01*
X89285501Y-81375420D01*
X89459077Y-81586923D01*
X89670580Y-81760499D01*
X89911881Y-81889477D01*
X90173709Y-81968902D01*
X90377770Y-81989000D01*
X92022230Y-81989000D01*
X92226291Y-81968902D01*
X92488119Y-81889477D01*
X92729420Y-81760499D01*
X92940923Y-81586923D01*
X93114499Y-81375420D01*
X93243477Y-81134119D01*
X93322902Y-80872291D01*
X93349720Y-80600000D01*
X93322902Y-80327709D01*
X93243477Y-80065881D01*
X93114499Y-79824580D01*
X92940923Y-79613077D01*
X92729420Y-79439501D01*
X92488119Y-79310523D01*
X92226291Y-79231098D01*
X92022230Y-79211000D01*
X91280825Y-79211000D01*
X91322902Y-79072291D01*
X91339870Y-78900000D01*
X121150280Y-78900000D01*
X121177098Y-79172291D01*
X121256523Y-79434119D01*
X121385501Y-79675420D01*
X121559077Y-79886923D01*
X121770580Y-80060499D01*
X122011881Y-80189477D01*
X122273709Y-80268902D01*
X122477770Y-80289000D01*
X123219175Y-80289000D01*
X123177098Y-80427709D01*
X123150280Y-80700000D01*
X123177098Y-80972291D01*
X123256523Y-81234119D01*
X123385501Y-81475420D01*
X123559077Y-81686923D01*
X123770580Y-81860499D01*
X124011881Y-81989477D01*
X124273709Y-82068902D01*
X124477770Y-82089000D01*
X126122230Y-82089000D01*
X126326291Y-82068902D01*
X126588119Y-81989477D01*
X126829420Y-81860499D01*
X127040923Y-81686923D01*
X127122394Y-81587650D01*
X142322424Y-81587650D01*
X142367634Y-81931380D01*
X142479034Y-82259685D01*
X142588286Y-82464079D01*
X142865469Y-82574926D01*
X143910395Y-81530000D01*
X144269605Y-81530000D01*
X145314531Y-82574926D01*
X145591714Y-82464079D01*
X145745089Y-82153160D01*
X145834860Y-81818295D01*
X145857576Y-81472350D01*
X145812366Y-81128620D01*
X145700966Y-80800315D01*
X145591714Y-80595921D01*
X145314531Y-80485074D01*
X144269605Y-81530000D01*
X143910395Y-81530000D01*
X142865469Y-80485074D01*
X142588286Y-80595921D01*
X142434911Y-80906840D01*
X142345140Y-81241705D01*
X142322424Y-81587650D01*
X127122394Y-81587650D01*
X127214499Y-81475420D01*
X127343477Y-81234119D01*
X127422902Y-80972291D01*
X127449720Y-80700000D01*
X127422902Y-80427709D01*
X127385821Y-80305469D01*
X143045074Y-80305469D01*
X144090000Y-81350395D01*
X145134926Y-80305469D01*
X145024079Y-80028286D01*
X144713160Y-79874911D01*
X144378295Y-79785140D01*
X144032350Y-79762424D01*
X143688620Y-79807634D01*
X143360315Y-79919034D01*
X143155921Y-80028286D01*
X143045074Y-80305469D01*
X127385821Y-80305469D01*
X127343477Y-80165881D01*
X127214499Y-79924580D01*
X127040923Y-79713077D01*
X126829420Y-79539501D01*
X126588119Y-79410523D01*
X126326291Y-79331098D01*
X126122230Y-79311000D01*
X125380825Y-79311000D01*
X125422902Y-79172291D01*
X125449720Y-78900000D01*
X125422902Y-78627709D01*
X125343477Y-78365881D01*
X125214499Y-78124580D01*
X125040923Y-77913077D01*
X124847735Y-77754531D01*
X143045074Y-77754531D01*
X143155921Y-78031714D01*
X143466840Y-78185089D01*
X143801705Y-78274860D01*
X144147650Y-78297576D01*
X144491380Y-78252366D01*
X144819685Y-78140966D01*
X145024079Y-78031714D01*
X145134926Y-77754531D01*
X144090000Y-76709605D01*
X143045074Y-77754531D01*
X124847735Y-77754531D01*
X124829420Y-77739501D01*
X124588119Y-77610523D01*
X124326291Y-77531098D01*
X124122230Y-77511000D01*
X122477770Y-77511000D01*
X122273709Y-77531098D01*
X122011881Y-77610523D01*
X121770580Y-77739501D01*
X121559077Y-77913077D01*
X121385501Y-78124580D01*
X121256523Y-78365881D01*
X121177098Y-78627709D01*
X121150280Y-78900000D01*
X91339870Y-78900000D01*
X91349720Y-78800000D01*
X91322902Y-78527709D01*
X91243477Y-78265881D01*
X91114499Y-78024580D01*
X90940923Y-77813077D01*
X90729420Y-77639501D01*
X90488119Y-77510523D01*
X90226291Y-77431098D01*
X90022230Y-77411000D01*
X88377770Y-77411000D01*
X88173709Y-77431098D01*
X87911881Y-77510523D01*
X87670580Y-77639501D01*
X87459077Y-77813077D01*
X87285501Y-78024580D01*
X87156523Y-78265881D01*
X87077098Y-78527709D01*
X87050280Y-78800000D01*
X71596965Y-78800000D01*
X71607500Y-78747038D01*
X71607500Y-78392962D01*
X71538423Y-78045689D01*
X71402924Y-77718565D01*
X71206209Y-77424161D01*
X70955839Y-77173791D01*
X70661435Y-76977076D01*
X70334311Y-76841577D01*
X69987038Y-76772500D01*
X69632962Y-76772500D01*
X69285689Y-76841577D01*
X68958565Y-76977076D01*
X68664161Y-77173791D01*
X68413791Y-77424161D01*
X68217076Y-77718565D01*
X68081577Y-78045689D01*
X68012500Y-78392962D01*
X60660000Y-78392962D01*
X60660000Y-75100000D01*
X89050280Y-75100000D01*
X89077098Y-75372291D01*
X89156523Y-75634119D01*
X89285501Y-75875420D01*
X89459077Y-76086923D01*
X89670580Y-76260499D01*
X89911881Y-76389477D01*
X90173709Y-76468902D01*
X90377770Y-76489000D01*
X92022230Y-76489000D01*
X92226291Y-76468902D01*
X92488119Y-76389477D01*
X92729420Y-76260499D01*
X92940923Y-76086923D01*
X93114499Y-75875420D01*
X93243477Y-75634119D01*
X93322902Y-75372291D01*
X93339870Y-75200000D01*
X123150280Y-75200000D01*
X123177098Y-75472291D01*
X123256523Y-75734119D01*
X123385501Y-75975420D01*
X123559077Y-76186923D01*
X123770580Y-76360499D01*
X124011881Y-76489477D01*
X124273709Y-76568902D01*
X124477770Y-76589000D01*
X126122230Y-76589000D01*
X126135936Y-76587650D01*
X142322424Y-76587650D01*
X142367634Y-76931380D01*
X142479034Y-77259685D01*
X142588286Y-77464079D01*
X142865469Y-77574926D01*
X143910395Y-76530000D01*
X144269605Y-76530000D01*
X145314531Y-77574926D01*
X145591714Y-77464079D01*
X145745089Y-77153160D01*
X145834860Y-76818295D01*
X145857576Y-76472350D01*
X145812366Y-76128620D01*
X145700966Y-75800315D01*
X145591714Y-75595921D01*
X145314531Y-75485074D01*
X144269605Y-76530000D01*
X143910395Y-76530000D01*
X142865469Y-75485074D01*
X142588286Y-75595921D01*
X142434911Y-75906840D01*
X142345140Y-76241705D01*
X142322424Y-76587650D01*
X126135936Y-76587650D01*
X126326291Y-76568902D01*
X126588119Y-76489477D01*
X126829420Y-76360499D01*
X127040923Y-76186923D01*
X127214499Y-75975420D01*
X127343477Y-75734119D01*
X127422902Y-75472291D01*
X127439332Y-75305469D01*
X143045074Y-75305469D01*
X144090000Y-76350395D01*
X145134926Y-75305469D01*
X145024079Y-75028286D01*
X144713160Y-74874911D01*
X144378295Y-74785140D01*
X144032350Y-74762424D01*
X143688620Y-74807634D01*
X143360315Y-74919034D01*
X143155921Y-75028286D01*
X143045074Y-75305469D01*
X127439332Y-75305469D01*
X127449720Y-75200000D01*
X127422902Y-74927709D01*
X127343477Y-74665881D01*
X127214499Y-74424580D01*
X127040923Y-74213077D01*
X126829420Y-74039501D01*
X126588119Y-73910523D01*
X126326291Y-73831098D01*
X126122230Y-73811000D01*
X125005672Y-73811000D01*
X125125974Y-73692369D01*
X125279469Y-73466091D01*
X125385870Y-73214215D01*
X125400286Y-73141814D01*
X125277677Y-72927000D01*
X123427000Y-72927000D01*
X123427000Y-74189000D01*
X123588415Y-74189000D01*
X123559077Y-74213077D01*
X123385501Y-74424580D01*
X123256523Y-74665881D01*
X123177098Y-74927709D01*
X123150280Y-75200000D01*
X93339870Y-75200000D01*
X93349720Y-75100000D01*
X93322902Y-74827709D01*
X93243477Y-74565881D01*
X93114499Y-74324580D01*
X92940923Y-74113077D01*
X92729420Y-73939501D01*
X92488119Y-73810523D01*
X92226291Y-73731098D01*
X92022230Y-73711000D01*
X90905672Y-73711000D01*
X91025974Y-73592369D01*
X91179469Y-73366091D01*
X91274211Y-73141814D01*
X121199714Y-73141814D01*
X121214130Y-73214215D01*
X121320531Y-73466091D01*
X121474026Y-73692369D01*
X121668716Y-73884354D01*
X121897120Y-74034668D01*
X122150460Y-74137534D01*
X122419000Y-74189000D01*
X123173000Y-74189000D01*
X123173000Y-72927000D01*
X121322323Y-72927000D01*
X121199714Y-73141814D01*
X91274211Y-73141814D01*
X91285870Y-73114215D01*
X91300286Y-73041814D01*
X91177677Y-72827000D01*
X89327000Y-72827000D01*
X89327000Y-74089000D01*
X89488415Y-74089000D01*
X89459077Y-74113077D01*
X89285501Y-74324580D01*
X89156523Y-74565881D01*
X89077098Y-74827709D01*
X89050280Y-75100000D01*
X60660000Y-75100000D01*
X60660000Y-75029392D01*
X60731173Y-74231917D01*
X60934656Y-73488109D01*
X61147528Y-73041814D01*
X87099714Y-73041814D01*
X87114130Y-73114215D01*
X87220531Y-73366091D01*
X87374026Y-73592369D01*
X87568716Y-73784354D01*
X87797120Y-73934668D01*
X88050460Y-74037534D01*
X88319000Y-74089000D01*
X89073000Y-74089000D01*
X89073000Y-72827000D01*
X87222323Y-72827000D01*
X87099714Y-73041814D01*
X61147528Y-73041814D01*
X61266638Y-72792095D01*
X61578433Y-72358186D01*
X87099714Y-72358186D01*
X87222323Y-72573000D01*
X89073000Y-72573000D01*
X89073000Y-71311000D01*
X89327000Y-71311000D01*
X89327000Y-72573000D01*
X91177677Y-72573000D01*
X91243209Y-72458186D01*
X121199714Y-72458186D01*
X121322323Y-72673000D01*
X123173000Y-72673000D01*
X123173000Y-71411000D01*
X123427000Y-71411000D01*
X123427000Y-72673000D01*
X125277677Y-72673000D01*
X125400286Y-72458186D01*
X125385870Y-72385785D01*
X125279469Y-72133909D01*
X125125974Y-71907631D01*
X124931284Y-71715646D01*
X124702880Y-71565332D01*
X124449540Y-71462466D01*
X124181000Y-71411000D01*
X123427000Y-71411000D01*
X123173000Y-71411000D01*
X122419000Y-71411000D01*
X122150460Y-71462466D01*
X121897120Y-71565332D01*
X121668716Y-71715646D01*
X121474026Y-71907631D01*
X121320531Y-72133909D01*
X121214130Y-72385785D01*
X121199714Y-72458186D01*
X91243209Y-72458186D01*
X91300286Y-72358186D01*
X91285870Y-72285785D01*
X91179469Y-72033909D01*
X91025974Y-71807631D01*
X90831284Y-71615646D01*
X90602880Y-71465332D01*
X90349540Y-71362466D01*
X90081000Y-71311000D01*
X89327000Y-71311000D01*
X89073000Y-71311000D01*
X88319000Y-71311000D01*
X88050460Y-71362466D01*
X87797120Y-71465332D01*
X87568716Y-71615646D01*
X87374026Y-71807631D01*
X87220531Y-72033909D01*
X87114130Y-72285785D01*
X87099714Y-72358186D01*
X61578433Y-72358186D01*
X61716626Y-72165870D01*
X62270403Y-71629223D01*
X62910451Y-71199129D01*
X63616553Y-70889171D01*
X64371457Y-70707935D01*
X65024207Y-70660000D01*
X144970608Y-70660000D01*
X145768083Y-70731173D01*
X145768083Y-70731173D01*
G37*
X145768083Y-70731173D02*
X146511891Y-70934656D01*
X147207905Y-71266638D01*
X147834130Y-71716626D01*
X148370777Y-72270403D01*
X148800871Y-72910451D01*
X149110829Y-73616553D01*
X149292065Y-74371457D01*
X149340001Y-75024220D01*
X149340000Y-139970608D01*
X149268827Y-140768083D01*
X149065344Y-141511890D01*
X148733363Y-142207904D01*
X148283374Y-142834130D01*
X147729597Y-143370777D01*
X147089549Y-143800871D01*
X146383447Y-144110829D01*
X145628543Y-144292065D01*
X144975793Y-144340000D01*
X65029392Y-144340000D01*
X64231917Y-144268827D01*
X63488110Y-144065344D01*
X62792096Y-143733363D01*
X62165870Y-143283374D01*
X61629223Y-142729597D01*
X61199129Y-142089549D01*
X60889171Y-141383447D01*
X60707935Y-140628543D01*
X60660000Y-139975793D01*
X60660000Y-139952033D01*
X65227572Y-139952033D01*
X65545757Y-140405850D01*
X66150210Y-140731269D01*
X66806535Y-140932512D01*
X67489510Y-141001845D01*
X68172888Y-140936605D01*
X68830407Y-140739298D01*
X69281345Y-140500000D01*
X103311928Y-140500000D01*
X103311928Y-142200000D01*
X103324188Y-142324482D01*
X103360498Y-142444180D01*
X103419463Y-142554494D01*
X103498815Y-142651185D01*
X103595506Y-142730537D01*
X103705820Y-142789502D01*
X103825518Y-142825812D01*
X103950000Y-142838072D01*
X105650000Y-142838072D01*
X105774482Y-142825812D01*
X105894180Y-142789502D01*
X106004494Y-142730537D01*
X106101185Y-142651185D01*
X106180537Y-142554494D01*
X106239502Y-142444180D01*
X106275812Y-142324482D01*
X106288072Y-142200000D01*
X106288072Y-140540000D01*
X108641928Y-140540000D01*
X108641928Y-142240000D01*
X108654188Y-142364482D01*
X108690498Y-142484180D01*
X108749463Y-142594494D01*
X108828815Y-142691185D01*
X108925506Y-142770537D01*
X109035820Y-142829502D01*
X109155518Y-142865812D01*
X109280000Y-142878072D01*
X110980000Y-142878072D01*
X111104482Y-142865812D01*
X111224180Y-142829502D01*
X111334494Y-142770537D01*
X111431185Y-142691185D01*
X111510537Y-142594494D01*
X111569502Y-142484180D01*
X111605812Y-142364482D01*
X111618072Y-142240000D01*
X111618072Y-140540000D01*
X111605812Y-140415518D01*
X111569502Y-140295820D01*
X111510537Y-140185506D01*
X111431185Y-140088815D01*
X111334494Y-140009463D01*
X111224180Y-139950498D01*
X111104482Y-139914188D01*
X110980000Y-139901928D01*
X109280000Y-139901928D01*
X109155518Y-139914188D01*
X109035820Y-139950498D01*
X108925506Y-140009463D01*
X108828815Y-140088815D01*
X108749463Y-140185506D01*
X108690498Y-140295820D01*
X108654188Y-140415518D01*
X108641928Y-140540000D01*
X106288072Y-140540000D01*
X106288072Y-140500000D01*
X106275812Y-140375518D01*
X106239502Y-140255820D01*
X106180537Y-140145506D01*
X106101185Y-140048815D01*
X106004494Y-139969463D01*
X105894180Y-139910498D01*
X105774482Y-139874188D01*
X105650000Y-139861928D01*
X103950000Y-139861928D01*
X103825518Y-139874188D01*
X103705820Y-139910498D01*
X103595506Y-139969463D01*
X103498815Y-140048815D01*
X103419463Y-140145506D01*
X103360498Y-140255820D01*
X103324188Y-140375518D01*
X103311928Y-140500000D01*
X69281345Y-140500000D01*
X69436799Y-140417506D01*
X69454243Y-140405850D01*
X69772428Y-139952033D01*
X67500000Y-137679605D01*
X65227572Y-139952033D01*
X60660000Y-139952033D01*
X60660000Y-137489510D01*
X63998155Y-137489510D01*
X64063395Y-138172888D01*
X64260702Y-138830407D01*
X64582494Y-139436799D01*
X64594150Y-139454243D01*
X65047967Y-139772428D01*
X67320395Y-137500000D01*
X67679605Y-137500000D01*
X69952033Y-139772428D01*
X70405850Y-139454243D01*
X70731269Y-138849790D01*
X70795595Y-138640000D01*
X131327815Y-138640000D01*
X131356487Y-138931111D01*
X131441401Y-139211034D01*
X131579294Y-139469014D01*
X131764866Y-139695134D01*
X131794687Y-139719607D01*
X131725820Y-139740498D01*
X131615506Y-139799463D01*
X131518815Y-139878815D01*
X131439463Y-139975506D01*
X131380498Y-140085820D01*
X131344188Y-140205518D01*
X131331928Y-140330000D01*
X131331928Y-142030000D01*
X131344188Y-142154482D01*
X131380498Y-142274180D01*
X131439463Y-142384494D01*
X131518815Y-142481185D01*
X131615506Y-142560537D01*
X131725820Y-142619502D01*
X131845518Y-142655812D01*
X131970000Y-142668072D01*
X133670000Y-142668072D01*
X133794482Y-142655812D01*
X133914180Y-142619502D01*
X134024494Y-142560537D01*
X134121185Y-142481185D01*
X134200537Y-142384494D01*
X134259502Y-142274180D01*
X134295812Y-142154482D01*
X134308072Y-142030000D01*
X134308072Y-140760000D01*
X138241928Y-140760000D01*
X138241928Y-142460000D01*
X138254188Y-142584482D01*
X138290498Y-142704180D01*
X138349463Y-142814494D01*
X138428815Y-142911185D01*
X138525506Y-142990537D01*
X138635820Y-143049502D01*
X138755518Y-143085812D01*
X138880000Y-143098072D01*
X140580000Y-143098072D01*
X140704482Y-143085812D01*
X140824180Y-143049502D01*
X140934494Y-142990537D01*
X141031185Y-142911185D01*
X141110537Y-142814494D01*
X141169502Y-142704180D01*
X141190393Y-142635313D01*
X141214866Y-142665134D01*
X141440986Y-142850706D01*
X141698966Y-142988599D01*
X141978889Y-143073513D01*
X142197050Y-143095000D01*
X142342950Y-143095000D01*
X142561111Y-143073513D01*
X142841034Y-142988599D01*
X143099014Y-142850706D01*
X143325134Y-142665134D01*
X143510706Y-142439014D01*
X143648599Y-142181034D01*
X143733513Y-141901111D01*
X143762185Y-141610000D01*
X143733513Y-141318889D01*
X143648599Y-141038966D01*
X143510706Y-140780986D01*
X143325134Y-140554866D01*
X143099014Y-140369294D01*
X142841034Y-140231401D01*
X142561111Y-140146487D01*
X142342950Y-140125000D01*
X142197050Y-140125000D01*
X141978889Y-140146487D01*
X141698966Y-140231401D01*
X141440986Y-140369294D01*
X141214866Y-140554866D01*
X141190393Y-140584687D01*
X141169502Y-140515820D01*
X141110537Y-140405506D01*
X141031185Y-140308815D01*
X140934494Y-140229463D01*
X140824180Y-140170498D01*
X140704482Y-140134188D01*
X140580000Y-140121928D01*
X138880000Y-140121928D01*
X138755518Y-140134188D01*
X138635820Y-140170498D01*
X138525506Y-140229463D01*
X138428815Y-140308815D01*
X138349463Y-140405506D01*
X138290498Y-140515820D01*
X138254188Y-140635518D01*
X138241928Y-140760000D01*
X134308072Y-140760000D01*
X134308072Y-140330000D01*
X134295812Y-140205518D01*
X134259502Y-140085820D01*
X134200537Y-139975506D01*
X134121185Y-139878815D01*
X134024494Y-139799463D01*
X133914180Y-139740498D01*
X133845313Y-139719607D01*
X133875134Y-139695134D01*
X134060706Y-139469014D01*
X134198599Y-139211034D01*
X134283513Y-138931111D01*
X134312185Y-138640000D01*
X134283513Y-138348889D01*
X134198599Y-138068966D01*
X134060706Y-137810986D01*
X133875134Y-137584866D01*
X133649014Y-137399294D01*
X133584477Y-137364799D01*
X133701355Y-137295178D01*
X133917588Y-137100269D01*
X134091641Y-136866920D01*
X134216825Y-136604099D01*
X134261476Y-136456890D01*
X134140155Y-136227000D01*
X132947000Y-136227000D01*
X132947000Y-136247000D01*
X132693000Y-136247000D01*
X132693000Y-136227000D01*
X131499845Y-136227000D01*
X131378524Y-136456890D01*
X131423175Y-136604099D01*
X131548359Y-136866920D01*
X131722412Y-137100269D01*
X131938645Y-137295178D01*
X132055523Y-137364799D01*
X131990986Y-137399294D01*
X131764866Y-137584866D01*
X131579294Y-137810986D01*
X131441401Y-138068966D01*
X131356487Y-138348889D01*
X131327815Y-138640000D01*
X70795595Y-138640000D01*
X70932512Y-138193465D01*
X71001845Y-137510490D01*
X70936605Y-136827112D01*
X70739298Y-136169593D01*
X70417506Y-135563201D01*
X70405850Y-135545757D01*
X69952033Y-135227572D01*
X67679605Y-137500000D01*
X67320395Y-137500000D01*
X65047967Y-135227572D01*
X64594150Y-135545757D01*
X64268731Y-136150210D01*
X64067488Y-136806535D01*
X63998155Y-137489510D01*
X60660000Y-137489510D01*
X60660000Y-135047967D01*
X65227572Y-135047967D01*
X67500000Y-137320395D01*
X69772428Y-135047967D01*
X69454243Y-134594150D01*
X68849790Y-134268731D01*
X68193465Y-134067488D01*
X67510490Y-133998155D01*
X66827112Y-134063395D01*
X66169593Y-134260702D01*
X65563201Y-134582494D01*
X65545757Y-134594150D01*
X65227572Y-135047967D01*
X60660000Y-135047967D01*
X60660000Y-124280000D01*
X72477815Y-124280000D01*
X72506487Y-124571111D01*
X72591401Y-124851034D01*
X72729294Y-125109014D01*
X72914866Y-125335134D01*
X73140986Y-125520706D01*
X73195791Y-125550000D01*
X73140986Y-125579294D01*
X72914866Y-125764866D01*
X72729294Y-125990986D01*
X72591401Y-126248966D01*
X72506487Y-126528889D01*
X72477815Y-126820000D01*
X72506487Y-127111111D01*
X72591401Y-127391034D01*
X72729294Y-127649014D01*
X72914866Y-127875134D01*
X73140986Y-128060706D01*
X73195791Y-128090000D01*
X73140986Y-128119294D01*
X72914866Y-128304866D01*
X72729294Y-128530986D01*
X72591401Y-128788966D01*
X72506487Y-129068889D01*
X72477815Y-129360000D01*
X72506487Y-129651111D01*
X72591401Y-129931034D01*
X72729294Y-130189014D01*
X72914866Y-130415134D01*
X73140986Y-130600706D01*
X73195791Y-130630000D01*
X73140986Y-130659294D01*
X72914866Y-130844866D01*
X72729294Y-131070986D01*
X72591401Y-131328966D01*
X72506487Y-131608889D01*
X72477815Y-131900000D01*
X72506487Y-132191111D01*
X72591401Y-132471034D01*
X72729294Y-132729014D01*
X72914866Y-132955134D01*
X73140986Y-133140706D01*
X73195791Y-133170000D01*
X73140986Y-133199294D01*
X72914866Y-133384866D01*
X72729294Y-133610986D01*
X72591401Y-133868966D01*
X72506487Y-134148889D01*
X72477815Y-134440000D01*
X72506487Y-134731111D01*
X72591401Y-135011034D01*
X72729294Y-135269014D01*
X72914866Y-135495134D01*
X73140986Y-135680706D01*
X73195791Y-135710000D01*
X73140986Y-135739294D01*
X72914866Y-135924866D01*
X72729294Y-136150986D01*
X72591401Y-136408966D01*
X72506487Y-136688889D01*
X72477815Y-136980000D01*
X72506487Y-137271111D01*
X72591401Y-137551034D01*
X72729294Y-137809014D01*
X72914866Y-138035134D01*
X73140986Y-138220706D01*
X73398966Y-138358599D01*
X73678889Y-138443513D01*
X73897050Y-138465000D01*
X74042950Y-138465000D01*
X74261111Y-138443513D01*
X74541034Y-138358599D01*
X74799014Y-138220706D01*
X75025134Y-138035134D01*
X75210706Y-137809014D01*
X75348599Y-137551034D01*
X75433513Y-137271111D01*
X75462185Y-136980000D01*
X75433513Y-136688889D01*
X75348599Y-136408966D01*
X75210706Y-136150986D01*
X75025134Y-135924866D01*
X74799014Y-135739294D01*
X74744209Y-135710000D01*
X74799014Y-135680706D01*
X75025134Y-135495134D01*
X75210706Y-135269014D01*
X75248631Y-135198061D01*
X106395000Y-135198061D01*
X106395000Y-135401939D01*
X106434774Y-135601898D01*
X106512795Y-135790256D01*
X106545000Y-135838455D01*
X106545001Y-136771545D01*
X106512795Y-136819744D01*
X106434774Y-137008102D01*
X106395000Y-137208061D01*
X106395000Y-137411939D01*
X106434774Y-137611898D01*
X106512795Y-137800256D01*
X106626063Y-137969774D01*
X106770226Y-138113937D01*
X106939744Y-138227205D01*
X107128102Y-138305226D01*
X107328061Y-138345000D01*
X107531939Y-138345000D01*
X107731898Y-138305226D01*
X107920256Y-138227205D01*
X108054078Y-138137789D01*
X108070226Y-138153937D01*
X108239744Y-138267205D01*
X108428102Y-138345226D01*
X108628061Y-138385000D01*
X108831939Y-138385000D01*
X109031898Y-138345226D01*
X109220256Y-138267205D01*
X109389774Y-138153937D01*
X109533937Y-138009774D01*
X109647205Y-137840256D01*
X109725226Y-137651898D01*
X109765000Y-137451939D01*
X109765000Y-137248061D01*
X109731571Y-137080000D01*
X111959509Y-137080000D01*
X111981423Y-137302498D01*
X112046324Y-137516446D01*
X112151717Y-137713622D01*
X112258012Y-137843143D01*
X112268004Y-137853135D01*
X112303551Y-137896449D01*
X112476377Y-138038284D01*
X112673553Y-138143676D01*
X112856860Y-138199282D01*
X112887501Y-138208577D01*
X113109999Y-138230491D01*
X113165751Y-138225000D01*
X115375752Y-138225000D01*
X115542499Y-138208577D01*
X115756447Y-138143676D01*
X115953623Y-138038284D01*
X116126449Y-137896449D01*
X116268284Y-137723623D01*
X116373676Y-137526447D01*
X116438577Y-137312499D01*
X116460491Y-137090000D01*
X116438577Y-136867501D01*
X116373676Y-136653553D01*
X116268284Y-136456377D01*
X116126449Y-136283551D01*
X115953623Y-136141716D01*
X115756447Y-136036324D01*
X115542499Y-135971423D01*
X115375752Y-135955000D01*
X113257284Y-135955000D01*
X113100000Y-135939509D01*
X112877502Y-135961423D01*
X112663554Y-136026324D01*
X112466378Y-136131717D01*
X112293552Y-136273552D01*
X112151717Y-136446378D01*
X112046324Y-136643554D01*
X111981423Y-136857502D01*
X111959509Y-137080000D01*
X109731571Y-137080000D01*
X109725226Y-137048102D01*
X109647205Y-136859744D01*
X109615000Y-136811546D01*
X109615000Y-135808454D01*
X109647205Y-135760256D01*
X109654307Y-135743110D01*
X131378524Y-135743110D01*
X131499845Y-135973000D01*
X132693000Y-135973000D01*
X132693000Y-134779186D01*
X132947000Y-134779186D01*
X132947000Y-135973000D01*
X134140155Y-135973000D01*
X134261476Y-135743110D01*
X134216825Y-135595901D01*
X134091641Y-135333080D01*
X133917588Y-135099731D01*
X133701355Y-134904822D01*
X133451252Y-134755843D01*
X133176891Y-134658519D01*
X132947000Y-134779186D01*
X132693000Y-134779186D01*
X132463109Y-134658519D01*
X132188748Y-134755843D01*
X131938645Y-134904822D01*
X131722412Y-135099731D01*
X131548359Y-135333080D01*
X131423175Y-135595901D01*
X131378524Y-135743110D01*
X109654307Y-135743110D01*
X109725226Y-135571898D01*
X109765000Y-135371939D01*
X109765000Y-135168061D01*
X109725226Y-134968102D01*
X109647205Y-134779744D01*
X109533937Y-134610226D01*
X109389774Y-134466063D01*
X109220256Y-134352795D01*
X109031898Y-134274774D01*
X108831939Y-134235000D01*
X108628061Y-134235000D01*
X108428102Y-134274774D01*
X108239744Y-134352795D01*
X108070226Y-134466063D01*
X108060072Y-134476217D01*
X107920256Y-134382795D01*
X107731898Y-134304774D01*
X107531939Y-134265000D01*
X107328061Y-134265000D01*
X107128102Y-134304774D01*
X106939744Y-134382795D01*
X106770226Y-134496063D01*
X106626063Y-134640226D01*
X106512795Y-134809744D01*
X106434774Y-134998102D01*
X106395000Y-135198061D01*
X75248631Y-135198061D01*
X75348599Y-135011034D01*
X75433513Y-134731111D01*
X75462185Y-134440000D01*
X75433513Y-134148889D01*
X75348599Y-133868966D01*
X75210706Y-133610986D01*
X75025134Y-133384866D01*
X74799014Y-133199294D01*
X74744209Y-133170000D01*
X74799014Y-133140706D01*
X75025134Y-132955134D01*
X75210706Y-132729014D01*
X75348599Y-132471034D01*
X75433513Y-132191111D01*
X75462185Y-131900000D01*
X75433513Y-131608889D01*
X75348599Y-131328966D01*
X75210706Y-131070986D01*
X75025134Y-130844866D01*
X74799014Y-130659294D01*
X74744209Y-130630000D01*
X74799014Y-130600706D01*
X75025134Y-130415134D01*
X75210706Y-130189014D01*
X75348599Y-129931034D01*
X75433513Y-129651111D01*
X75462185Y-129360000D01*
X75433513Y-129068889D01*
X75348599Y-128788966D01*
X75210706Y-128530986D01*
X75025134Y-128304866D01*
X74799014Y-128119294D01*
X74744209Y-128090000D01*
X74799014Y-128060706D01*
X75025134Y-127875134D01*
X75210706Y-127649014D01*
X75348599Y-127391034D01*
X75433513Y-127111111D01*
X75462185Y-126820000D01*
X75433513Y-126528889D01*
X75348599Y-126248966D01*
X75210706Y-125990986D01*
X75025134Y-125764866D01*
X74799014Y-125579294D01*
X74744209Y-125550000D01*
X74799014Y-125520706D01*
X75025134Y-125335134D01*
X75210706Y-125109014D01*
X75348599Y-124851034D01*
X75433513Y-124571111D01*
X75462185Y-124280000D01*
X75433513Y-123988889D01*
X75348599Y-123708966D01*
X75210706Y-123450986D01*
X75025134Y-123224866D01*
X74995313Y-123200393D01*
X75064180Y-123179502D01*
X75174494Y-123120537D01*
X75271185Y-123041185D01*
X75350537Y-122944494D01*
X75409502Y-122834180D01*
X75445812Y-122714482D01*
X75458072Y-122590000D01*
X75458072Y-121359999D01*
X77359510Y-121359999D01*
X77365001Y-121415751D01*
X77365002Y-131154240D01*
X77359510Y-131210001D01*
X77381424Y-131432499D01*
X77446325Y-131646447D01*
X77446326Y-131646448D01*
X77551718Y-131843624D01*
X77693553Y-132016450D01*
X77736860Y-132051991D01*
X78028008Y-132343140D01*
X78063551Y-132386449D01*
X78236377Y-132528284D01*
X78433553Y-132633676D01*
X78647501Y-132698577D01*
X78870000Y-132720491D01*
X79092499Y-132698577D01*
X79306447Y-132633676D01*
X79503623Y-132528284D01*
X79676449Y-132386449D01*
X79818284Y-132213623D01*
X79923676Y-132016447D01*
X79988577Y-131802499D01*
X80010491Y-131580000D01*
X79988577Y-131357501D01*
X79923676Y-131143554D01*
X79923676Y-131143553D01*
X79818284Y-130946377D01*
X79676449Y-130773551D01*
X79635001Y-130739535D01*
X79635001Y-127478061D01*
X94375000Y-127478061D01*
X94375000Y-127681939D01*
X94414774Y-127881898D01*
X94492795Y-128070256D01*
X94606063Y-128239774D01*
X94750226Y-128383937D01*
X94919744Y-128497205D01*
X95108102Y-128575226D01*
X95164957Y-128586535D01*
X95222356Y-128643934D01*
X95124063Y-128742226D01*
X95010795Y-128911744D01*
X94932774Y-129100102D01*
X94893000Y-129300061D01*
X94893000Y-129503939D01*
X94932774Y-129703898D01*
X95010795Y-129892256D01*
X95124063Y-130061774D01*
X95268226Y-130205937D01*
X95437744Y-130319205D01*
X95626102Y-130397226D01*
X95826061Y-130437000D01*
X96029939Y-130437000D01*
X96229898Y-130397226D01*
X96418256Y-130319205D01*
X96454481Y-130295000D01*
X99151546Y-130295000D01*
X99199744Y-130327205D01*
X99388102Y-130405226D01*
X99588061Y-130445000D01*
X99791939Y-130445000D01*
X99991898Y-130405226D01*
X100180256Y-130327205D01*
X100349774Y-130213937D01*
X100493937Y-130069774D01*
X100607205Y-129900256D01*
X100685226Y-129711898D01*
X100695428Y-129660607D01*
X100818061Y-129685000D01*
X101021939Y-129685000D01*
X101221898Y-129645226D01*
X101410256Y-129567205D01*
X101579774Y-129453937D01*
X101723937Y-129309774D01*
X101763876Y-129250000D01*
X106479509Y-129250000D01*
X106501423Y-129472499D01*
X106566324Y-129686447D01*
X106671716Y-129883623D01*
X106813551Y-130056449D01*
X106986377Y-130198284D01*
X107183553Y-130303676D01*
X107397501Y-130368577D01*
X107564248Y-130385000D01*
X109245752Y-130385000D01*
X109412499Y-130368577D01*
X109626447Y-130303676D01*
X109823623Y-130198284D01*
X109996449Y-130056449D01*
X110138284Y-129883623D01*
X110243676Y-129686447D01*
X110308577Y-129472499D01*
X110330491Y-129250000D01*
X110308577Y-129027501D01*
X110243676Y-128813553D01*
X110138284Y-128616377D01*
X109996449Y-128443551D01*
X109823623Y-128301716D01*
X109626447Y-128196324D01*
X109412499Y-128131423D01*
X109245752Y-128115000D01*
X107564248Y-128115000D01*
X107397501Y-128131423D01*
X107183553Y-128196324D01*
X106986377Y-128301716D01*
X106813551Y-128443551D01*
X106671716Y-128616377D01*
X106566324Y-128813553D01*
X106501423Y-129027501D01*
X106479509Y-129250000D01*
X101763876Y-129250000D01*
X101837205Y-129140256D01*
X101915226Y-128951898D01*
X101955000Y-128751939D01*
X101955000Y-128548061D01*
X101915226Y-128348102D01*
X101837205Y-128159744D01*
X101723937Y-127990226D01*
X101579774Y-127846063D01*
X101410256Y-127732795D01*
X101345000Y-127705765D01*
X101345000Y-127558061D01*
X101305226Y-127358102D01*
X101227205Y-127169744D01*
X101188945Y-127112483D01*
X101237205Y-127040256D01*
X101315226Y-126851898D01*
X101331516Y-126770000D01*
X127299509Y-126770000D01*
X127321423Y-126992498D01*
X127386324Y-127206446D01*
X127491717Y-127403622D01*
X127633552Y-127576448D01*
X127806378Y-127718283D01*
X128003554Y-127823676D01*
X128217502Y-127888577D01*
X128440000Y-127910491D01*
X128662498Y-127888577D01*
X128876446Y-127823676D01*
X129073622Y-127718283D01*
X129203143Y-127611988D01*
X130813140Y-126001991D01*
X130856449Y-125966449D01*
X130998284Y-125793623D01*
X131103676Y-125596447D01*
X131163268Y-125400000D01*
X142637815Y-125400000D01*
X142666487Y-125691111D01*
X142751401Y-125971034D01*
X142889294Y-126229014D01*
X143074866Y-126455134D01*
X143300986Y-126640706D01*
X143355791Y-126670000D01*
X143300986Y-126699294D01*
X143074866Y-126884866D01*
X142889294Y-127110986D01*
X142751401Y-127368966D01*
X142666487Y-127648889D01*
X142637815Y-127940000D01*
X142666487Y-128231111D01*
X142751401Y-128511034D01*
X142889294Y-128769014D01*
X143074866Y-128995134D01*
X143300986Y-129180706D01*
X143355791Y-129210000D01*
X143300986Y-129239294D01*
X143074866Y-129424866D01*
X142889294Y-129650986D01*
X142751401Y-129908966D01*
X142666487Y-130188889D01*
X142637815Y-130480000D01*
X142666487Y-130771111D01*
X142751401Y-131051034D01*
X142889294Y-131309014D01*
X143074866Y-131535134D01*
X143300986Y-131720706D01*
X143558966Y-131858599D01*
X143838889Y-131943513D01*
X144057050Y-131965000D01*
X144202950Y-131965000D01*
X144421111Y-131943513D01*
X144701034Y-131858599D01*
X144959014Y-131720706D01*
X145185134Y-131535134D01*
X145370706Y-131309014D01*
X145508599Y-131051034D01*
X145593513Y-130771111D01*
X145622185Y-130480000D01*
X145593513Y-130188889D01*
X145508599Y-129908966D01*
X145370706Y-129650986D01*
X145185134Y-129424866D01*
X144959014Y-129239294D01*
X144904209Y-129210000D01*
X144959014Y-129180706D01*
X145185134Y-128995134D01*
X145370706Y-128769014D01*
X145508599Y-128511034D01*
X145593513Y-128231111D01*
X145622185Y-127940000D01*
X145593513Y-127648889D01*
X145508599Y-127368966D01*
X145370706Y-127110986D01*
X145185134Y-126884866D01*
X144959014Y-126699294D01*
X144904209Y-126670000D01*
X144959014Y-126640706D01*
X145185134Y-126455134D01*
X145370706Y-126229014D01*
X145508599Y-125971034D01*
X145593513Y-125691111D01*
X145622185Y-125400000D01*
X145593513Y-125108889D01*
X145508599Y-124828966D01*
X145370706Y-124570986D01*
X145185134Y-124344866D01*
X145155313Y-124320393D01*
X145224180Y-124299502D01*
X145334494Y-124240537D01*
X145431185Y-124161185D01*
X145510537Y-124064494D01*
X145569502Y-123954180D01*
X145605812Y-123834482D01*
X145618072Y-123710000D01*
X145618072Y-122010000D01*
X145605812Y-121885518D01*
X145569502Y-121765820D01*
X145510537Y-121655506D01*
X145431185Y-121558815D01*
X145334494Y-121479463D01*
X145224180Y-121420498D01*
X145104482Y-121384188D01*
X144980000Y-121371928D01*
X143280000Y-121371928D01*
X143155518Y-121384188D01*
X143035820Y-121420498D01*
X142925506Y-121479463D01*
X142828815Y-121558815D01*
X142749463Y-121655506D01*
X142690498Y-121765820D01*
X142654188Y-121885518D01*
X142641928Y-122010000D01*
X142641928Y-123710000D01*
X142654188Y-123834482D01*
X142690498Y-123954180D01*
X142749463Y-124064494D01*
X142828815Y-124161185D01*
X142925506Y-124240537D01*
X143035820Y-124299502D01*
X143104687Y-124320393D01*
X143074866Y-124344866D01*
X142889294Y-124570986D01*
X142751401Y-124828966D01*
X142666487Y-125108889D01*
X142637815Y-125400000D01*
X131163268Y-125400000D01*
X131168577Y-125382499D01*
X131185000Y-125215752D01*
X131190491Y-125160000D01*
X131185000Y-125104248D01*
X131185000Y-122525752D01*
X131190491Y-122470000D01*
X131168577Y-122247501D01*
X131103676Y-122033553D01*
X130998284Y-121836377D01*
X130856449Y-121663551D01*
X130683623Y-121521716D01*
X130486447Y-121416324D01*
X130272499Y-121351423D01*
X130105752Y-121335000D01*
X130105751Y-121335000D01*
X130050000Y-121329509D01*
X129994248Y-121335000D01*
X129827501Y-121351423D01*
X129613553Y-121416324D01*
X129416377Y-121521716D01*
X129243551Y-121663551D01*
X129101716Y-121836377D01*
X128996324Y-122033553D01*
X128931423Y-122247501D01*
X128909509Y-122470000D01*
X128915000Y-122525752D01*
X128915001Y-124689867D01*
X127598012Y-126006857D01*
X127491717Y-126136378D01*
X127386324Y-126333554D01*
X127321423Y-126547502D01*
X127299509Y-126770000D01*
X101331516Y-126770000D01*
X101355000Y-126651939D01*
X101355000Y-126448061D01*
X101315226Y-126248102D01*
X101237205Y-126059744D01*
X101123937Y-125890226D01*
X100979774Y-125746063D01*
X100810256Y-125632795D01*
X100621898Y-125554774D01*
X100421939Y-125515000D01*
X100218061Y-125515000D01*
X100018102Y-125554774D01*
X99829744Y-125632795D01*
X99781546Y-125665000D01*
X97636579Y-125665000D01*
X96756535Y-124784957D01*
X96745226Y-124728102D01*
X96667205Y-124539744D01*
X96553937Y-124370226D01*
X96409774Y-124226063D01*
X96240256Y-124112795D01*
X96051898Y-124034774D01*
X95851939Y-123995000D01*
X95648061Y-123995000D01*
X95448102Y-124034774D01*
X95259744Y-124112795D01*
X95090226Y-124226063D01*
X94946063Y-124370226D01*
X94832795Y-124539744D01*
X94754774Y-124728102D01*
X94715000Y-124928061D01*
X94715000Y-125131939D01*
X94754774Y-125331898D01*
X94832795Y-125520256D01*
X94834092Y-125522197D01*
X94696063Y-125660226D01*
X94582795Y-125829744D01*
X94504774Y-126018102D01*
X94465000Y-126218061D01*
X94465000Y-126421939D01*
X94504774Y-126621898D01*
X94582795Y-126810256D01*
X94636163Y-126890126D01*
X94606063Y-126920226D01*
X94492795Y-127089744D01*
X94414774Y-127278102D01*
X94375000Y-127478061D01*
X79635001Y-127478061D01*
X79635001Y-121830130D01*
X79741988Y-121723143D01*
X79848283Y-121593622D01*
X79953676Y-121396446D01*
X80018577Y-121182499D01*
X80040491Y-120960001D01*
X80018577Y-120737502D01*
X79953676Y-120523554D01*
X79848283Y-120326378D01*
X79736361Y-120190000D01*
X84169509Y-120190000D01*
X84191423Y-120412498D01*
X84256324Y-120626446D01*
X84361717Y-120823622D01*
X84451599Y-120933143D01*
X84503552Y-120996448D01*
X84546855Y-121031986D01*
X85296857Y-121781988D01*
X85426377Y-121888283D01*
X85623553Y-121993675D01*
X85837500Y-122058577D01*
X86059999Y-122080490D01*
X86282498Y-122058577D01*
X86496446Y-121993675D01*
X86693622Y-121888283D01*
X86866448Y-121746448D01*
X87008283Y-121573622D01*
X87113675Y-121376446D01*
X87178577Y-121162498D01*
X87200490Y-120939999D01*
X87178577Y-120717500D01*
X87113675Y-120503553D01*
X87008283Y-120306377D01*
X86901988Y-120176857D01*
X86465000Y-119739869D01*
X86465000Y-118564248D01*
X86448577Y-118397501D01*
X86383676Y-118183553D01*
X86278284Y-117986377D01*
X86136449Y-117813551D01*
X85963623Y-117671716D01*
X85766447Y-117566324D01*
X85552499Y-117501423D01*
X85330000Y-117479509D01*
X85107502Y-117501423D01*
X84893554Y-117566324D01*
X84696378Y-117671716D01*
X84523552Y-117813551D01*
X84381717Y-117986377D01*
X84276325Y-118183553D01*
X84211423Y-118397501D01*
X84195000Y-118564248D01*
X84195000Y-119955710D01*
X84191423Y-119967502D01*
X84169509Y-120190000D01*
X79736361Y-120190000D01*
X79706448Y-120153552D01*
X79533622Y-120011717D01*
X79336446Y-119906324D01*
X79122498Y-119841423D01*
X78899999Y-119819509D01*
X78677501Y-119841423D01*
X78463554Y-119906324D01*
X78266378Y-120011717D01*
X78136857Y-120118012D01*
X77736866Y-120518003D01*
X77693552Y-120553550D01*
X77551717Y-120726376D01*
X77481331Y-120858061D01*
X77446325Y-120923553D01*
X77381424Y-121137501D01*
X77359510Y-121359999D01*
X75458072Y-121359999D01*
X75458072Y-120890000D01*
X75445812Y-120765518D01*
X75409502Y-120645820D01*
X75350537Y-120535506D01*
X75271185Y-120438815D01*
X75174494Y-120359463D01*
X75064180Y-120300498D01*
X74944482Y-120264188D01*
X74820000Y-120251928D01*
X73120000Y-120251928D01*
X72995518Y-120264188D01*
X72875820Y-120300498D01*
X72765506Y-120359463D01*
X72668815Y-120438815D01*
X72589463Y-120535506D01*
X72530498Y-120645820D01*
X72494188Y-120765518D01*
X72481928Y-120890000D01*
X72481928Y-122590000D01*
X72494188Y-122714482D01*
X72530498Y-122834180D01*
X72589463Y-122944494D01*
X72668815Y-123041185D01*
X72765506Y-123120537D01*
X72875820Y-123179502D01*
X72944687Y-123200393D01*
X72914866Y-123224866D01*
X72729294Y-123450986D01*
X72591401Y-123708966D01*
X72506487Y-123988889D01*
X72477815Y-124280000D01*
X60660000Y-124280000D01*
X60660000Y-114500000D01*
X72341928Y-114500000D01*
X72341928Y-116200000D01*
X72354188Y-116324482D01*
X72390498Y-116444180D01*
X72449463Y-116554494D01*
X72528815Y-116651185D01*
X72625506Y-116730537D01*
X72735820Y-116789502D01*
X72855518Y-116825812D01*
X72980000Y-116838072D01*
X74680000Y-116838072D01*
X74804482Y-116825812D01*
X74924180Y-116789502D01*
X75034494Y-116730537D01*
X75131185Y-116651185D01*
X75210537Y-116554494D01*
X75269502Y-116444180D01*
X75305812Y-116324482D01*
X75318072Y-116200000D01*
X75318072Y-115690000D01*
X109559509Y-115690000D01*
X109581423Y-115912498D01*
X109646324Y-116126446D01*
X109751717Y-116323622D01*
X109893552Y-116496448D01*
X110066378Y-116638283D01*
X110263554Y-116743676D01*
X110477502Y-116808577D01*
X110700000Y-116830491D01*
X110922498Y-116808577D01*
X111136446Y-116743676D01*
X111333622Y-116638283D01*
X111463143Y-116531988D01*
X111480131Y-116515000D01*
X113295752Y-116515000D01*
X113462499Y-116498577D01*
X113676447Y-116433676D01*
X113873623Y-116328284D01*
X114046449Y-116186449D01*
X114188284Y-116013623D01*
X114293676Y-115816447D01*
X114358577Y-115602499D01*
X114380491Y-115380000D01*
X114358577Y-115157501D01*
X114293676Y-114943553D01*
X114188284Y-114746377D01*
X114046449Y-114573551D01*
X113873623Y-114431716D01*
X113676447Y-114326324D01*
X113462499Y-114261423D01*
X113295752Y-114245000D01*
X111065743Y-114245000D01*
X111009999Y-114239510D01*
X110954255Y-114245000D01*
X110954248Y-114245000D01*
X110808493Y-114259356D01*
X110787500Y-114261423D01*
X110747106Y-114273677D01*
X110573553Y-114326324D01*
X110376377Y-114431716D01*
X110203551Y-114573551D01*
X110168004Y-114616865D01*
X109858012Y-114926857D01*
X109751717Y-115056378D01*
X109646324Y-115253554D01*
X109581423Y-115467502D01*
X109559509Y-115690000D01*
X75318072Y-115690000D01*
X75318072Y-114500000D01*
X75305812Y-114375518D01*
X75269502Y-114255820D01*
X75210537Y-114145506D01*
X75131185Y-114048815D01*
X75034494Y-113969463D01*
X74924180Y-113910498D01*
X74804482Y-113874188D01*
X74680000Y-113861928D01*
X72980000Y-113861928D01*
X72855518Y-113874188D01*
X72735820Y-113910498D01*
X72625506Y-113969463D01*
X72528815Y-114048815D01*
X72449463Y-114145506D01*
X72390498Y-114255820D01*
X72354188Y-114375518D01*
X72341928Y-114500000D01*
X60660000Y-114500000D01*
X60660000Y-113380000D01*
X87859509Y-113380000D01*
X87881423Y-113602499D01*
X87946324Y-113816447D01*
X88051716Y-114013623D01*
X88193551Y-114186449D01*
X88366377Y-114328284D01*
X88563553Y-114433676D01*
X88777501Y-114498577D01*
X88944248Y-114515000D01*
X91885752Y-114515000D01*
X92052499Y-114498577D01*
X92266447Y-114433676D01*
X92463623Y-114328284D01*
X92636449Y-114186449D01*
X92778284Y-114013623D01*
X92883676Y-113816447D01*
X92948577Y-113602499D01*
X92970491Y-113380000D01*
X92948577Y-113157501D01*
X92883676Y-112943553D01*
X92778284Y-112746377D01*
X92636449Y-112573551D01*
X92463623Y-112431716D01*
X92266447Y-112326324D01*
X92052499Y-112261423D01*
X91885752Y-112245000D01*
X88944248Y-112245000D01*
X88777501Y-112261423D01*
X88563553Y-112326324D01*
X88366377Y-112431716D01*
X88193551Y-112573551D01*
X88051716Y-112746377D01*
X87946324Y-112943553D01*
X87881423Y-113157501D01*
X87859509Y-113380000D01*
X60660000Y-113380000D01*
X60660000Y-105910000D01*
X98979509Y-105910000D01*
X99001423Y-106132498D01*
X99066324Y-106346446D01*
X99171717Y-106543622D01*
X99278012Y-106673143D01*
X100418008Y-107813140D01*
X100453551Y-107856449D01*
X100626377Y-107998284D01*
X100823553Y-108103676D01*
X101037501Y-108168577D01*
X101204248Y-108185000D01*
X101204257Y-108185000D01*
X101259999Y-108190490D01*
X101315741Y-108185000D01*
X106865752Y-108185000D01*
X107032499Y-108168577D01*
X107246447Y-108103676D01*
X107443623Y-107998284D01*
X107616449Y-107856449D01*
X107758284Y-107683623D01*
X107863676Y-107486447D01*
X107928577Y-107272499D01*
X107930792Y-107250000D01*
X121111928Y-107250000D01*
X121124188Y-107374482D01*
X121160498Y-107494180D01*
X121219463Y-107604494D01*
X121298815Y-107701185D01*
X121395506Y-107780537D01*
X121505820Y-107839502D01*
X121625518Y-107875812D01*
X121750000Y-107888072D01*
X122314250Y-107885000D01*
X122473000Y-107726250D01*
X122473000Y-106527000D01*
X122727000Y-106527000D01*
X122727000Y-107726250D01*
X122885750Y-107885000D01*
X123450000Y-107888072D01*
X123574482Y-107875812D01*
X123694180Y-107839502D01*
X123804494Y-107780537D01*
X123901185Y-107701185D01*
X123980537Y-107604494D01*
X124039502Y-107494180D01*
X124075812Y-107374482D01*
X124088072Y-107250000D01*
X124085000Y-106685750D01*
X123926250Y-106527000D01*
X122727000Y-106527000D01*
X122473000Y-106527000D01*
X121273750Y-106527000D01*
X121115000Y-106685750D01*
X121111928Y-107250000D01*
X107930792Y-107250000D01*
X107950491Y-107050000D01*
X107928577Y-106827501D01*
X107863676Y-106613553D01*
X107758284Y-106416377D01*
X107616449Y-106243551D01*
X107443623Y-106101716D01*
X107246447Y-105996324D01*
X107032499Y-105931423D01*
X106865752Y-105915000D01*
X101730132Y-105915000D01*
X101365132Y-105550000D01*
X121111928Y-105550000D01*
X121115000Y-106114250D01*
X121273750Y-106273000D01*
X122473000Y-106273000D01*
X122473000Y-105073750D01*
X122727000Y-105073750D01*
X122727000Y-106273000D01*
X123926250Y-106273000D01*
X124085000Y-106114250D01*
X124087636Y-105630000D01*
X127441928Y-105630000D01*
X127441928Y-107330000D01*
X127454188Y-107454482D01*
X127490498Y-107574180D01*
X127549463Y-107684494D01*
X127628815Y-107781185D01*
X127725506Y-107860537D01*
X127835820Y-107919502D01*
X127955518Y-107955812D01*
X128080000Y-107968072D01*
X129780000Y-107968072D01*
X129904482Y-107955812D01*
X130024180Y-107919502D01*
X130134494Y-107860537D01*
X130231185Y-107781185D01*
X130310537Y-107684494D01*
X130369502Y-107574180D01*
X130405812Y-107454482D01*
X130418072Y-107330000D01*
X130418072Y-105630000D01*
X130405812Y-105505518D01*
X130369502Y-105385820D01*
X130310537Y-105275506D01*
X130231185Y-105178815D01*
X130134494Y-105099463D01*
X130024180Y-105040498D01*
X129904482Y-105004188D01*
X129780000Y-104991928D01*
X128080000Y-104991928D01*
X127955518Y-105004188D01*
X127835820Y-105040498D01*
X127725506Y-105099463D01*
X127628815Y-105178815D01*
X127549463Y-105275506D01*
X127490498Y-105385820D01*
X127454188Y-105505518D01*
X127441928Y-105630000D01*
X124087636Y-105630000D01*
X124088072Y-105550000D01*
X124075812Y-105425518D01*
X124039502Y-105305820D01*
X123980537Y-105195506D01*
X123901185Y-105098815D01*
X123804494Y-105019463D01*
X123694180Y-104960498D01*
X123574482Y-104924188D01*
X123450000Y-104911928D01*
X122885750Y-104915000D01*
X122727000Y-105073750D01*
X122473000Y-105073750D01*
X122314250Y-104915000D01*
X121750000Y-104911928D01*
X121625518Y-104924188D01*
X121505820Y-104960498D01*
X121395506Y-105019463D01*
X121298815Y-105098815D01*
X121219463Y-105195506D01*
X121160498Y-105305820D01*
X121124188Y-105425518D01*
X121111928Y-105550000D01*
X101365132Y-105550000D01*
X100883143Y-105068012D01*
X100753622Y-104961717D01*
X100556446Y-104856324D01*
X100342498Y-104791423D01*
X100120000Y-104769509D01*
X99897502Y-104791423D01*
X99683554Y-104856324D01*
X99486378Y-104961717D01*
X99313552Y-105103552D01*
X99171717Y-105276378D01*
X99066324Y-105473554D01*
X99001423Y-105687502D01*
X98979509Y-105910000D01*
X60660000Y-105910000D01*
X60660000Y-100977000D01*
X61511000Y-100977000D01*
X61511000Y-101731000D01*
X61562466Y-101999540D01*
X61665332Y-102252880D01*
X61815646Y-102481284D01*
X62007631Y-102675974D01*
X62233909Y-102829469D01*
X62485785Y-102935870D01*
X62558186Y-102950286D01*
X62773000Y-102827677D01*
X62773000Y-100977000D01*
X63027000Y-100977000D01*
X63027000Y-102827677D01*
X63241814Y-102950286D01*
X63314215Y-102935870D01*
X63566091Y-102829469D01*
X63792369Y-102675974D01*
X63984354Y-102481284D01*
X64134668Y-102252880D01*
X64237534Y-101999540D01*
X64289000Y-101731000D01*
X64289000Y-100977000D01*
X63027000Y-100977000D01*
X62773000Y-100977000D01*
X61511000Y-100977000D01*
X60660000Y-100977000D01*
X60660000Y-99969000D01*
X61511000Y-99969000D01*
X61511000Y-100723000D01*
X62773000Y-100723000D01*
X62773000Y-98872323D01*
X63027000Y-98872323D01*
X63027000Y-100723000D01*
X64289000Y-100723000D01*
X64289000Y-100561584D01*
X64313078Y-100590923D01*
X64524581Y-100764499D01*
X64765882Y-100893477D01*
X65027710Y-100972902D01*
X65300000Y-100999720D01*
X65572291Y-100972902D01*
X65834119Y-100893477D01*
X66075420Y-100764499D01*
X66286923Y-100590923D01*
X66460499Y-100379420D01*
X66589477Y-100138119D01*
X66622950Y-100027771D01*
X67611000Y-100027771D01*
X67611000Y-101672230D01*
X67631098Y-101876291D01*
X67710524Y-102138119D01*
X67839502Y-102379420D01*
X68013078Y-102590923D01*
X68224581Y-102764499D01*
X68465882Y-102893477D01*
X68727710Y-102972902D01*
X69000000Y-102999720D01*
X69272291Y-102972902D01*
X69534119Y-102893477D01*
X69775420Y-102764499D01*
X69986923Y-102590923D01*
X70160499Y-102379420D01*
X70289477Y-102138119D01*
X70368902Y-101876291D01*
X70389000Y-101672230D01*
X70389000Y-100930825D01*
X70527710Y-100972902D01*
X70800000Y-100999720D01*
X71072291Y-100972902D01*
X71334119Y-100893477D01*
X71575420Y-100764499D01*
X71786923Y-100590923D01*
X71960499Y-100379420D01*
X72089477Y-100138119D01*
X72122950Y-100027771D01*
X73111000Y-100027771D01*
X73111000Y-101672230D01*
X73131098Y-101876291D01*
X73210524Y-102138119D01*
X73339502Y-102379420D01*
X73513078Y-102590923D01*
X73724581Y-102764499D01*
X73965882Y-102893477D01*
X74227710Y-102972902D01*
X74500000Y-102999720D01*
X74772291Y-102972902D01*
X75034119Y-102893477D01*
X75275420Y-102764499D01*
X75486923Y-102590923D01*
X75660499Y-102379420D01*
X75789477Y-102138119D01*
X75849576Y-101940000D01*
X135107815Y-101940000D01*
X135136487Y-102231111D01*
X135221401Y-102511034D01*
X135359294Y-102769014D01*
X135544866Y-102995134D01*
X135770986Y-103180706D01*
X136028966Y-103318599D01*
X136308889Y-103403513D01*
X136527050Y-103425000D01*
X136672950Y-103425000D01*
X136891111Y-103403513D01*
X137171034Y-103318599D01*
X137429014Y-103180706D01*
X137655134Y-102995134D01*
X137840706Y-102769014D01*
X137978599Y-102511034D01*
X138063513Y-102231111D01*
X138092185Y-101940000D01*
X138063513Y-101648889D01*
X137978599Y-101368966D01*
X137840706Y-101110986D01*
X137655134Y-100884866D01*
X137625313Y-100860393D01*
X137694180Y-100839502D01*
X137804494Y-100780537D01*
X137901185Y-100701185D01*
X137980537Y-100604494D01*
X138039502Y-100494180D01*
X138075812Y-100374482D01*
X138088072Y-100250000D01*
X138088072Y-98550000D01*
X138075812Y-98425518D01*
X138039502Y-98305820D01*
X137980537Y-98195506D01*
X137901185Y-98098815D01*
X137804494Y-98019463D01*
X137694180Y-97960498D01*
X137574482Y-97924188D01*
X137450000Y-97911928D01*
X135750000Y-97911928D01*
X135625518Y-97924188D01*
X135505820Y-97960498D01*
X135395506Y-98019463D01*
X135298815Y-98098815D01*
X135219463Y-98195506D01*
X135160498Y-98305820D01*
X135124188Y-98425518D01*
X135111928Y-98550000D01*
X135111928Y-100250000D01*
X135124188Y-100374482D01*
X135160498Y-100494180D01*
X135219463Y-100604494D01*
X135298815Y-100701185D01*
X135395506Y-100780537D01*
X135505820Y-100839502D01*
X135574687Y-100860393D01*
X135544866Y-100884866D01*
X135359294Y-101110986D01*
X135221401Y-101368966D01*
X135136487Y-101648889D01*
X135107815Y-101940000D01*
X75849576Y-101940000D01*
X75868902Y-101876291D01*
X75889000Y-101672230D01*
X75889000Y-100027770D01*
X75868902Y-99823709D01*
X75789477Y-99561881D01*
X75660499Y-99320580D01*
X75486922Y-99109077D01*
X75275419Y-98935501D01*
X75034118Y-98806523D01*
X74772290Y-98727098D01*
X74500000Y-98700280D01*
X74227709Y-98727098D01*
X73965881Y-98806523D01*
X73724580Y-98935501D01*
X73513077Y-99109078D01*
X73339501Y-99320581D01*
X73210523Y-99561882D01*
X73131098Y-99823710D01*
X73111000Y-100027771D01*
X72122950Y-100027771D01*
X72168902Y-99876291D01*
X72189000Y-99672230D01*
X72189000Y-98087500D01*
X119599428Y-98087500D01*
X119599428Y-100412500D01*
X119611688Y-100536982D01*
X119647998Y-100656680D01*
X119706963Y-100766994D01*
X119786315Y-100863685D01*
X119883006Y-100943037D01*
X119993320Y-101002002D01*
X120113018Y-101038312D01*
X120237500Y-101050572D01*
X122562500Y-101050572D01*
X122686982Y-101038312D01*
X122806680Y-101002002D01*
X122916994Y-100943037D01*
X123013685Y-100863685D01*
X123093037Y-100766994D01*
X123152002Y-100656680D01*
X123188312Y-100536982D01*
X123200572Y-100412500D01*
X123200572Y-98087500D01*
X123188312Y-97963018D01*
X123171596Y-97907911D01*
X144125000Y-97907911D01*
X144125000Y-98092089D01*
X144160932Y-98272729D01*
X144231414Y-98442889D01*
X144333738Y-98596028D01*
X144463972Y-98726262D01*
X144617111Y-98828586D01*
X144787271Y-98899068D01*
X144967911Y-98935000D01*
X145152089Y-98935000D01*
X145332729Y-98899068D01*
X145502889Y-98828586D01*
X145656028Y-98726262D01*
X145786262Y-98596028D01*
X145888586Y-98442889D01*
X145959068Y-98272729D01*
X145995000Y-98092089D01*
X145995000Y-97907911D01*
X145959068Y-97727271D01*
X145888586Y-97557111D01*
X145786262Y-97403972D01*
X145656028Y-97273738D01*
X145502889Y-97171414D01*
X145332729Y-97100932D01*
X145152089Y-97065000D01*
X144967911Y-97065000D01*
X144787271Y-97100932D01*
X144617111Y-97171414D01*
X144463972Y-97273738D01*
X144333738Y-97403972D01*
X144231414Y-97557111D01*
X144160932Y-97727271D01*
X144125000Y-97907911D01*
X123171596Y-97907911D01*
X123152002Y-97843320D01*
X123093037Y-97733006D01*
X123013685Y-97636315D01*
X122916994Y-97556963D01*
X122806680Y-97497998D01*
X122686982Y-97461688D01*
X122562500Y-97449428D01*
X120237500Y-97449428D01*
X120113018Y-97461688D01*
X119993320Y-97497998D01*
X119883006Y-97556963D01*
X119786315Y-97636315D01*
X119706963Y-97733006D01*
X119647998Y-97843320D01*
X119611688Y-97963018D01*
X119599428Y-98087500D01*
X72189000Y-98087500D01*
X72189000Y-98027770D01*
X72168902Y-97823709D01*
X72089477Y-97561881D01*
X71960499Y-97320580D01*
X71786922Y-97109077D01*
X71575419Y-96935501D01*
X71334118Y-96806523D01*
X71072290Y-96727098D01*
X70800000Y-96700280D01*
X70527709Y-96727098D01*
X70265881Y-96806523D01*
X70024580Y-96935501D01*
X69813077Y-97109078D01*
X69639501Y-97320581D01*
X69510523Y-97561882D01*
X69431098Y-97823710D01*
X69411000Y-98027771D01*
X69411000Y-98769175D01*
X69272290Y-98727098D01*
X69000000Y-98700280D01*
X68727709Y-98727098D01*
X68465881Y-98806523D01*
X68224580Y-98935501D01*
X68013077Y-99109078D01*
X67839501Y-99320581D01*
X67710523Y-99561882D01*
X67631098Y-99823710D01*
X67611000Y-100027771D01*
X66622950Y-100027771D01*
X66668902Y-99876291D01*
X66689000Y-99672230D01*
X66689000Y-98027770D01*
X66668902Y-97823709D01*
X66589477Y-97561881D01*
X66460499Y-97320580D01*
X66286922Y-97109077D01*
X66075419Y-96935501D01*
X65834118Y-96806523D01*
X65572290Y-96727098D01*
X65300000Y-96700280D01*
X65027709Y-96727098D01*
X64765881Y-96806523D01*
X64524580Y-96935501D01*
X64313077Y-97109078D01*
X64139501Y-97320581D01*
X64010523Y-97561882D01*
X63931098Y-97823710D01*
X63911000Y-98027771D01*
X63911000Y-99144328D01*
X63792369Y-99024026D01*
X63566091Y-98870531D01*
X63314215Y-98764130D01*
X63241814Y-98749714D01*
X63027000Y-98872323D01*
X62773000Y-98872323D01*
X62558186Y-98749714D01*
X62485785Y-98764130D01*
X62233909Y-98870531D01*
X62007631Y-99024026D01*
X61815646Y-99218716D01*
X61665332Y-99447120D01*
X61562466Y-99700460D01*
X61511000Y-99969000D01*
X60660000Y-99969000D01*
X60660000Y-94072962D01*
X123102500Y-94072962D01*
X123102500Y-94427038D01*
X123171577Y-94774311D01*
X123307076Y-95101435D01*
X123503791Y-95395839D01*
X123754161Y-95646209D01*
X124048565Y-95842924D01*
X124375689Y-95978423D01*
X124722962Y-96047500D01*
X125077038Y-96047500D01*
X125424311Y-95978423D01*
X125751435Y-95842924D01*
X126045839Y-95646209D01*
X126296209Y-95395839D01*
X126492924Y-95101435D01*
X126628423Y-94774311D01*
X126697500Y-94427038D01*
X126697500Y-94072962D01*
X126664670Y-93907911D01*
X144125000Y-93907911D01*
X144125000Y-94092089D01*
X144160932Y-94272729D01*
X144231414Y-94442889D01*
X144333738Y-94596028D01*
X144463972Y-94726262D01*
X144617111Y-94828586D01*
X144787271Y-94899068D01*
X144967911Y-94935000D01*
X145152089Y-94935000D01*
X145332729Y-94899068D01*
X145502889Y-94828586D01*
X145656028Y-94726262D01*
X145786262Y-94596028D01*
X145888586Y-94442889D01*
X145959068Y-94272729D01*
X145995000Y-94092089D01*
X145995000Y-93907911D01*
X145959068Y-93727271D01*
X145888586Y-93557111D01*
X145786262Y-93403972D01*
X145656028Y-93273738D01*
X145502889Y-93171414D01*
X145332729Y-93100932D01*
X145152089Y-93065000D01*
X144967911Y-93065000D01*
X144787271Y-93100932D01*
X144617111Y-93171414D01*
X144463972Y-93273738D01*
X144333738Y-93403972D01*
X144231414Y-93557111D01*
X144160932Y-93727271D01*
X144125000Y-93907911D01*
X126664670Y-93907911D01*
X126628423Y-93725689D01*
X126492924Y-93398565D01*
X126296209Y-93104161D01*
X126045839Y-92853791D01*
X125751435Y-92657076D01*
X125424311Y-92521577D01*
X125077038Y-92452500D01*
X124722962Y-92452500D01*
X124375689Y-92521577D01*
X124048565Y-92657076D01*
X123754161Y-92853791D01*
X123503791Y-93104161D01*
X123307076Y-93398565D01*
X123171577Y-93725689D01*
X123102500Y-94072962D01*
X60660000Y-94072962D01*
X60660000Y-92452033D01*
X65227572Y-92452033D01*
X65545757Y-92905850D01*
X66150210Y-93231269D01*
X66806535Y-93432512D01*
X67489510Y-93501845D01*
X68172888Y-93436605D01*
X68830407Y-93239298D01*
X69436799Y-92917506D01*
X69454243Y-92905850D01*
X69772428Y-92452033D01*
X132727572Y-92452033D01*
X133045757Y-92905850D01*
X133650210Y-93231269D01*
X134306535Y-93432512D01*
X134989510Y-93501845D01*
X135672888Y-93436605D01*
X136330407Y-93239298D01*
X136936799Y-92917506D01*
X136954243Y-92905850D01*
X137272428Y-92452033D01*
X135000000Y-90179605D01*
X132727572Y-92452033D01*
X69772428Y-92452033D01*
X67500000Y-90179605D01*
X65227572Y-92452033D01*
X60660000Y-92452033D01*
X60660000Y-89989510D01*
X63998155Y-89989510D01*
X64063395Y-90672888D01*
X64260702Y-91330407D01*
X64582494Y-91936799D01*
X64594150Y-91954243D01*
X65047967Y-92272428D01*
X67320395Y-90000000D01*
X67679605Y-90000000D01*
X69952033Y-92272428D01*
X70405850Y-91954243D01*
X70731269Y-91349790D01*
X70932512Y-90693465D01*
X71001845Y-90010490D01*
X70999843Y-89989510D01*
X131498155Y-89989510D01*
X131563395Y-90672888D01*
X131760702Y-91330407D01*
X132082494Y-91936799D01*
X132094150Y-91954243D01*
X132547967Y-92272428D01*
X134820395Y-90000000D01*
X135179605Y-90000000D01*
X137452033Y-92272428D01*
X137905850Y-91954243D01*
X138231269Y-91349790D01*
X138432512Y-90693465D01*
X138501845Y-90010490D01*
X138436605Y-89327112D01*
X138239298Y-88669593D01*
X137917506Y-88063201D01*
X137905850Y-88045757D01*
X137452033Y-87727572D01*
X135179605Y-90000000D01*
X134820395Y-90000000D01*
X132547967Y-87727572D01*
X132094150Y-88045757D01*
X131768731Y-88650210D01*
X131567488Y-89306535D01*
X131498155Y-89989510D01*
X70999843Y-89989510D01*
X70936605Y-89327112D01*
X70739298Y-88669593D01*
X70417506Y-88063201D01*
X70405850Y-88045757D01*
X69952033Y-87727572D01*
X67679605Y-90000000D01*
X67320395Y-90000000D01*
X65047967Y-87727572D01*
X64594150Y-88045757D01*
X64268731Y-88650210D01*
X64067488Y-89306535D01*
X63998155Y-89989510D01*
X60660000Y-89989510D01*
X60660000Y-87547967D01*
X65227572Y-87547967D01*
X67500000Y-89820395D01*
X69772428Y-87547967D01*
X132727572Y-87547967D01*
X135000000Y-89820395D01*
X137272428Y-87547967D01*
X136954243Y-87094150D01*
X136349790Y-86768731D01*
X135693465Y-86567488D01*
X135010490Y-86498155D01*
X134327112Y-86563395D01*
X133669593Y-86760702D01*
X133063201Y-87082494D01*
X133045757Y-87094150D01*
X132727572Y-87547967D01*
X69772428Y-87547967D01*
X69454243Y-87094150D01*
X68849790Y-86768731D01*
X68193465Y-86567488D01*
X67510490Y-86498155D01*
X66827112Y-86563395D01*
X66169593Y-86760702D01*
X65563201Y-87082494D01*
X65545757Y-87094150D01*
X65227572Y-87547967D01*
X60660000Y-87547967D01*
X60660000Y-86356655D01*
X142330000Y-86356655D01*
X142330000Y-86703345D01*
X142397636Y-87043373D01*
X142530308Y-87363673D01*
X142722919Y-87651935D01*
X142968065Y-87897081D01*
X143256327Y-88089692D01*
X143576627Y-88222364D01*
X143916655Y-88290000D01*
X144263345Y-88290000D01*
X144603373Y-88222364D01*
X144923673Y-88089692D01*
X145211935Y-87897081D01*
X145457081Y-87651935D01*
X145649692Y-87363673D01*
X145782364Y-87043373D01*
X145850000Y-86703345D01*
X145850000Y-86356655D01*
X145782364Y-86016627D01*
X145649692Y-85696327D01*
X145457081Y-85408065D01*
X145211935Y-85162919D01*
X144923673Y-84970308D01*
X144603373Y-84837636D01*
X144263345Y-84770000D01*
X143916655Y-84770000D01*
X143576627Y-84837636D01*
X143256327Y-84970308D01*
X142968065Y-85162919D01*
X142722919Y-85408065D01*
X142530308Y-85696327D01*
X142397636Y-86016627D01*
X142330000Y-86356655D01*
X60660000Y-86356655D01*
X60660000Y-84300000D01*
X87050280Y-84300000D01*
X87077098Y-84572291D01*
X87156523Y-84834119D01*
X87285501Y-85075420D01*
X87459077Y-85286923D01*
X87670580Y-85460499D01*
X87911881Y-85589477D01*
X88173709Y-85668902D01*
X88377770Y-85689000D01*
X90022230Y-85689000D01*
X90226291Y-85668902D01*
X90488119Y-85589477D01*
X90729420Y-85460499D01*
X90940923Y-85286923D01*
X91114499Y-85075420D01*
X91243477Y-84834119D01*
X91322902Y-84572291D01*
X91339870Y-84400000D01*
X121150280Y-84400000D01*
X121177098Y-84672291D01*
X121256523Y-84934119D01*
X121385501Y-85175420D01*
X121559077Y-85386923D01*
X121770580Y-85560499D01*
X122011881Y-85689477D01*
X122273709Y-85768902D01*
X122477770Y-85789000D01*
X124122230Y-85789000D01*
X124326291Y-85768902D01*
X124588119Y-85689477D01*
X124829420Y-85560499D01*
X125040923Y-85386923D01*
X125214499Y-85175420D01*
X125343477Y-84934119D01*
X125422902Y-84672291D01*
X125449720Y-84400000D01*
X125422902Y-84127709D01*
X125343477Y-83865881D01*
X125214499Y-83624580D01*
X125040923Y-83413077D01*
X124829420Y-83239501D01*
X124588119Y-83110523D01*
X124326291Y-83031098D01*
X124122230Y-83011000D01*
X122477770Y-83011000D01*
X122273709Y-83031098D01*
X122011881Y-83110523D01*
X121770580Y-83239501D01*
X121559077Y-83413077D01*
X121385501Y-83624580D01*
X121256523Y-83865881D01*
X121177098Y-84127709D01*
X121150280Y-84400000D01*
X91339870Y-84400000D01*
X91349720Y-84300000D01*
X91322902Y-84027709D01*
X91243477Y-83765881D01*
X91114499Y-83524580D01*
X90940923Y-83313077D01*
X90729420Y-83139501D01*
X90488119Y-83010523D01*
X90226291Y-82931098D01*
X90022230Y-82911000D01*
X88377770Y-82911000D01*
X88173709Y-82931098D01*
X87911881Y-83010523D01*
X87670580Y-83139501D01*
X87459077Y-83313077D01*
X87285501Y-83524580D01*
X87156523Y-83765881D01*
X87077098Y-84027709D01*
X87050280Y-84300000D01*
X60660000Y-84300000D01*
X60660000Y-80907500D01*
X73009428Y-80907500D01*
X73009428Y-83232500D01*
X73021688Y-83356982D01*
X73057998Y-83476680D01*
X73116963Y-83586994D01*
X73196315Y-83683685D01*
X73293006Y-83763037D01*
X73403320Y-83822002D01*
X73523018Y-83858312D01*
X73647500Y-83870572D01*
X75972500Y-83870572D01*
X76096982Y-83858312D01*
X76216680Y-83822002D01*
X76326994Y-83763037D01*
X76423685Y-83683685D01*
X76503037Y-83586994D01*
X76562002Y-83476680D01*
X76598312Y-83356982D01*
X76610572Y-83232500D01*
X76610572Y-82754531D01*
X143045074Y-82754531D01*
X143155921Y-83031714D01*
X143466840Y-83185089D01*
X143801705Y-83274860D01*
X144147650Y-83297576D01*
X144491380Y-83252366D01*
X144819685Y-83140966D01*
X145024079Y-83031714D01*
X145134926Y-82754531D01*
X144090000Y-81709605D01*
X143045074Y-82754531D01*
X76610572Y-82754531D01*
X76610572Y-80907500D01*
X76598312Y-80783018D01*
X76562002Y-80663320D01*
X76503037Y-80553006D01*
X76423685Y-80456315D01*
X76326994Y-80376963D01*
X76216680Y-80317998D01*
X76096982Y-80281688D01*
X75972500Y-80269428D01*
X73647500Y-80269428D01*
X73523018Y-80281688D01*
X73403320Y-80317998D01*
X73293006Y-80376963D01*
X73196315Y-80456315D01*
X73116963Y-80553006D01*
X73057998Y-80663320D01*
X73021688Y-80783018D01*
X73009428Y-80907500D01*
X60660000Y-80907500D01*
X60660000Y-78392962D01*
X68012500Y-78392962D01*
X68012500Y-78747038D01*
X68081577Y-79094311D01*
X68217076Y-79421435D01*
X68413791Y-79715839D01*
X68664161Y-79966209D01*
X68958565Y-80162924D01*
X69285689Y-80298423D01*
X69632962Y-80367500D01*
X69987038Y-80367500D01*
X70334311Y-80298423D01*
X70661435Y-80162924D01*
X70955839Y-79966209D01*
X71206209Y-79715839D01*
X71402924Y-79421435D01*
X71538423Y-79094311D01*
X71596965Y-78800000D01*
X87050280Y-78800000D01*
X87077098Y-79072291D01*
X87156523Y-79334119D01*
X87285501Y-79575420D01*
X87459077Y-79786923D01*
X87670580Y-79960499D01*
X87911881Y-80089477D01*
X88173709Y-80168902D01*
X88377770Y-80189000D01*
X89119175Y-80189000D01*
X89077098Y-80327709D01*
X89050280Y-80600000D01*
X89077098Y-80872291D01*
X89156523Y-81134119D01*
X89285501Y-81375420D01*
X89459077Y-81586923D01*
X89670580Y-81760499D01*
X89911881Y-81889477D01*
X90173709Y-81968902D01*
X90377770Y-81989000D01*
X92022230Y-81989000D01*
X92226291Y-81968902D01*
X92488119Y-81889477D01*
X92729420Y-81760499D01*
X92940923Y-81586923D01*
X93114499Y-81375420D01*
X93243477Y-81134119D01*
X93322902Y-80872291D01*
X93349720Y-80600000D01*
X93322902Y-80327709D01*
X93243477Y-80065881D01*
X93114499Y-79824580D01*
X92940923Y-79613077D01*
X92729420Y-79439501D01*
X92488119Y-79310523D01*
X92226291Y-79231098D01*
X92022230Y-79211000D01*
X91280825Y-79211000D01*
X91322902Y-79072291D01*
X91339870Y-78900000D01*
X121150280Y-78900000D01*
X121177098Y-79172291D01*
X121256523Y-79434119D01*
X121385501Y-79675420D01*
X121559077Y-79886923D01*
X121770580Y-80060499D01*
X122011881Y-80189477D01*
X122273709Y-80268902D01*
X122477770Y-80289000D01*
X123219175Y-80289000D01*
X123177098Y-80427709D01*
X123150280Y-80700000D01*
X123177098Y-80972291D01*
X123256523Y-81234119D01*
X123385501Y-81475420D01*
X123559077Y-81686923D01*
X123770580Y-81860499D01*
X124011881Y-81989477D01*
X124273709Y-82068902D01*
X124477770Y-82089000D01*
X126122230Y-82089000D01*
X126326291Y-82068902D01*
X126588119Y-81989477D01*
X126829420Y-81860499D01*
X127040923Y-81686923D01*
X127122394Y-81587650D01*
X142322424Y-81587650D01*
X142367634Y-81931380D01*
X142479034Y-82259685D01*
X142588286Y-82464079D01*
X142865469Y-82574926D01*
X143910395Y-81530000D01*
X144269605Y-81530000D01*
X145314531Y-82574926D01*
X145591714Y-82464079D01*
X145745089Y-82153160D01*
X145834860Y-81818295D01*
X145857576Y-81472350D01*
X145812366Y-81128620D01*
X145700966Y-80800315D01*
X145591714Y-80595921D01*
X145314531Y-80485074D01*
X144269605Y-81530000D01*
X143910395Y-81530000D01*
X142865469Y-80485074D01*
X142588286Y-80595921D01*
X142434911Y-80906840D01*
X142345140Y-81241705D01*
X142322424Y-81587650D01*
X127122394Y-81587650D01*
X127214499Y-81475420D01*
X127343477Y-81234119D01*
X127422902Y-80972291D01*
X127449720Y-80700000D01*
X127422902Y-80427709D01*
X127385821Y-80305469D01*
X143045074Y-80305469D01*
X144090000Y-81350395D01*
X145134926Y-80305469D01*
X145024079Y-80028286D01*
X144713160Y-79874911D01*
X144378295Y-79785140D01*
X144032350Y-79762424D01*
X143688620Y-79807634D01*
X143360315Y-79919034D01*
X143155921Y-80028286D01*
X143045074Y-80305469D01*
X127385821Y-80305469D01*
X127343477Y-80165881D01*
X127214499Y-79924580D01*
X127040923Y-79713077D01*
X126829420Y-79539501D01*
X126588119Y-79410523D01*
X126326291Y-79331098D01*
X126122230Y-79311000D01*
X125380825Y-79311000D01*
X125422902Y-79172291D01*
X125449720Y-78900000D01*
X125422902Y-78627709D01*
X125343477Y-78365881D01*
X125214499Y-78124580D01*
X125040923Y-77913077D01*
X124847735Y-77754531D01*
X143045074Y-77754531D01*
X143155921Y-78031714D01*
X143466840Y-78185089D01*
X143801705Y-78274860D01*
X144147650Y-78297576D01*
X144491380Y-78252366D01*
X144819685Y-78140966D01*
X145024079Y-78031714D01*
X145134926Y-77754531D01*
X144090000Y-76709605D01*
X143045074Y-77754531D01*
X124847735Y-77754531D01*
X124829420Y-77739501D01*
X124588119Y-77610523D01*
X124326291Y-77531098D01*
X124122230Y-77511000D01*
X122477770Y-77511000D01*
X122273709Y-77531098D01*
X122011881Y-77610523D01*
X121770580Y-77739501D01*
X121559077Y-77913077D01*
X121385501Y-78124580D01*
X121256523Y-78365881D01*
X121177098Y-78627709D01*
X121150280Y-78900000D01*
X91339870Y-78900000D01*
X91349720Y-78800000D01*
X91322902Y-78527709D01*
X91243477Y-78265881D01*
X91114499Y-78024580D01*
X90940923Y-77813077D01*
X90729420Y-77639501D01*
X90488119Y-77510523D01*
X90226291Y-77431098D01*
X90022230Y-77411000D01*
X88377770Y-77411000D01*
X88173709Y-77431098D01*
X87911881Y-77510523D01*
X87670580Y-77639501D01*
X87459077Y-77813077D01*
X87285501Y-78024580D01*
X87156523Y-78265881D01*
X87077098Y-78527709D01*
X87050280Y-78800000D01*
X71596965Y-78800000D01*
X71607500Y-78747038D01*
X71607500Y-78392962D01*
X71538423Y-78045689D01*
X71402924Y-77718565D01*
X71206209Y-77424161D01*
X70955839Y-77173791D01*
X70661435Y-76977076D01*
X70334311Y-76841577D01*
X69987038Y-76772500D01*
X69632962Y-76772500D01*
X69285689Y-76841577D01*
X68958565Y-76977076D01*
X68664161Y-77173791D01*
X68413791Y-77424161D01*
X68217076Y-77718565D01*
X68081577Y-78045689D01*
X68012500Y-78392962D01*
X60660000Y-78392962D01*
X60660000Y-75100000D01*
X89050280Y-75100000D01*
X89077098Y-75372291D01*
X89156523Y-75634119D01*
X89285501Y-75875420D01*
X89459077Y-76086923D01*
X89670580Y-76260499D01*
X89911881Y-76389477D01*
X90173709Y-76468902D01*
X90377770Y-76489000D01*
X92022230Y-76489000D01*
X92226291Y-76468902D01*
X92488119Y-76389477D01*
X92729420Y-76260499D01*
X92940923Y-76086923D01*
X93114499Y-75875420D01*
X93243477Y-75634119D01*
X93322902Y-75372291D01*
X93339870Y-75200000D01*
X123150280Y-75200000D01*
X123177098Y-75472291D01*
X123256523Y-75734119D01*
X123385501Y-75975420D01*
X123559077Y-76186923D01*
X123770580Y-76360499D01*
X124011881Y-76489477D01*
X124273709Y-76568902D01*
X124477770Y-76589000D01*
X126122230Y-76589000D01*
X126135936Y-76587650D01*
X142322424Y-76587650D01*
X142367634Y-76931380D01*
X142479034Y-77259685D01*
X142588286Y-77464079D01*
X142865469Y-77574926D01*
X143910395Y-76530000D01*
X144269605Y-76530000D01*
X145314531Y-77574926D01*
X145591714Y-77464079D01*
X145745089Y-77153160D01*
X145834860Y-76818295D01*
X145857576Y-76472350D01*
X145812366Y-76128620D01*
X145700966Y-75800315D01*
X145591714Y-75595921D01*
X145314531Y-75485074D01*
X144269605Y-76530000D01*
X143910395Y-76530000D01*
X142865469Y-75485074D01*
X142588286Y-75595921D01*
X142434911Y-75906840D01*
X142345140Y-76241705D01*
X142322424Y-76587650D01*
X126135936Y-76587650D01*
X126326291Y-76568902D01*
X126588119Y-76489477D01*
X126829420Y-76360499D01*
X127040923Y-76186923D01*
X127214499Y-75975420D01*
X127343477Y-75734119D01*
X127422902Y-75472291D01*
X127439332Y-75305469D01*
X143045074Y-75305469D01*
X144090000Y-76350395D01*
X145134926Y-75305469D01*
X145024079Y-75028286D01*
X144713160Y-74874911D01*
X144378295Y-74785140D01*
X144032350Y-74762424D01*
X143688620Y-74807634D01*
X143360315Y-74919034D01*
X143155921Y-75028286D01*
X143045074Y-75305469D01*
X127439332Y-75305469D01*
X127449720Y-75200000D01*
X127422902Y-74927709D01*
X127343477Y-74665881D01*
X127214499Y-74424580D01*
X127040923Y-74213077D01*
X126829420Y-74039501D01*
X126588119Y-73910523D01*
X126326291Y-73831098D01*
X126122230Y-73811000D01*
X125005672Y-73811000D01*
X125125974Y-73692369D01*
X125279469Y-73466091D01*
X125385870Y-73214215D01*
X125400286Y-73141814D01*
X125277677Y-72927000D01*
X123427000Y-72927000D01*
X123427000Y-74189000D01*
X123588415Y-74189000D01*
X123559077Y-74213077D01*
X123385501Y-74424580D01*
X123256523Y-74665881D01*
X123177098Y-74927709D01*
X123150280Y-75200000D01*
X93339870Y-75200000D01*
X93349720Y-75100000D01*
X93322902Y-74827709D01*
X93243477Y-74565881D01*
X93114499Y-74324580D01*
X92940923Y-74113077D01*
X92729420Y-73939501D01*
X92488119Y-73810523D01*
X92226291Y-73731098D01*
X92022230Y-73711000D01*
X90905672Y-73711000D01*
X91025974Y-73592369D01*
X91179469Y-73366091D01*
X91274211Y-73141814D01*
X121199714Y-73141814D01*
X121214130Y-73214215D01*
X121320531Y-73466091D01*
X121474026Y-73692369D01*
X121668716Y-73884354D01*
X121897120Y-74034668D01*
X122150460Y-74137534D01*
X122419000Y-74189000D01*
X123173000Y-74189000D01*
X123173000Y-72927000D01*
X121322323Y-72927000D01*
X121199714Y-73141814D01*
X91274211Y-73141814D01*
X91285870Y-73114215D01*
X91300286Y-73041814D01*
X91177677Y-72827000D01*
X89327000Y-72827000D01*
X89327000Y-74089000D01*
X89488415Y-74089000D01*
X89459077Y-74113077D01*
X89285501Y-74324580D01*
X89156523Y-74565881D01*
X89077098Y-74827709D01*
X89050280Y-75100000D01*
X60660000Y-75100000D01*
X60660000Y-75029392D01*
X60731173Y-74231917D01*
X60934656Y-73488109D01*
X61147528Y-73041814D01*
X87099714Y-73041814D01*
X87114130Y-73114215D01*
X87220531Y-73366091D01*
X87374026Y-73592369D01*
X87568716Y-73784354D01*
X87797120Y-73934668D01*
X88050460Y-74037534D01*
X88319000Y-74089000D01*
X89073000Y-74089000D01*
X89073000Y-72827000D01*
X87222323Y-72827000D01*
X87099714Y-73041814D01*
X61147528Y-73041814D01*
X61266638Y-72792095D01*
X61578433Y-72358186D01*
X87099714Y-72358186D01*
X87222323Y-72573000D01*
X89073000Y-72573000D01*
X89073000Y-71311000D01*
X89327000Y-71311000D01*
X89327000Y-72573000D01*
X91177677Y-72573000D01*
X91243209Y-72458186D01*
X121199714Y-72458186D01*
X121322323Y-72673000D01*
X123173000Y-72673000D01*
X123173000Y-71411000D01*
X123427000Y-71411000D01*
X123427000Y-72673000D01*
X125277677Y-72673000D01*
X125400286Y-72458186D01*
X125385870Y-72385785D01*
X125279469Y-72133909D01*
X125125974Y-71907631D01*
X124931284Y-71715646D01*
X124702880Y-71565332D01*
X124449540Y-71462466D01*
X124181000Y-71411000D01*
X123427000Y-71411000D01*
X123173000Y-71411000D01*
X122419000Y-71411000D01*
X122150460Y-71462466D01*
X121897120Y-71565332D01*
X121668716Y-71715646D01*
X121474026Y-71907631D01*
X121320531Y-72133909D01*
X121214130Y-72385785D01*
X121199714Y-72458186D01*
X91243209Y-72458186D01*
X91300286Y-72358186D01*
X91285870Y-72285785D01*
X91179469Y-72033909D01*
X91025974Y-71807631D01*
X90831284Y-71615646D01*
X90602880Y-71465332D01*
X90349540Y-71362466D01*
X90081000Y-71311000D01*
X89327000Y-71311000D01*
X89073000Y-71311000D01*
X88319000Y-71311000D01*
X88050460Y-71362466D01*
X87797120Y-71465332D01*
X87568716Y-71615646D01*
X87374026Y-71807631D01*
X87220531Y-72033909D01*
X87114130Y-72285785D01*
X87099714Y-72358186D01*
X61578433Y-72358186D01*
X61716626Y-72165870D01*
X62270403Y-71629223D01*
X62910451Y-71199129D01*
X63616553Y-70889171D01*
X64371457Y-70707935D01*
X65024207Y-70660000D01*
X144970608Y-70660000D01*
X145768083Y-70731173D01*
M02*
