G04 #@! TF.GenerationSoftware,KiCad,Pcbnew,(5.1.4)-1*
G04 #@! TF.CreationDate,2020-01-01T19:34:10-05:00*
G04 #@! TF.ProjectId,Board,426f6172-642e-46b6-9963-61645f706362,rev?*
G04 #@! TF.SameCoordinates,Original*
G04 #@! TF.FileFunction,Legend,Bot*
G04 #@! TF.FilePolarity,Positive*
%FSLAX46Y46*%
G04 Gerber Fmt 4.6, Leading zero omitted, Abs format (unit mm)*
G04 Created by KiCad (PCBNEW (5.1.4)-1) date 2020-01-01 19:34:10*
%MOMM*%
%LPD*%
G04 APERTURE LIST*
%ADD10C,0.150000*%
G04 APERTURE END LIST*
D10*
X93830952Y-139002380D02*
X93640476Y-139002380D01*
X93545238Y-138954761D01*
X93497619Y-138907142D01*
X93402380Y-138764285D01*
X93354761Y-138573809D01*
X93354761Y-138192857D01*
X93402380Y-138097619D01*
X93450000Y-138050000D01*
X93545238Y-138002380D01*
X93735714Y-138002380D01*
X93830952Y-138050000D01*
X93878571Y-138097619D01*
X93926190Y-138192857D01*
X93926190Y-138430952D01*
X93878571Y-138526190D01*
X93830952Y-138573809D01*
X93735714Y-138621428D01*
X93545238Y-138621428D01*
X93450000Y-138573809D01*
X93402380Y-138526190D01*
X93354761Y-138430952D01*
X92735714Y-138002380D02*
X92640476Y-138002380D01*
X92545238Y-138050000D01*
X92497619Y-138097619D01*
X92450000Y-138192857D01*
X92402380Y-138383333D01*
X92402380Y-138621428D01*
X92450000Y-138811904D01*
X92497619Y-138907142D01*
X92545238Y-138954761D01*
X92640476Y-139002380D01*
X92735714Y-139002380D01*
X92830952Y-138954761D01*
X92878571Y-138907142D01*
X92926190Y-138811904D01*
X92973809Y-138621428D01*
X92973809Y-138383333D01*
X92926190Y-138192857D01*
X92878571Y-138097619D01*
X92830952Y-138050000D01*
X92735714Y-138002380D01*
X91973809Y-138907142D02*
X91926190Y-138954761D01*
X91973809Y-139002380D01*
X92021428Y-138954761D01*
X91973809Y-138907142D01*
X91973809Y-139002380D01*
X91307142Y-138002380D02*
X91211904Y-138002380D01*
X91116666Y-138050000D01*
X91069047Y-138097619D01*
X91021428Y-138192857D01*
X90973809Y-138383333D01*
X90973809Y-138621428D01*
X91021428Y-138811904D01*
X91069047Y-138907142D01*
X91116666Y-138954761D01*
X91211904Y-139002380D01*
X91307142Y-139002380D01*
X91402380Y-138954761D01*
X91450000Y-138907142D01*
X91497619Y-138811904D01*
X91545238Y-138621428D01*
X91545238Y-138383333D01*
X91497619Y-138192857D01*
X91450000Y-138097619D01*
X91402380Y-138050000D01*
X91307142Y-138002380D01*
X90354761Y-138002380D02*
X90259523Y-138002380D01*
X90164285Y-138050000D01*
X90116666Y-138097619D01*
X90069047Y-138192857D01*
X90021428Y-138383333D01*
X90021428Y-138621428D01*
X90069047Y-138811904D01*
X90116666Y-138907142D01*
X90164285Y-138954761D01*
X90259523Y-139002380D01*
X90354761Y-139002380D01*
X90450000Y-138954761D01*
X90497619Y-138907142D01*
X90545238Y-138811904D01*
X90592857Y-138621428D01*
X90592857Y-138383333D01*
X90545238Y-138192857D01*
X90497619Y-138097619D01*
X90450000Y-138050000D01*
X90354761Y-138002380D01*
X88926190Y-139002380D02*
X88402380Y-138335714D01*
X88926190Y-138335714D02*
X88402380Y-139002380D01*
X87354761Y-138002380D02*
X86688095Y-138002380D01*
X87116666Y-139002380D01*
X85830952Y-138002380D02*
X86307142Y-138002380D01*
X86354761Y-138478571D01*
X86307142Y-138430952D01*
X86211904Y-138383333D01*
X85973809Y-138383333D01*
X85878571Y-138430952D01*
X85830952Y-138478571D01*
X85783333Y-138573809D01*
X85783333Y-138811904D01*
X85830952Y-138907142D01*
X85878571Y-138954761D01*
X85973809Y-139002380D01*
X86211904Y-139002380D01*
X86307142Y-138954761D01*
X86354761Y-138907142D01*
X85354761Y-138907142D02*
X85307142Y-138954761D01*
X85354761Y-139002380D01*
X85402380Y-138954761D01*
X85354761Y-138907142D01*
X85354761Y-139002380D01*
X84688095Y-138002380D02*
X84592857Y-138002380D01*
X84497619Y-138050000D01*
X84450000Y-138097619D01*
X84402380Y-138192857D01*
X84354761Y-138383333D01*
X84354761Y-138621428D01*
X84402380Y-138811904D01*
X84450000Y-138907142D01*
X84497619Y-138954761D01*
X84592857Y-139002380D01*
X84688095Y-139002380D01*
X84783333Y-138954761D01*
X84830952Y-138907142D01*
X84878571Y-138811904D01*
X84926190Y-138621428D01*
X84926190Y-138383333D01*
X84878571Y-138192857D01*
X84830952Y-138097619D01*
X84783333Y-138050000D01*
X84688095Y-138002380D01*
X83735714Y-138002380D02*
X83640476Y-138002380D01*
X83545238Y-138050000D01*
X83497619Y-138097619D01*
X83450000Y-138192857D01*
X83402380Y-138383333D01*
X83402380Y-138621428D01*
X83450000Y-138811904D01*
X83497619Y-138907142D01*
X83545238Y-138954761D01*
X83640476Y-139002380D01*
X83735714Y-139002380D01*
X83830952Y-138954761D01*
X83878571Y-138907142D01*
X83926190Y-138811904D01*
X83973809Y-138621428D01*
X83973809Y-138383333D01*
X83926190Y-138192857D01*
X83878571Y-138097619D01*
X83830952Y-138050000D01*
X83735714Y-138002380D01*
X82211904Y-139002380D02*
X82211904Y-138335714D01*
X82211904Y-138430952D02*
X82164285Y-138383333D01*
X82069047Y-138335714D01*
X81926190Y-138335714D01*
X81830952Y-138383333D01*
X81783333Y-138478571D01*
X81783333Y-139002380D01*
X81783333Y-138478571D02*
X81735714Y-138383333D01*
X81640476Y-138335714D01*
X81497619Y-138335714D01*
X81402380Y-138383333D01*
X81354761Y-138478571D01*
X81354761Y-139002380D01*
X80878571Y-139002380D02*
X80878571Y-138335714D01*
X80878571Y-138430952D02*
X80830952Y-138383333D01*
X80735714Y-138335714D01*
X80592857Y-138335714D01*
X80497619Y-138383333D01*
X80450000Y-138478571D01*
X80450000Y-139002380D01*
X80450000Y-138478571D02*
X80402380Y-138383333D01*
X80307142Y-138335714D01*
X80164285Y-138335714D01*
X80069047Y-138383333D01*
X80021428Y-138478571D01*
X80021428Y-139002380D01*
X93309047Y-142432380D02*
X93880476Y-142432380D01*
X93594761Y-142432380D02*
X93594761Y-141432380D01*
X93690000Y-141575238D01*
X93785238Y-141670476D01*
X93880476Y-141718095D01*
X92928095Y-141527619D02*
X92880476Y-141480000D01*
X92785238Y-141432380D01*
X92547142Y-141432380D01*
X92451904Y-141480000D01*
X92404285Y-141527619D01*
X92356666Y-141622857D01*
X92356666Y-141718095D01*
X92404285Y-141860952D01*
X92975714Y-142432380D01*
X92356666Y-142432380D01*
X91213809Y-141384761D02*
X92070952Y-142670476D01*
X90928095Y-141527619D02*
X90880476Y-141480000D01*
X90785238Y-141432380D01*
X90547142Y-141432380D01*
X90451904Y-141480000D01*
X90404285Y-141527619D01*
X90356666Y-141622857D01*
X90356666Y-141718095D01*
X90404285Y-141860952D01*
X90975714Y-142432380D01*
X90356666Y-142432380D01*
X89737619Y-141432380D02*
X89642380Y-141432380D01*
X89547142Y-141480000D01*
X89499523Y-141527619D01*
X89451904Y-141622857D01*
X89404285Y-141813333D01*
X89404285Y-142051428D01*
X89451904Y-142241904D01*
X89499523Y-142337142D01*
X89547142Y-142384761D01*
X89642380Y-142432380D01*
X89737619Y-142432380D01*
X89832857Y-142384761D01*
X89880476Y-142337142D01*
X89928095Y-142241904D01*
X89975714Y-142051428D01*
X89975714Y-141813333D01*
X89928095Y-141622857D01*
X89880476Y-141527619D01*
X89832857Y-141480000D01*
X89737619Y-141432380D01*
X88451904Y-142432380D02*
X89023333Y-142432380D01*
X88737619Y-142432380D02*
X88737619Y-141432380D01*
X88832857Y-141575238D01*
X88928095Y-141670476D01*
X89023333Y-141718095D01*
X87975714Y-142432380D02*
X87785238Y-142432380D01*
X87690000Y-142384761D01*
X87642380Y-142337142D01*
X87547142Y-142194285D01*
X87499523Y-142003809D01*
X87499523Y-141622857D01*
X87547142Y-141527619D01*
X87594761Y-141480000D01*
X87690000Y-141432380D01*
X87880476Y-141432380D01*
X87975714Y-141480000D01*
X88023333Y-141527619D01*
X88070952Y-141622857D01*
X88070952Y-141860952D01*
X88023333Y-141956190D01*
X87975714Y-142003809D01*
X87880476Y-142051428D01*
X87690000Y-142051428D01*
X87594761Y-142003809D01*
X87547142Y-141956190D01*
X87499523Y-141860952D01*
X93400000Y-139612380D02*
X93590476Y-139612380D01*
X93685714Y-139660000D01*
X93733333Y-139707619D01*
X93828571Y-139850476D01*
X93876190Y-140040952D01*
X93876190Y-140421904D01*
X93828571Y-140517142D01*
X93780952Y-140564761D01*
X93685714Y-140612380D01*
X93495238Y-140612380D01*
X93400000Y-140564761D01*
X93352380Y-140517142D01*
X93304761Y-140421904D01*
X93304761Y-140183809D01*
X93352380Y-140088571D01*
X93400000Y-140040952D01*
X93495238Y-139993333D01*
X93685714Y-139993333D01*
X93780952Y-140040952D01*
X93828571Y-140088571D01*
X93876190Y-140183809D01*
X92971428Y-139612380D02*
X92304761Y-139612380D01*
X92733333Y-140612380D01*
X91923809Y-140517142D02*
X91876190Y-140564761D01*
X91923809Y-140612380D01*
X91971428Y-140564761D01*
X91923809Y-140517142D01*
X91923809Y-140612380D01*
X90971428Y-139612380D02*
X91447619Y-139612380D01*
X91495238Y-140088571D01*
X91447619Y-140040952D01*
X91352380Y-139993333D01*
X91114285Y-139993333D01*
X91019047Y-140040952D01*
X90971428Y-140088571D01*
X90923809Y-140183809D01*
X90923809Y-140421904D01*
X90971428Y-140517142D01*
X91019047Y-140564761D01*
X91114285Y-140612380D01*
X91352380Y-140612380D01*
X91447619Y-140564761D01*
X91495238Y-140517142D01*
X90304761Y-139612380D02*
X90209523Y-139612380D01*
X90114285Y-139660000D01*
X90066666Y-139707619D01*
X90019047Y-139802857D01*
X89971428Y-139993333D01*
X89971428Y-140231428D01*
X90019047Y-140421904D01*
X90066666Y-140517142D01*
X90114285Y-140564761D01*
X90209523Y-140612380D01*
X90304761Y-140612380D01*
X90400000Y-140564761D01*
X90447619Y-140517142D01*
X90495238Y-140421904D01*
X90542857Y-140231428D01*
X90542857Y-139993333D01*
X90495238Y-139802857D01*
X90447619Y-139707619D01*
X90400000Y-139660000D01*
X90304761Y-139612380D01*
X88876190Y-140612380D02*
X88352380Y-139945714D01*
X88876190Y-139945714D02*
X88352380Y-140612380D01*
X86780952Y-139945714D02*
X86780952Y-140612380D01*
X87019047Y-139564761D02*
X87257142Y-140279047D01*
X86638095Y-140279047D01*
X86352380Y-139612380D02*
X85685714Y-139612380D01*
X86114285Y-140612380D01*
X85304761Y-140517142D02*
X85257142Y-140564761D01*
X85304761Y-140612380D01*
X85352380Y-140564761D01*
X85304761Y-140517142D01*
X85304761Y-140612380D01*
X84352380Y-139612380D02*
X84828571Y-139612380D01*
X84876190Y-140088571D01*
X84828571Y-140040952D01*
X84733333Y-139993333D01*
X84495238Y-139993333D01*
X84400000Y-140040952D01*
X84352380Y-140088571D01*
X84304761Y-140183809D01*
X84304761Y-140421904D01*
X84352380Y-140517142D01*
X84400000Y-140564761D01*
X84495238Y-140612380D01*
X84733333Y-140612380D01*
X84828571Y-140564761D01*
X84876190Y-140517142D01*
X83685714Y-139612380D02*
X83590476Y-139612380D01*
X83495238Y-139660000D01*
X83447619Y-139707619D01*
X83400000Y-139802857D01*
X83352380Y-139993333D01*
X83352380Y-140231428D01*
X83400000Y-140421904D01*
X83447619Y-140517142D01*
X83495238Y-140564761D01*
X83590476Y-140612380D01*
X83685714Y-140612380D01*
X83780952Y-140564761D01*
X83828571Y-140517142D01*
X83876190Y-140421904D01*
X83923809Y-140231428D01*
X83923809Y-139993333D01*
X83876190Y-139802857D01*
X83828571Y-139707619D01*
X83780952Y-139660000D01*
X83685714Y-139612380D01*
X82161904Y-140612380D02*
X82161904Y-139945714D01*
X82161904Y-140040952D02*
X82114285Y-139993333D01*
X82019047Y-139945714D01*
X81876190Y-139945714D01*
X81780952Y-139993333D01*
X81733333Y-140088571D01*
X81733333Y-140612380D01*
X81733333Y-140088571D02*
X81685714Y-139993333D01*
X81590476Y-139945714D01*
X81447619Y-139945714D01*
X81352380Y-139993333D01*
X81304761Y-140088571D01*
X81304761Y-140612380D01*
X80828571Y-140612380D02*
X80828571Y-139945714D01*
X80828571Y-140040952D02*
X80780952Y-139993333D01*
X80685714Y-139945714D01*
X80542857Y-139945714D01*
X80447619Y-139993333D01*
X80400000Y-140088571D01*
X80400000Y-140612380D01*
X80400000Y-140088571D02*
X80352380Y-139993333D01*
X80257142Y-139945714D01*
X80114285Y-139945714D01*
X80019047Y-139993333D01*
X79971428Y-140088571D01*
X79971428Y-140612380D01*
M02*
