M48
; DRILL file {KiCad (5.1.4)-1} date 12/30/2019 10:49:48 PM
; FORMAT={-:-/ absolute / inch / decimal}
; #@! TF.CreationDate,2019-12-30T22:49:48-05:00
; #@! TF.GenerationSoftware,Kicad,Pcbnew,(5.1.4)-1
; #@! TF.FileFunction,Plated,1,2,PTH
FMAT,2
INCH
T1C0.0157
T2C0.0394
T3C0.0591
T4C0.0610
T5C0.1260
%
G90
G05
T1
X3.1051Y-5.1803
X3.1063Y-4.7622
X3.2059Y-3.6539
X3.3594Y-4.6701
X3.3882Y-4.7614
X3.4083Y-4.6126
X3.5039Y-4.4638
X3.6154Y-4.4638
X3.7217Y-4.5815
X3.7433Y-4.7713
X3.7543Y-5.152
X3.7563Y-5.0228
X3.7598Y-4.9732
X3.7697Y-4.9224
X3.7767Y-5.0946
X3.8114Y-3.6559
X3.8799Y-4.4681
X3.9248Y-5.0949
X3.9417Y-4.1697
X3.9492Y-5.026
X3.9496Y-4.9823
X3.9732Y-5.065
X4.0398Y-3.2224
X4.1421Y-3.8091
X4.1728Y-5.3102
X4.2051Y-4.2146
X4.2295Y-4.2909
X4.2295Y-5.3268
X4.2295Y-5.4059
X4.237Y-5.0886
X4.2807Y-5.3256
X4.2807Y-5.4075
X4.2988Y-5.0886
X4.3583Y-4.5547
X4.3902Y-5.0043
X4.4008Y-4.7823
X4.4163Y-3.8014
X4.4528Y-5.3969
X4.4583Y-4.5425
X4.4583Y-4.652
X4.5402Y-5.3972
X4.6138Y-3.2205
X4.656Y-5.1696
X5.0Y-4.6283
X5.0046Y-4.8123
X5.0331Y-4.5094
X5.0567Y-4.9909
X5.1201Y-4.8217
X5.4776Y-4.5559
X5.624Y-4.3878
T2
X2.9067Y-4.5413
X4.3358Y-5.5665
X2.9122Y-4.7929
X2.9122Y-4.8929
X2.9122Y-4.9929
X2.9122Y-5.0929
X2.9122Y-5.1929
X2.9122Y-5.2929
X2.9122Y-5.3929
X4.126Y-5.565
X5.5012Y-5.5752
X5.6012Y-5.5752
X4.8268Y-4.189
X5.6744Y-4.837
X5.6744Y-4.937
X5.6744Y-5.037
X5.6744Y-5.137
X5.2291Y-5.3583
X5.2291Y-5.4583
X5.2291Y-5.5583
X5.076Y-4.1921
T3
X4.6539Y-3.7547
X4.8508Y-3.7547
X5.0476Y-3.7547
X2.7535Y-3.873
X2.7535Y-4.0698
X2.7535Y-4.2667
X3.3079Y-3.1283
X3.5047Y-3.1283
X3.7016Y-3.1283
X5.6728Y-3.013
X5.6728Y-3.2098
X5.6728Y-3.4067
X5.6693Y-3.6701
X5.6693Y-3.8669
X5.6693Y-4.0638
T4
X4.8876Y-3.3879
X5.0254Y-3.1911
X2.7484Y-3.0933
X2.9453Y-3.2311
T5
X2.6575Y-5.4134
X5.315Y-3.5433
X2.6575Y-3.5433
T0
M30
